<svg width="1280" height="720" viewBox="0 0 1280 720" fill="none" xmlns="http://www.w3.org/2000/svg">
<g clip-path="url(#clip0_4008_14)">
<rect width="1280" height="720" fill="#F0F7F5"/>
<rect width="1280" height="76" fill="white"/>
<path d="M312.636 47V29.3853H319.093C320.843 29.3853 322.34 29.7271 323.585 30.4106C324.831 31.0942 325.783 32.0871 326.442 33.3892C327.109 34.6912 327.443 36.27 327.443 38.1255V38.1499C327.443 40.0054 327.113 41.5964 326.454 42.9229C325.795 44.2412 324.843 45.2503 323.598 45.9502C322.353 46.6501 320.851 47 319.093 47H312.636ZM315.785 44.3511H318.751C319.931 44.3511 320.928 44.1151 321.742 43.6431C322.564 43.1629 323.187 42.4631 323.61 41.5435C324.033 40.6239 324.245 39.4967 324.245 38.1621V38.1377C324.245 36.8275 324.029 35.7207 323.598 34.8174C323.174 33.9059 322.552 33.2142 321.73 32.7422C320.916 32.2702 319.923 32.0342 318.751 32.0342H315.785V44.3511ZM335.5 47.2563C334.206 47.2563 333.091 46.9837 332.155 46.4385C331.219 45.8932 330.499 45.116 329.994 44.1069C329.498 43.0978 329.25 41.9056 329.25 40.5303V40.5181C329.25 39.159 329.502 37.9709 330.006 36.9536C330.511 35.9364 331.219 35.147 332.13 34.5854C333.042 34.0239 334.116 33.7432 335.353 33.7432C336.59 33.7432 337.656 34.0158 338.551 34.561C339.455 35.0981 340.15 35.859 340.639 36.8438C341.127 37.8203 341.371 38.9596 341.371 40.2617V41.2505H330.751V39.2241H339.906L338.454 41.1162V39.9443C338.454 39.0898 338.323 38.3818 338.063 37.8203C337.803 37.2507 337.44 36.8275 336.977 36.5508C336.521 36.266 335.992 36.1235 335.39 36.1235C334.787 36.1235 334.25 36.27 333.778 36.563C333.306 36.856 332.936 37.2873 332.667 37.8569C332.399 38.4185 332.265 39.1143 332.265 39.9443V41.1284C332.265 41.9178 332.399 42.5933 332.667 43.1548C332.936 43.7082 333.314 44.1354 333.803 44.4365C334.299 44.7376 334.885 44.8882 335.561 44.8882C336.073 44.8882 336.521 44.8109 336.903 44.6562C337.286 44.4935 337.599 44.29 337.843 44.0459C338.096 43.7936 338.271 43.5291 338.368 43.2524L338.393 43.1548H341.237L341.212 43.2891C341.107 43.7773 340.907 44.2575 340.614 44.7295C340.329 45.2015 339.947 45.6287 339.467 46.0112C338.995 46.3937 338.425 46.6989 337.758 46.9268C337.099 47.1465 336.346 47.2563 335.5 47.2563ZM348.341 47.2319C346.974 47.2319 345.961 46.939 345.302 46.353C344.643 45.7671 344.313 44.8149 344.313 43.4966V36.3433H342.445V33.9995H344.313V30.728H347.401V33.9995H349.855V36.3433H347.401V43.1792C347.401 43.814 347.54 44.2575 347.816 44.5098C348.101 44.7539 348.524 44.876 349.086 44.876C349.241 44.876 349.379 44.8719 349.501 44.8638C349.623 44.8475 349.741 44.8353 349.855 44.8271V47.1099C349.676 47.1424 349.456 47.1709 349.196 47.1953C348.935 47.2197 348.651 47.2319 348.341 47.2319ZM355.727 47.2197C354.872 47.2197 354.115 47.057 353.456 46.7314C352.805 46.3978 352.296 45.938 351.93 45.3521C351.564 44.758 351.381 44.0744 351.381 43.3013V43.2769C351.381 42.5037 351.572 41.8405 351.955 41.2871C352.345 40.7337 352.907 40.2983 353.639 39.981C354.38 39.6554 355.271 39.4601 356.312 39.395L361.269 39.0898V41.104L356.752 41.3848C355.987 41.4336 355.405 41.6126 355.006 41.9219C354.608 42.2311 354.408 42.6421 354.408 43.1548V43.1792C354.408 43.7163 354.612 44.1395 355.019 44.4487C355.425 44.7498 355.963 44.9004 356.63 44.9004C357.216 44.9004 357.741 44.7824 358.205 44.5464C358.668 44.3104 359.035 43.9889 359.303 43.582C359.572 43.167 359.706 42.7031 359.706 42.1904V38.2598C359.706 37.6087 359.499 37.096 359.083 36.7217C358.677 36.3473 358.083 36.1602 357.301 36.1602C356.585 36.1602 356.011 36.3107 355.58 36.6118C355.149 36.9048 354.88 37.2873 354.774 37.7593L354.75 37.8569H351.918L351.93 37.7227C352.003 36.9577 352.268 36.2782 352.724 35.6841C353.179 35.0819 353.802 34.6099 354.591 34.2681C355.389 33.9181 356.329 33.7432 357.411 33.7432C358.502 33.7432 359.446 33.9222 360.243 34.2803C361.041 34.6302 361.655 35.1307 362.086 35.7817C362.526 36.4328 362.746 37.1937 362.746 38.0645V47H359.706V45.0347H359.621C359.376 45.4823 359.059 45.8729 358.668 46.2065C358.278 46.5321 357.834 46.7843 357.338 46.9634C356.841 47.1343 356.304 47.2197 355.727 47.2197ZM365.443 47V29.2632H368.483V47H365.443ZM371.327 47V29.2632H374.367V36.1602H374.452C374.786 35.3952 375.29 34.8011 375.966 34.3779C376.641 33.9548 377.463 33.7432 378.432 33.7432C379.368 33.7432 380.177 33.9548 380.861 34.3779C381.544 34.793 382.069 35.383 382.436 36.1479C382.81 36.9129 382.997 37.8203 382.997 38.8701V47H379.958V39.4805C379.958 38.4795 379.722 37.7023 379.25 37.1489C378.778 36.5874 378.102 36.3066 377.223 36.3066C376.645 36.3066 376.141 36.4409 375.709 36.7095C375.286 36.978 374.957 37.3524 374.721 37.8325C374.485 38.3045 374.367 38.8579 374.367 39.4927V47H371.327ZM389.394 47.2197C388.539 47.2197 387.782 47.057 387.123 46.7314C386.472 46.3978 385.963 45.938 385.597 45.3521C385.231 44.758 385.048 44.0744 385.048 43.3013V43.2769C385.048 42.5037 385.239 41.8405 385.622 41.2871C386.012 40.7337 386.574 40.2983 387.306 39.981C388.047 39.6554 388.938 39.4601 389.979 39.395L394.936 39.0898V41.104L390.419 41.3848C389.654 41.4336 389.072 41.6126 388.673 41.9219C388.275 42.2311 388.075 42.6421 388.075 43.1548V43.1792C388.075 43.7163 388.279 44.1395 388.686 44.4487C389.092 44.7498 389.63 44.9004 390.297 44.9004C390.883 44.9004 391.408 44.7824 391.872 44.5464C392.335 44.3104 392.702 43.9889 392.97 43.582C393.239 43.167 393.373 42.7031 393.373 42.1904V38.2598C393.373 37.6087 393.166 37.096 392.75 36.7217C392.344 36.3473 391.75 36.1602 390.968 36.1602C390.252 36.1602 389.678 36.3107 389.247 36.6118C388.816 36.9048 388.547 37.2873 388.441 37.7593L388.417 37.8569H385.585L385.597 37.7227C385.67 36.9577 385.935 36.2782 386.391 35.6841C386.846 35.0819 387.469 34.6099 388.258 34.2681C389.056 33.9181 389.996 33.7432 391.078 33.7432C392.169 33.7432 393.113 33.9222 393.91 34.2803C394.708 34.6302 395.322 35.1307 395.753 35.7817C396.193 36.4328 396.413 37.1937 396.413 38.0645V47H393.373V45.0347H393.288C393.043 45.4823 392.726 45.8729 392.335 46.2065C391.945 46.5321 391.501 46.7843 391.005 46.9634C390.508 47.1343 389.971 47.2197 389.394 47.2197ZM399.013 47V33.9995H402.052V36.0747H402.138C402.414 35.3667 402.87 34.8011 403.505 34.3779C404.14 33.9548 404.884 33.7432 405.739 33.7432C406.341 33.7432 406.882 33.8449 407.362 34.0483C407.842 34.2518 408.253 34.5448 408.595 34.9272C408.937 35.3097 409.185 35.7736 409.34 36.3188H409.425C409.637 35.7899 409.938 35.3341 410.329 34.9517C410.727 34.5692 411.191 34.2721 411.72 34.0605C412.257 33.849 412.839 33.7432 413.466 33.7432C414.32 33.7432 415.065 33.9222 415.7 34.2803C416.334 34.6383 416.827 35.1429 417.177 35.7939C417.527 36.4368 417.702 37.1978 417.702 38.0767V47H414.662V38.8213C414.662 38.2842 414.573 37.8285 414.394 37.4541C414.215 37.0798 413.95 36.7949 413.6 36.5996C413.258 36.4043 412.835 36.3066 412.331 36.3066C411.834 36.3066 411.399 36.4206 411.024 36.6484C410.65 36.8682 410.357 37.1774 410.146 37.5762C409.942 37.9749 409.84 38.4347 409.84 38.9556V47H406.874V38.6626C406.874 38.1743 406.78 37.7552 406.593 37.4053C406.406 37.0472 406.142 36.7746 405.8 36.5874C405.458 36.4002 405.047 36.3066 404.567 36.3066C404.079 36.3066 403.643 36.4246 403.261 36.6606C402.886 36.8966 402.589 37.2222 402.37 37.6372C402.158 38.0441 402.052 38.5161 402.052 39.0532V47H399.013ZM425.978 47.2563C424.684 47.2563 423.569 46.9837 422.633 46.4385C421.697 45.8932 420.977 45.116 420.473 44.1069C419.976 43.0978 419.728 41.9056 419.728 40.5303V40.5181C419.728 39.159 419.98 37.9709 420.485 36.9536C420.989 35.9364 421.697 35.147 422.609 34.5854C423.52 34.0239 424.595 33.7432 425.832 33.7432C427.069 33.7432 428.135 34.0158 429.03 34.561C429.933 35.0981 430.629 35.859 431.117 36.8438C431.605 37.8203 431.85 38.9596 431.85 40.2617V41.2505H421.229V39.2241H430.385L428.932 41.1162V39.9443C428.932 39.0898 428.802 38.3818 428.542 37.8203C428.281 37.2507 427.919 36.8275 427.455 36.5508C426.999 36.266 426.47 36.1235 425.868 36.1235C425.266 36.1235 424.729 36.27 424.257 36.563C423.785 36.856 423.415 37.2873 423.146 37.8569C422.877 38.4185 422.743 39.1143 422.743 39.9443V41.1284C422.743 41.9178 422.877 42.5933 423.146 43.1548C423.415 43.7082 423.793 44.1354 424.281 44.4365C424.778 44.7376 425.364 44.8882 426.039 44.8882C426.552 44.8882 426.999 44.8109 427.382 44.6562C427.764 44.4935 428.078 44.29 428.322 44.0459C428.574 43.7936 428.749 43.5291 428.847 43.2524L428.871 43.1548H431.715L431.691 43.2891C431.585 43.7773 431.386 44.2575 431.093 44.7295C430.808 45.2015 430.425 45.6287 429.945 46.0112C429.473 46.3937 428.904 46.6989 428.236 46.9268C427.577 47.1465 426.824 47.2563 425.978 47.2563ZM433.949 47V33.9995H436.989V36.0381H437.074C437.408 35.3382 437.904 34.7808 438.563 34.3657C439.223 33.9507 440.041 33.7432 441.017 33.7432C442.449 33.7432 443.556 34.1745 444.337 35.0371C445.119 35.8916 445.509 37.0757 445.509 38.5894V47H442.47V39.2119C442.47 38.276 442.254 37.5599 441.823 37.0635C441.391 36.5589 440.74 36.3066 439.87 36.3066C439.284 36.3066 438.775 36.4368 438.344 36.6973C437.912 36.9577 437.579 37.3239 437.343 37.7959C437.107 38.2679 436.989 38.8213 436.989 39.4561V47H433.949ZM452.956 47.2319C451.588 47.2319 450.575 46.939 449.916 46.353C449.257 45.7671 448.927 44.8149 448.927 43.4966V36.3433H447.06V33.9995H448.927V30.728H452.016V33.9995H454.469V36.3433H452.016V43.1792C452.016 43.814 452.154 44.2575 452.431 44.5098C452.715 44.7539 453.139 44.876 453.7 44.876C453.855 44.876 453.993 44.8719 454.115 44.8638C454.237 44.8475 454.355 44.8353 454.469 44.8271V47.1099C454.29 47.1424 454.07 47.1709 453.81 47.1953C453.55 47.2197 453.265 47.2319 452.956 47.2319ZM462.172 47.2563C460.894 47.2563 459.783 46.9878 458.839 46.4507C457.903 45.9054 457.175 45.1283 456.654 44.1191C456.142 43.11 455.885 41.9056 455.885 40.5059V40.4814C455.885 39.0898 456.146 37.8895 456.667 36.8804C457.187 35.8713 457.92 35.0981 458.864 34.561C459.808 34.0158 460.91 33.7432 462.172 33.7432C463.433 33.7432 464.536 34.0158 465.48 34.561C466.424 35.0981 467.156 35.8713 467.677 36.8804C468.198 37.8813 468.458 39.0817 468.458 40.4814V40.5059C468.458 41.9056 468.198 43.11 467.677 44.1191C467.165 45.1283 466.436 45.9054 465.492 46.4507C464.556 46.9878 463.45 47.2563 462.172 47.2563ZM462.184 44.8027C462.835 44.8027 463.397 44.6359 463.869 44.3022C464.341 43.9604 464.707 43.4722 464.967 42.8374C465.228 42.1945 465.358 41.4173 465.358 40.5059V40.4814C465.358 39.5781 465.228 38.8091 464.967 38.1743C464.707 37.5314 464.337 37.0431 463.856 36.7095C463.376 36.3677 462.815 36.1968 462.172 36.1968C461.529 36.1968 460.967 36.3677 460.487 36.7095C460.007 37.0513 459.637 37.5396 459.376 38.1743C459.116 38.8091 458.986 39.5781 458.986 40.4814V40.5059C458.986 41.4173 459.116 42.1945 459.376 42.8374C459.637 43.4722 460.007 43.9604 460.487 44.3022C460.967 44.6359 461.533 44.8027 462.184 44.8027Z" fill="#1F1F1F"/>
<rect x="40" y="148" width="1202" height="552" rx="20" fill="white"/>
<path d="M52.8604 49V27.8623H60.5801C62.6895 27.8623 64.4912 28.2725 65.9854 29.0928C67.4795 29.9131 68.627 31.1045 69.4277 32.667C70.2285 34.2295 70.6289 36.124 70.6289 38.3506V38.3799C70.6289 40.6064 70.2285 42.5156 69.4277 44.1074C68.6367 45.6895 67.4893 46.9004 65.9854 47.7402C64.4912 48.5801 62.6895 49 60.5801 49H52.8604ZM56.6396 45.8213H60.1846C61.6104 45.8213 62.8115 45.5381 63.7881 44.9717C64.7646 44.3955 65.5068 43.5605 66.0146 42.4668C66.5225 41.3633 66.7764 40.0059 66.7764 38.3945V38.3652C66.7764 36.793 66.5176 35.46 66 34.3662C65.4922 33.2725 64.7451 32.4473 63.7588 31.8906C62.7822 31.3242 61.5908 31.041 60.1846 31.041H56.6396V45.8213ZM77.792 49.2637C76.7666 49.2637 75.8584 49.0684 75.0674 48.6777C74.2861 48.2773 73.6758 47.7256 73.2363 47.0225C72.8066 46.3096 72.5918 45.4941 72.5918 44.5762V44.5469C72.5918 43.6191 72.8213 42.8281 73.2803 42.1738C73.749 41.5098 74.4229 40.9873 75.3018 40.6064C76.1807 40.2158 77.2451 39.9814 78.4951 39.9033L84.4277 39.5371V41.9541L79.0078 42.291C78.1094 42.3496 77.4209 42.5645 76.9424 42.9355C76.4639 43.3066 76.2246 43.7998 76.2246 44.415V44.4297C76.2246 45.0645 76.4639 45.5674 76.9424 45.9385C77.4307 46.2998 78.0752 46.4805 78.876 46.4805C79.5791 46.4805 80.2041 46.3389 80.751 46.0557C81.3076 45.7725 81.7471 45.3867 82.0693 44.8984C82.3916 44.4102 82.5527 43.8584 82.5527 43.2432V38.585C82.5527 37.8037 82.3037 37.1885 81.8057 36.7393C81.3174 36.2803 80.6094 36.0508 79.6816 36.0508C78.8223 36.0508 78.1338 36.2363 77.6162 36.6074C77.0986 36.9688 76.7764 37.4375 76.6494 38.0137L76.6201 38.1455H73.251L73.2656 37.9697C73.3438 37.0518 73.6514 36.2314 74.1885 35.5088C74.7256 34.7764 75.4678 34.2002 76.415 33.7803C77.3721 33.3604 78.5049 33.1504 79.8135 33.1504C81.1123 33.1504 82.2354 33.3652 83.1826 33.7949C84.1396 34.2246 84.877 34.8252 85.3945 35.5967C85.9219 36.3682 86.1855 37.2764 86.1855 38.3213V49H82.5527V46.6123H82.4648C82.1719 47.1494 81.791 47.6182 81.3223 48.0186C80.8535 48.4189 80.3164 48.7266 79.7109 48.9414C79.1152 49.1562 78.4756 49.2637 77.792 49.2637ZM95.209 49.3076C93.8516 49.3076 92.6895 49.1074 91.7227 48.707C90.7656 48.3066 90.0137 47.7451 89.4668 47.0225C88.9297 46.29 88.6025 45.4453 88.4854 44.4883L88.4707 44.3564H92.0596L92.0889 44.4883C92.2256 45.1621 92.5479 45.6846 93.0557 46.0557C93.5732 46.4268 94.2959 46.6123 95.2236 46.6123C95.8193 46.6123 96.3271 46.5391 96.7471 46.3926C97.167 46.2461 97.4893 46.0312 97.7139 45.748C97.9482 45.4648 98.0654 45.1328 98.0654 44.752V44.7373C98.0654 44.2783 97.9092 43.9072 97.5967 43.624C97.2842 43.3311 96.7227 43.0918 95.9121 42.9062L93.334 42.335C92.3477 42.1104 91.5225 41.8027 90.8584 41.4121C90.1943 41.0215 89.6963 40.5381 89.3643 39.9619C89.0322 39.376 88.8662 38.6973 88.8662 37.9258V37.9111C88.8662 36.9639 89.125 36.1338 89.6426 35.4209C90.1602 34.708 90.8877 34.1514 91.8252 33.751C92.7627 33.3506 93.8516 33.1504 95.0918 33.1504C96.3809 33.1504 97.4844 33.3652 98.4023 33.7949C99.3203 34.2246 100.028 34.8008 100.526 35.5234C101.034 36.2461 101.308 37.0566 101.347 37.9551L101.361 38.1162H97.9629L97.9482 37.999C97.8701 37.374 97.5869 36.8613 97.0986 36.4609C96.6104 36.0508 95.9414 35.8457 95.0918 35.8457C94.5547 35.8457 94.0859 35.9238 93.6855 36.0801C93.2949 36.2363 92.9922 36.4561 92.7773 36.7393C92.5723 37.0225 92.4697 37.3545 92.4697 37.7354V37.75C92.4697 38.043 92.543 38.3066 92.6895 38.541C92.8359 38.7754 93.0703 38.9805 93.3926 39.1562C93.7148 39.3223 94.1445 39.4688 94.6816 39.5957L97.2598 40.167C98.8711 40.5283 100.019 41.0459 100.702 41.7197C101.386 42.3838 101.728 43.2773 101.728 44.4004V44.415C101.728 45.3916 101.449 46.251 100.893 46.9932C100.336 47.7256 99.5645 48.2969 98.5781 48.707C97.6016 49.1074 96.4785 49.3076 95.209 49.3076ZM104.159 49V27.8623H107.807V36.0801H107.88C108.29 35.1426 108.9 34.4199 109.711 33.9121C110.531 33.4043 111.518 33.1504 112.67 33.1504C113.793 33.1504 114.765 33.4092 115.585 33.9268C116.405 34.4346 117.04 35.1523 117.489 36.0801C117.938 36.998 118.163 38.082 118.163 39.332V49H114.516V40.0498C114.516 38.8584 114.228 37.9258 113.651 37.252C113.075 36.5684 112.265 36.2266 111.22 36.2266C110.536 36.2266 109.936 36.3926 109.418 36.7246C108.91 37.0469 108.515 37.4961 108.231 38.0723C107.948 38.6387 107.807 39.2979 107.807 40.0498V49H104.159ZM129.765 49.3076C129.022 49.3076 128.339 49.1904 127.714 48.9561C127.099 48.7119 126.557 48.375 126.088 47.9453C125.619 47.5059 125.233 46.9785 124.931 46.3633H124.857V49H121.21V27.8623H124.857V36.1387H124.931C125.233 35.5137 125.624 34.9814 126.103 34.542C126.581 34.0928 127.133 33.751 127.758 33.5166C128.383 33.2725 129.062 33.1504 129.794 33.1504C131.093 33.1504 132.221 33.4775 133.178 34.1318C134.135 34.7764 134.877 35.7041 135.404 36.915C135.932 38.1162 136.195 39.5518 136.195 41.2217V41.2363C136.195 42.8965 135.932 44.332 135.404 45.543C134.887 46.7539 134.145 47.6865 133.178 48.3408C132.221 48.9854 131.083 49.3076 129.765 49.3076ZM128.681 46.2461C129.462 46.2461 130.136 46.0459 130.702 45.6455C131.278 45.2354 131.718 44.6543 132.021 43.9023C132.323 43.1504 132.475 42.2617 132.475 41.2363V41.2217C132.475 40.1865 132.318 39.2979 132.006 38.5557C131.703 37.8135 131.269 37.2422 130.702 36.8418C130.136 36.4316 129.462 36.2266 128.681 36.2266C127.929 36.2266 127.265 36.4316 126.688 36.8418C126.122 37.252 125.673 37.833 125.341 38.585C125.009 39.3271 124.843 40.2061 124.843 41.2217V41.2363C124.843 42.252 125.004 43.1357 125.326 43.8877C125.658 44.6396 126.112 45.2207 126.688 45.6309C127.265 46.041 127.929 46.2461 128.681 46.2461ZM145.409 49.3076C143.886 49.3076 142.562 48.9854 141.439 48.3408C140.316 47.6865 139.442 46.7588 138.817 45.5576C138.202 44.3467 137.895 42.9062 137.895 41.2363V41.207C137.895 39.5469 138.207 38.1162 138.832 36.915C139.457 35.7041 140.331 34.7764 141.454 34.1318C142.577 33.4775 143.891 33.1504 145.395 33.1504C146.908 33.1504 148.227 33.4775 149.35 34.1318C150.482 34.7764 151.361 35.6992 151.986 36.9004C152.611 38.1016 152.924 39.5371 152.924 41.207V41.2363C152.924 42.916 152.611 44.3613 151.986 45.5723C151.371 46.7734 150.502 47.6963 149.379 48.3408C148.256 48.9854 146.933 49.3076 145.409 49.3076ZM145.424 46.3633C146.195 46.3633 146.864 46.1631 147.431 45.7627C147.997 45.3623 148.432 44.7812 148.734 44.0195C149.047 43.248 149.203 42.3203 149.203 41.2363V41.207C149.203 40.1328 149.047 39.2148 148.734 38.4531C148.422 37.6914 147.978 37.1104 147.401 36.71C146.835 36.3096 146.166 36.1094 145.395 36.1094C144.643 36.1094 143.979 36.3096 143.402 36.71C142.836 37.1104 142.392 37.6914 142.069 38.4531C141.757 39.2148 141.601 40.1328 141.601 41.207V41.2363C141.601 42.3203 141.757 43.248 142.069 44.0195C142.392 44.7812 142.836 45.3623 143.402 45.7627C143.979 46.1631 144.652 46.3633 145.424 46.3633ZM159.853 49.2637C158.827 49.2637 157.919 49.0684 157.128 48.6777C156.347 48.2773 155.736 47.7256 155.297 47.0225C154.867 46.3096 154.652 45.4941 154.652 44.5762V44.5469C154.652 43.6191 154.882 42.8281 155.341 42.1738C155.81 41.5098 156.483 40.9873 157.362 40.6064C158.241 40.2158 159.306 39.9814 160.556 39.9033L166.488 39.5371V41.9541L161.068 42.291C160.17 42.3496 159.481 42.5645 159.003 42.9355C158.524 43.3066 158.285 43.7998 158.285 44.415V44.4297C158.285 45.0645 158.524 45.5674 159.003 45.9385C159.491 46.2998 160.136 46.4805 160.937 46.4805C161.64 46.4805 162.265 46.3389 162.812 46.0557C163.368 45.7725 163.808 45.3867 164.13 44.8984C164.452 44.4102 164.613 43.8584 164.613 43.2432V38.585C164.613 37.8037 164.364 37.1885 163.866 36.7393C163.378 36.2803 162.67 36.0508 161.742 36.0508C160.883 36.0508 160.194 36.2363 159.677 36.6074C159.159 36.9688 158.837 37.4375 158.71 38.0137L158.681 38.1455H155.312L155.326 37.9697C155.404 37.0518 155.712 36.2314 156.249 35.5088C156.786 34.7764 157.528 34.2002 158.476 33.7803C159.433 33.3604 160.565 33.1504 161.874 33.1504C163.173 33.1504 164.296 33.3652 165.243 33.7949C166.2 34.2246 166.938 34.8252 167.455 35.5967C167.982 36.3682 168.246 37.2764 168.246 38.3213V49H164.613V46.6123H164.525C164.232 47.1494 163.852 47.6182 163.383 48.0186C162.914 48.4189 162.377 48.7266 161.771 48.9414C161.176 49.1562 160.536 49.2637 159.853 49.2637ZM171.205 49V33.4727H174.838V36.1533H174.926C175.16 35.2158 175.585 34.4834 176.2 33.9561C176.825 33.4189 177.587 33.1504 178.485 33.1504C178.71 33.1504 178.925 33.165 179.13 33.1943C179.335 33.2236 179.506 33.2578 179.643 33.2969V36.5928C179.496 36.5342 179.286 36.4854 179.013 36.4463C178.749 36.4072 178.461 36.3877 178.148 36.3877C177.465 36.3877 176.874 36.5293 176.376 36.8125C175.878 37.0859 175.497 37.4912 175.233 38.0283C174.97 38.5654 174.838 39.2197 174.838 39.9912V49H171.205ZM186.703 49.3076C185.395 49.3076 184.257 48.9854 183.29 48.3408C182.333 47.6865 181.591 46.7539 181.063 45.543C180.546 44.332 180.287 42.8965 180.287 41.2363V41.2217C180.287 39.5518 180.551 38.1162 181.078 36.915C181.605 35.7041 182.348 34.7764 183.305 34.1318C184.262 33.4775 185.39 33.1504 186.688 33.1504C187.431 33.1504 188.109 33.2725 188.725 33.5166C189.35 33.751 189.901 34.0928 190.38 34.542C190.858 34.9814 191.244 35.5137 191.537 36.1387H191.625V27.8623H195.258V49H191.625V46.3633H191.537C191.254 46.9785 190.873 47.5059 190.395 47.9453C189.926 48.375 189.379 48.7119 188.754 48.9561C188.139 49.1904 187.455 49.3076 186.703 49.3076ZM187.802 46.2461C188.554 46.2461 189.218 46.041 189.794 45.6309C190.37 45.2207 190.819 44.6396 191.142 43.8877C191.464 43.1357 191.625 42.252 191.625 41.2363V41.2217C191.625 40.2061 191.459 39.3271 191.127 38.585C190.805 37.833 190.355 37.252 189.779 36.8418C189.213 36.4316 188.554 36.2266 187.802 36.2266C187.021 36.2266 186.342 36.4316 185.766 36.8418C185.199 37.2422 184.76 37.8135 184.447 38.5557C184.145 39.2979 183.993 40.1865 183.993 41.2217V41.2363C183.993 42.2617 184.145 43.1504 184.447 43.9023C184.76 44.6543 185.199 45.2354 185.766 45.6455C186.342 46.0459 187.021 46.2461 187.802 46.2461Z" fill="#006341"/>
<line x1="253.6" y1="75.6" x2="253.6" y2="0.400002" stroke="#B0B0B1" stroke-width="0.8" stroke-linecap="square"/>
<line x1="1279.6" y1="76.4" x2="0.399979" y2="76.4" stroke="#B0B0B1" stroke-width="0.8" stroke-linecap="square"/>
</g>
<defs>
<clipPath id="clip0_4008_14">
<rect width="1280" height="720" fill="white"/>
</clipPath>
</defs>
</svg>
