<svg width="1280" height="720" viewBox="0 0 1280 720" fill="none" xmlns="http://www.w3.org/2000/svg">
<g clip-path="url(#clip0_4011_7)">
<rect width="1280" height="720" fill="#F0F7F5"/>
<rect width="1280" height="76" fill="white"/>
<rect x="40" y="148" width="1202" height="347" rx="20" fill="white"/>
<rect x="40" y="513" width="1202" height="187" rx="20" fill="white"/>
<path d="M61.5469 550V537.317H66.6621C67.5703 537.317 68.3496 537.479 69 537.801C69.6504 538.123 70.1484 538.577 70.4941 539.163C70.8457 539.749 71.0215 540.446 71.0215 541.255V541.272C71.0215 542.11 70.8105 542.854 70.3887 543.505C69.9668 544.149 69.3809 544.609 68.6309 544.885L71.3994 550H68.8154L66.3281 545.228C66.3105 545.228 66.29 545.228 66.2666 545.228C66.249 545.228 66.2314 545.228 66.2139 545.228H63.8057V550H61.5469ZM63.8057 543.479H66.4336C67.1484 543.479 67.7051 543.291 68.1035 542.916C68.502 542.535 68.7012 542.005 68.7012 541.325V541.308C68.7012 540.64 68.4932 540.112 68.0771 539.726C67.667 539.339 67.1016 539.146 66.3809 539.146H63.8057V543.479ZM77.3232 550.193C76.374 550.193 75.5566 549.991 74.8711 549.587C74.1914 549.183 73.667 548.611 73.2979 547.873C72.9287 547.129 72.7441 546.247 72.7441 545.228V545.219C72.7441 544.211 72.9258 543.335 73.2891 542.591C73.6582 541.841 74.1797 541.258 74.8535 540.842C75.5273 540.426 76.3184 540.218 77.2266 540.218C78.1348 540.218 78.917 540.42 79.5732 540.824C80.2354 541.223 80.7451 541.782 81.1025 542.503C81.46 543.224 81.6387 544.067 81.6387 545.034V545.755H73.8428V544.287H80.5664L79.5293 545.658V544.788C79.5293 544.149 79.4326 543.619 79.2393 543.197C79.0459 542.775 78.7764 542.459 78.4307 542.248C78.0908 542.037 77.6982 541.932 77.2529 541.932C76.8018 541.932 76.4004 542.043 76.0488 542.266C75.7031 542.482 75.4277 542.805 75.2227 543.232C75.0234 543.654 74.9238 544.173 74.9238 544.788V545.667C74.9238 546.253 75.0234 546.757 75.2227 547.179C75.4219 547.601 75.7031 547.923 76.0664 548.146C76.4355 548.368 76.8721 548.479 77.376 548.479C77.7686 548.479 78.1055 548.424 78.3867 548.312C78.668 548.195 78.8965 548.058 79.0723 547.899C79.2539 547.735 79.377 547.577 79.4414 547.425L79.4678 547.363H81.542L81.5244 547.451C81.4482 547.762 81.3076 548.078 81.1025 548.4C80.9033 548.717 80.6309 549.013 80.2852 549.288C79.9453 549.558 79.5293 549.777 79.0371 549.947C78.5449 550.111 77.9736 550.193 77.3232 550.193ZM87.4219 550.193C86.6133 550.193 85.9131 550.076 85.3213 549.842C84.7354 549.607 84.2725 549.285 83.9326 548.875C83.5928 548.459 83.3936 547.981 83.335 547.442L83.3262 547.416H85.4971L85.5059 547.434C85.6172 547.773 85.834 548.049 86.1562 548.26C86.4844 548.471 86.918 548.576 87.457 548.576C87.8262 548.576 88.1455 548.526 88.415 548.427C88.6904 548.321 88.9072 548.178 89.0654 547.996C89.2236 547.814 89.3027 547.604 89.3027 547.363V547.354C89.3027 547.073 89.1885 546.839 88.96 546.651C88.7314 546.458 88.3564 546.3 87.835 546.177L86.2705 545.834C85.667 545.699 85.166 545.512 84.7676 545.271C84.3691 545.031 84.0703 544.735 83.8711 544.384C83.6777 544.032 83.5811 543.622 83.5811 543.153V543.145C83.5811 542.564 83.7422 542.055 84.0645 541.615C84.3926 541.176 84.8467 540.833 85.4268 540.587C86.0068 540.341 86.6719 540.218 87.4219 540.218C88.2012 540.218 88.8721 540.338 89.4346 540.578C89.9971 540.812 90.4365 541.135 90.7529 541.545C91.0693 541.955 91.251 542.421 91.2979 542.942V542.969H89.2324V542.942C89.1562 542.632 88.9629 542.371 88.6523 542.16C88.3418 541.943 87.9287 541.835 87.4131 541.835C87.0908 541.835 86.8037 541.885 86.5518 541.984C86.2998 542.078 86.1006 542.216 85.9541 542.397C85.8135 542.573 85.7432 542.781 85.7432 543.021V543.03C85.7432 543.218 85.79 543.382 85.8838 543.522C85.9834 543.663 86.1387 543.786 86.3496 543.892C86.5605 543.997 86.8389 544.091 87.1846 544.173L88.7314 544.516C89.6748 544.727 90.3721 545.04 90.8232 545.456C91.2744 545.872 91.5 546.432 91.5 547.135V547.144C91.5 547.753 91.3242 548.289 90.9727 548.752C90.6211 549.209 90.1377 549.563 89.5225 549.815C88.9131 550.067 88.2129 550.193 87.4219 550.193ZM96.8613 550.193C96.1465 550.193 95.5459 550.056 95.0596 549.78C94.5732 549.499 94.207 549.092 93.9609 548.559C93.7148 548.02 93.5918 547.372 93.5918 546.616V540.411H95.7803V546.115C95.7803 546.854 95.9268 547.41 96.2197 547.785C96.5127 548.16 96.9902 548.348 97.6523 548.348C98.0039 548.348 98.3145 548.295 98.584 548.189C98.8535 548.078 99.0791 547.92 99.2607 547.715C99.4482 547.51 99.5859 547.264 99.6738 546.977C99.7676 546.684 99.8145 546.358 99.8145 546.001V540.411H102.003V550H99.8145V548.541H99.6738C99.5273 548.881 99.3223 549.177 99.0586 549.429C98.7949 549.675 98.4785 549.865 98.1094 550C97.7402 550.129 97.3242 550.193 96.8613 550.193ZM104.728 550V536.702H106.916V550H104.728ZM113.402 550.053C112.307 550.053 111.516 549.851 111.029 549.446C110.543 549.042 110.3 548.377 110.3 547.451V542.099H108.814V540.411H110.3V538.047H112.523V540.411H114.536V542.099H112.523V546.95C112.523 547.425 112.623 547.771 112.822 547.987C113.027 548.204 113.355 548.312 113.807 548.312C113.959 548.312 114.085 548.31 114.185 548.304C114.29 548.292 114.407 548.28 114.536 548.269V549.956C114.384 549.979 114.208 550 114.009 550.018C113.815 550.041 113.613 550.053 113.402 550.053ZM119.317 550.158C118.708 550.158 118.166 550.041 117.691 549.807C117.217 549.572 116.842 549.241 116.566 548.813C116.297 548.38 116.162 547.873 116.162 547.293V547.275C116.162 546.701 116.303 546.209 116.584 545.799C116.865 545.389 117.275 545.066 117.814 544.832C118.359 544.598 119.021 544.457 119.801 544.41L123.352 544.199V545.641L120.108 545.852C119.499 545.887 119.048 546.016 118.755 546.238C118.462 546.461 118.315 546.769 118.315 547.161V547.179C118.315 547.589 118.471 547.908 118.781 548.137C119.092 548.365 119.49 548.479 119.977 548.479C120.416 548.479 120.809 548.392 121.154 548.216C121.5 548.04 121.772 547.803 121.972 547.504C122.171 547.199 122.271 546.856 122.271 546.476V543.452C122.271 542.972 122.118 542.603 121.813 542.345C121.509 542.087 121.061 541.958 120.469 541.958C119.965 541.958 119.555 542.046 119.238 542.222C118.922 542.397 118.708 542.644 118.597 542.96L118.588 542.995H116.522L116.531 542.925C116.607 542.38 116.818 541.905 117.164 541.501C117.516 541.097 117.981 540.783 118.562 540.561C119.142 540.332 119.812 540.218 120.574 540.218C121.395 540.218 122.092 540.347 122.666 540.604C123.246 540.862 123.686 541.231 123.984 541.712C124.283 542.192 124.433 542.77 124.433 543.443V550H122.271V548.673H122.121C121.945 548.983 121.717 549.25 121.436 549.473C121.16 549.695 120.844 549.865 120.486 549.982C120.129 550.1 119.739 550.158 119.317 550.158ZM130.488 550.158C129.691 550.158 128.997 549.959 128.405 549.561C127.813 549.156 127.356 548.585 127.034 547.847C126.712 547.103 126.551 546.224 126.551 545.21V545.192C126.551 544.179 126.709 543.303 127.025 542.564C127.348 541.82 127.802 541.249 128.388 540.851C128.979 540.452 129.68 540.253 130.488 540.253C130.928 540.253 131.338 540.323 131.719 540.464C132.1 540.599 132.434 540.792 132.721 541.044C133.014 541.29 133.242 541.589 133.406 541.94H133.556V536.702H135.735V550H133.556V548.497H133.406C133.23 548.843 132.999 549.142 132.712 549.394C132.431 549.64 132.103 549.83 131.728 549.965C131.353 550.094 130.939 550.158 130.488 550.158ZM131.174 548.312C131.666 548.312 132.091 548.189 132.448 547.943C132.812 547.691 133.09 547.334 133.283 546.871C133.482 546.408 133.582 545.857 133.582 545.219V545.201C133.582 544.557 133.482 544.003 133.283 543.54C133.09 543.077 132.812 542.72 132.448 542.468C132.091 542.216 131.666 542.09 131.174 542.09C130.676 542.09 130.248 542.216 129.891 542.468C129.533 542.72 129.258 543.077 129.064 543.54C128.871 543.997 128.774 544.548 128.774 545.192V545.21C128.774 545.854 128.871 546.411 129.064 546.88C129.258 547.343 129.533 547.697 129.891 547.943C130.248 548.189 130.676 548.312 131.174 548.312ZM142.608 550.193C141.653 550.193 140.83 549.994 140.139 549.596C139.453 549.191 138.923 548.617 138.548 547.873C138.179 547.129 137.994 546.241 137.994 545.21V545.192C137.994 544.167 138.182 543.282 138.557 542.538C138.932 541.794 139.462 541.223 140.147 540.824C140.839 540.42 141.659 540.218 142.608 540.218C143.563 540.218 144.384 540.417 145.069 540.815C145.761 541.214 146.294 541.785 146.669 542.529C147.044 543.273 147.231 544.161 147.231 545.192V545.21C147.231 546.241 147.044 547.129 146.669 547.873C146.3 548.617 145.77 549.191 145.078 549.596C144.393 549.994 143.569 550.193 142.608 550.193ZM142.608 548.418C143.118 548.418 143.549 548.292 143.9 548.04C144.252 547.782 144.521 547.416 144.709 546.941C144.896 546.461 144.99 545.884 144.99 545.21V545.192C144.99 544.519 144.896 543.944 144.709 543.47C144.521 542.989 144.249 542.623 143.892 542.371C143.54 542.119 143.112 541.993 142.608 541.993C142.104 541.993 141.677 542.119 141.325 542.371C140.974 542.623 140.701 542.989 140.508 543.47C140.32 543.944 140.227 544.519 140.227 545.192V545.21C140.227 545.89 140.32 546.47 140.508 546.95C140.695 547.425 140.965 547.788 141.316 548.04C141.674 548.292 142.104 548.418 142.608 548.418ZM154.148 550V540.411H156.328V541.879H156.478C156.706 541.363 157.052 540.959 157.515 540.666C157.978 540.367 158.558 540.218 159.255 540.218C160.327 540.218 161.145 540.528 161.707 541.149C162.275 541.771 162.56 542.652 162.56 543.795V550H160.371V544.296C160.371 543.552 160.213 542.995 159.896 542.626C159.586 542.251 159.103 542.063 158.446 542.063C158.007 542.063 157.629 542.16 157.312 542.354C157.002 542.547 156.759 542.819 156.583 543.171C156.413 543.517 156.328 543.93 156.328 544.41V550H154.148ZM169.257 550.193C168.302 550.193 167.479 549.994 166.787 549.596C166.102 549.191 165.571 548.617 165.196 547.873C164.827 547.129 164.643 546.241 164.643 545.21V545.192C164.643 544.167 164.83 543.282 165.205 542.538C165.58 541.794 166.11 541.223 166.796 540.824C167.487 540.42 168.308 540.218 169.257 540.218C170.212 540.218 171.032 540.417 171.718 540.815C172.409 541.214 172.942 541.785 173.317 542.529C173.692 543.273 173.88 544.161 173.88 545.192V545.21C173.88 546.241 173.692 547.129 173.317 547.873C172.948 548.617 172.418 549.191 171.727 549.596C171.041 549.994 170.218 550.193 169.257 550.193ZM169.257 548.418C169.767 548.418 170.197 548.292 170.549 548.04C170.9 547.782 171.17 547.416 171.357 546.941C171.545 546.461 171.639 545.884 171.639 545.21V545.192C171.639 544.519 171.545 543.944 171.357 543.47C171.17 542.989 170.897 542.623 170.54 542.371C170.188 542.119 169.761 541.993 169.257 541.993C168.753 541.993 168.325 542.119 167.974 542.371C167.622 542.623 167.35 542.989 167.156 543.47C166.969 543.944 166.875 544.519 166.875 545.192V545.21C166.875 545.89 166.969 546.47 167.156 546.95C167.344 547.425 167.613 547.788 167.965 548.04C168.322 548.292 168.753 548.418 169.257 548.418ZM179.672 550.193C178.863 550.193 178.163 550.076 177.571 549.842C176.985 549.607 176.522 549.285 176.183 548.875C175.843 548.459 175.644 547.981 175.585 547.442L175.576 547.416H177.747L177.756 547.434C177.867 547.773 178.084 548.049 178.406 548.26C178.734 548.471 179.168 548.576 179.707 548.576C180.076 548.576 180.396 548.526 180.665 548.427C180.94 548.321 181.157 548.178 181.315 547.996C181.474 547.814 181.553 547.604 181.553 547.363V547.354C181.553 547.073 181.438 546.839 181.21 546.651C180.981 546.458 180.606 546.3 180.085 546.177L178.521 545.834C177.917 545.699 177.416 545.512 177.018 545.271C176.619 545.031 176.32 544.735 176.121 544.384C175.928 544.032 175.831 543.622 175.831 543.153V543.145C175.831 542.564 175.992 542.055 176.314 541.615C176.643 541.176 177.097 540.833 177.677 540.587C178.257 540.341 178.922 540.218 179.672 540.218C180.451 540.218 181.122 540.338 181.685 540.578C182.247 540.812 182.687 541.135 183.003 541.545C183.319 541.955 183.501 542.421 183.548 542.942V542.969H181.482V542.942C181.406 542.632 181.213 542.371 180.902 542.16C180.592 541.943 180.179 541.835 179.663 541.835C179.341 541.835 179.054 541.885 178.802 541.984C178.55 542.078 178.351 542.216 178.204 542.397C178.063 542.573 177.993 542.781 177.993 543.021V543.03C177.993 543.218 178.04 543.382 178.134 543.522C178.233 543.663 178.389 543.786 178.6 543.892C178.811 543.997 179.089 544.091 179.435 544.173L180.981 544.516C181.925 544.727 182.622 545.04 183.073 545.456C183.524 545.872 183.75 546.432 183.75 547.135V547.144C183.75 547.753 183.574 548.289 183.223 548.752C182.871 549.209 182.388 549.563 181.772 549.815C181.163 550.067 180.463 550.193 179.672 550.193ZM193.857 550.193C193.143 550.193 192.542 550.056 192.056 549.78C191.569 549.499 191.203 549.092 190.957 548.559C190.711 548.02 190.588 547.372 190.588 546.616V540.411H192.776V546.115C192.776 546.854 192.923 547.41 193.216 547.785C193.509 548.16 193.986 548.348 194.648 548.348C195 548.348 195.311 548.295 195.58 548.189C195.85 548.078 196.075 547.92 196.257 547.715C196.444 547.51 196.582 547.264 196.67 546.977C196.764 546.684 196.811 546.358 196.811 546.001V540.411H198.999V550H196.811V548.541H196.67C196.523 548.881 196.318 549.177 196.055 549.429C195.791 549.675 195.475 549.865 195.105 550C194.736 550.129 194.32 550.193 193.857 550.193ZM195.457 539.11H193.831L195.369 536.069H197.558L195.457 539.11ZM201.724 550V536.702H203.912V550H201.724ZM210.398 550.053C209.303 550.053 208.512 549.851 208.025 549.446C207.539 549.042 207.296 548.377 207.296 547.451V542.099H205.811V540.411H207.296V538.047H209.52V540.411H211.532V542.099H209.52V546.95C209.52 547.425 209.619 547.771 209.818 547.987C210.023 548.204 210.352 548.312 210.803 548.312C210.955 548.312 211.081 548.31 211.181 548.304C211.286 548.292 211.403 548.28 211.532 548.269V549.956C211.38 549.979 211.204 550 211.005 550.018C210.812 550.041 210.609 550.053 210.398 550.053ZM213.712 550V540.411H215.892V550H213.712ZM214.811 538.812C214.453 538.812 214.146 538.686 213.888 538.434C213.636 538.182 213.51 537.88 213.51 537.528C213.51 537.171 213.636 536.866 213.888 536.614C214.146 536.362 214.453 536.236 214.811 536.236C215.168 536.236 215.473 536.362 215.725 536.614C215.977 536.866 216.103 537.171 216.103 537.528C216.103 537.88 215.977 538.182 215.725 538.434C215.473 538.686 215.168 538.812 214.811 538.812ZM218.555 550V540.411H220.734V541.896H220.884C221.089 541.363 221.42 540.95 221.877 540.657C222.34 540.364 222.888 540.218 223.521 540.218C223.954 540.218 224.344 540.288 224.689 540.429C225.041 540.569 225.343 540.771 225.595 541.035C225.847 541.293 226.04 541.604 226.175 541.967H226.324C226.477 541.615 226.696 541.308 226.983 541.044C227.271 540.78 227.604 540.578 227.985 540.438C228.372 540.291 228.788 540.218 229.233 540.218C229.878 540.218 230.429 540.347 230.886 540.604C231.349 540.856 231.703 541.22 231.949 541.694C232.195 542.169 232.318 542.737 232.318 543.399V550H230.139V543.936C230.139 543.52 230.074 543.174 229.945 542.898C229.816 542.617 229.623 542.409 229.365 542.274C229.107 542.134 228.785 542.063 228.398 542.063C228.018 542.063 227.687 542.148 227.405 542.318C227.124 542.488 226.904 542.72 226.746 543.013C226.594 543.306 226.518 543.64 226.518 544.015V550H224.338V543.777C224.338 543.42 224.268 543.115 224.127 542.863C223.992 542.605 223.793 542.409 223.529 542.274C223.271 542.134 222.964 542.063 222.606 542.063C222.249 542.063 221.927 542.154 221.64 542.336C221.358 542.518 221.136 542.77 220.972 543.092C220.813 543.408 220.734 543.763 220.734 544.155V550H218.555ZM239.007 550.193C238.052 550.193 237.229 549.994 236.537 549.596C235.852 549.191 235.321 548.617 234.946 547.873C234.577 547.129 234.393 546.241 234.393 545.21V545.192C234.393 544.167 234.58 543.282 234.955 542.538C235.33 541.794 235.86 541.223 236.546 540.824C237.237 540.42 238.058 540.218 239.007 540.218C239.962 540.218 240.782 540.417 241.468 540.815C242.159 541.214 242.692 541.785 243.067 542.529C243.442 543.273 243.63 544.161 243.63 545.192V545.21C243.63 546.241 243.442 547.129 243.067 547.873C242.698 548.617 242.168 549.191 241.477 549.596C240.791 549.994 239.968 550.193 239.007 550.193ZM239.007 548.418C239.517 548.418 239.947 548.292 240.299 548.04C240.65 547.782 240.92 547.416 241.107 546.941C241.295 546.461 241.389 545.884 241.389 545.21V545.192C241.389 544.519 241.295 543.944 241.107 543.47C240.92 542.989 240.647 542.623 240.29 542.371C239.938 542.119 239.511 541.993 239.007 541.993C238.503 541.993 238.075 542.119 237.724 542.371C237.372 542.623 237.1 542.989 236.906 543.47C236.719 543.944 236.625 544.519 236.625 545.192V545.21C236.625 545.89 236.719 546.47 236.906 546.95C237.094 547.425 237.363 547.788 237.715 548.04C238.072 548.292 238.503 548.418 239.007 548.418ZM249.422 550.193C248.613 550.193 247.913 550.076 247.321 549.842C246.735 549.607 246.272 549.285 245.933 548.875C245.593 548.459 245.394 547.981 245.335 547.442L245.326 547.416H247.497L247.506 547.434C247.617 547.773 247.834 548.049 248.156 548.26C248.484 548.471 248.918 548.576 249.457 548.576C249.826 548.576 250.146 548.526 250.415 548.427C250.69 548.321 250.907 548.178 251.065 547.996C251.224 547.814 251.303 547.604 251.303 547.363V547.354C251.303 547.073 251.188 546.839 250.96 546.651C250.731 546.458 250.356 546.3 249.835 546.177L248.271 545.834C247.667 545.699 247.166 545.512 246.768 545.271C246.369 545.031 246.07 544.735 245.871 544.384C245.678 544.032 245.581 543.622 245.581 543.153V543.145C245.581 542.564 245.742 542.055 246.064 541.615C246.393 541.176 246.847 540.833 247.427 540.587C248.007 540.341 248.672 540.218 249.422 540.218C250.201 540.218 250.872 540.338 251.435 540.578C251.997 540.812 252.437 541.135 252.753 541.545C253.069 541.955 253.251 542.421 253.298 542.942V542.969H251.232V542.942C251.156 542.632 250.963 542.371 250.652 542.16C250.342 541.943 249.929 541.835 249.413 541.835C249.091 541.835 248.804 541.885 248.552 541.984C248.3 542.078 248.101 542.216 247.954 542.397C247.813 542.573 247.743 542.781 247.743 543.021V543.03C247.743 543.218 247.79 543.382 247.884 543.522C247.983 543.663 248.139 543.786 248.35 543.892C248.561 543.997 248.839 544.091 249.185 544.173L250.731 544.516C251.675 544.727 252.372 545.04 252.823 545.456C253.274 545.872 253.5 546.432 253.5 547.135V547.144C253.5 547.753 253.324 548.289 252.973 548.752C252.621 549.209 252.138 549.563 251.522 549.815C250.913 550.067 250.213 550.193 249.422 550.193ZM265.005 550.255C264.079 550.255 263.268 550.1 262.57 549.789C261.879 549.473 261.331 549.039 260.927 548.488C260.528 547.938 260.297 547.302 260.232 546.581L260.224 546.467H262.395L262.403 546.563C262.444 546.921 262.576 547.237 262.799 547.513C263.021 547.788 263.32 548.005 263.695 548.163C264.07 548.321 264.504 548.4 264.996 548.4C265.488 548.4 265.916 548.315 266.279 548.146C266.648 547.976 266.936 547.741 267.141 547.442C267.346 547.144 267.448 546.798 267.448 546.405V546.388C267.448 545.72 267.217 545.207 266.754 544.85C266.291 544.492 265.652 544.313 264.838 544.313H263.335V542.626H264.794C265.257 542.626 265.664 542.544 266.016 542.38C266.367 542.216 266.64 541.993 266.833 541.712C267.026 541.425 267.123 541.097 267.123 540.728V540.71C267.123 540.317 267.038 539.986 266.868 539.717C266.704 539.441 266.461 539.23 266.139 539.084C265.822 538.938 265.436 538.864 264.979 538.864C264.539 538.864 264.146 538.94 263.801 539.093C263.455 539.239 263.18 539.453 262.975 539.734C262.775 540.01 262.655 540.335 262.614 540.71L262.605 540.798H260.496L260.505 540.692C260.569 539.96 260.795 539.324 261.182 538.785C261.568 538.24 262.084 537.818 262.729 537.52C263.379 537.215 264.129 537.062 264.979 537.062C265.857 537.062 266.619 537.206 267.264 537.493C267.908 537.774 268.406 538.164 268.758 538.662C269.115 539.16 269.294 539.743 269.294 540.411V540.429C269.294 540.95 269.177 541.413 268.942 541.817C268.714 542.216 268.397 542.547 267.993 542.811C267.595 543.074 267.141 543.259 266.631 543.364V543.408C267.568 543.496 268.321 543.807 268.89 544.34C269.458 544.867 269.742 545.57 269.742 546.449V546.467C269.742 547.205 269.54 547.861 269.136 548.436C268.737 549.004 268.184 549.449 267.475 549.771C266.766 550.094 265.942 550.255 265.005 550.255ZM276.765 550.308C275.757 550.308 274.893 550.038 274.172 549.499C273.451 548.96 272.897 548.195 272.511 547.205C272.124 546.209 271.931 545.028 271.931 543.663V543.646C271.931 542.28 272.124 541.103 272.511 540.112C272.897 539.122 273.451 538.357 274.172 537.818C274.893 537.279 275.757 537.01 276.765 537.01C277.772 537.01 278.637 537.279 279.357 537.818C280.078 538.357 280.632 539.122 281.019 540.112C281.411 541.103 281.607 542.28 281.607 543.646V543.663C281.607 545.028 281.411 546.209 281.019 547.205C280.632 548.195 280.078 548.96 279.357 549.499C278.637 550.038 277.772 550.308 276.765 550.308ZM276.765 548.479C277.304 548.479 277.764 548.286 278.145 547.899C278.525 547.513 278.815 546.962 279.015 546.247C279.22 545.526 279.322 544.665 279.322 543.663V543.646C279.322 542.644 279.22 541.785 279.015 541.07C278.815 540.355 278.525 539.808 278.145 539.427C277.764 539.04 277.304 538.847 276.765 538.847C276.226 538.847 275.766 539.04 275.385 539.427C275.004 539.808 274.711 540.355 274.506 541.07C274.307 541.785 274.207 542.644 274.207 543.646V543.663C274.207 544.665 274.307 545.526 274.506 546.247C274.711 546.962 275.004 547.513 275.385 547.899C275.766 548.286 276.226 548.479 276.765 548.479ZM292.26 550.158C291.463 550.158 290.769 549.959 290.177 549.561C289.585 549.156 289.128 548.585 288.806 547.847C288.483 547.103 288.322 546.224 288.322 545.21V545.192C288.322 544.179 288.48 543.303 288.797 542.564C289.119 541.82 289.573 541.249 290.159 540.851C290.751 540.452 291.451 540.253 292.26 540.253C292.699 540.253 293.109 540.323 293.49 540.464C293.871 540.599 294.205 540.792 294.492 541.044C294.785 541.29 295.014 541.589 295.178 541.94H295.327V536.702H297.507V550H295.327V548.497H295.178C295.002 548.843 294.771 549.142 294.483 549.394C294.202 549.64 293.874 549.83 293.499 549.965C293.124 550.094 292.711 550.158 292.26 550.158ZM292.945 548.312C293.438 548.312 293.862 548.189 294.22 547.943C294.583 547.691 294.861 547.334 295.055 546.871C295.254 546.408 295.354 545.857 295.354 545.219V545.201C295.354 544.557 295.254 544.003 295.055 543.54C294.861 543.077 294.583 542.72 294.22 542.468C293.862 542.216 293.438 542.09 292.945 542.09C292.447 542.09 292.02 542.216 291.662 542.468C291.305 542.72 291.029 543.077 290.836 543.54C290.643 543.997 290.546 544.548 290.546 545.192V545.21C290.546 545.854 290.643 546.411 290.836 546.88C291.029 547.343 291.305 547.697 291.662 547.943C292.02 548.189 292.447 548.312 292.945 548.312ZM300.267 550V540.411H302.446V550H300.267ZM301.365 538.812C301.008 538.812 300.7 538.686 300.442 538.434C300.19 538.182 300.064 537.88 300.064 537.528C300.064 537.171 300.19 536.866 300.442 536.614C300.7 536.362 301.008 536.236 301.365 536.236C301.723 536.236 302.027 536.362 302.279 536.614C302.531 536.866 302.657 537.171 302.657 537.528C302.657 537.88 302.531 538.182 302.279 538.434C302.027 538.686 301.723 538.812 301.365 538.812ZM307.737 550.158C307.128 550.158 306.586 550.041 306.111 549.807C305.637 549.572 305.262 549.241 304.986 548.813C304.717 548.38 304.582 547.873 304.582 547.293V547.275C304.582 546.701 304.723 546.209 305.004 545.799C305.285 545.389 305.695 545.066 306.234 544.832C306.779 544.598 307.441 544.457 308.221 544.41L311.771 544.199V545.641L308.528 545.852C307.919 545.887 307.468 546.016 307.175 546.238C306.882 546.461 306.735 546.769 306.735 547.161V547.179C306.735 547.589 306.891 547.908 307.201 548.137C307.512 548.365 307.91 548.479 308.396 548.479C308.836 548.479 309.229 548.392 309.574 548.216C309.92 548.04 310.192 547.803 310.392 547.504C310.591 547.199 310.69 546.856 310.69 546.476V543.452C310.69 542.972 310.538 542.603 310.233 542.345C309.929 542.087 309.48 541.958 308.889 541.958C308.385 541.958 307.975 542.046 307.658 542.222C307.342 542.397 307.128 542.644 307.017 542.96L307.008 542.995H304.942L304.951 542.925C305.027 542.38 305.238 541.905 305.584 541.501C305.936 541.097 306.401 540.783 306.981 540.561C307.562 540.332 308.232 540.218 308.994 540.218C309.814 540.218 310.512 540.347 311.086 540.604C311.666 540.862 312.105 541.231 312.404 541.712C312.703 542.192 312.853 542.77 312.853 543.443V550H310.69V548.673H310.541C310.365 548.983 310.137 549.25 309.855 549.473C309.58 549.695 309.264 549.865 308.906 549.982C308.549 550.1 308.159 550.158 307.737 550.158ZM319.066 550.193C318.258 550.193 317.558 550.076 316.966 549.842C316.38 549.607 315.917 549.285 315.577 548.875C315.237 548.459 315.038 547.981 314.979 547.442L314.971 547.416H317.142L317.15 547.434C317.262 547.773 317.479 548.049 317.801 548.26C318.129 548.471 318.562 548.576 319.102 548.576C319.471 548.576 319.79 548.526 320.06 548.427C320.335 548.321 320.552 548.178 320.71 547.996C320.868 547.814 320.947 547.604 320.947 547.363V547.354C320.947 547.073 320.833 546.839 320.604 546.651C320.376 546.458 320.001 546.3 319.479 546.177L317.915 545.834C317.312 545.699 316.811 545.512 316.412 545.271C316.014 545.031 315.715 544.735 315.516 544.384C315.322 544.032 315.226 543.622 315.226 543.153V543.145C315.226 542.564 315.387 542.055 315.709 541.615C316.037 541.176 316.491 540.833 317.071 540.587C317.651 540.341 318.316 540.218 319.066 540.218C319.846 540.218 320.517 540.338 321.079 540.578C321.642 540.812 322.081 541.135 322.397 541.545C322.714 541.955 322.896 542.421 322.942 542.942V542.969H320.877V542.942C320.801 542.632 320.607 542.371 320.297 542.16C319.986 541.943 319.573 541.835 319.058 541.835C318.735 541.835 318.448 541.885 318.196 541.984C317.944 542.078 317.745 542.216 317.599 542.397C317.458 542.573 317.388 542.781 317.388 543.021V543.03C317.388 543.218 317.435 543.382 317.528 543.522C317.628 543.663 317.783 543.786 317.994 543.892C318.205 543.997 318.483 544.091 318.829 544.173L320.376 544.516C321.319 544.727 322.017 545.04 322.468 545.456C322.919 545.872 323.145 546.432 323.145 547.135V547.144C323.145 547.753 322.969 548.289 322.617 548.752C322.266 549.209 321.782 549.563 321.167 549.815C320.558 550.067 319.857 550.193 319.066 550.193Z" fill="#1F1F1F"/>
<path d="M52.8604 49V27.8623H60.5801C62.6895 27.8623 64.4912 28.2725 65.9854 29.0928C67.4795 29.9131 68.627 31.1045 69.4277 32.667C70.2285 34.2295 70.6289 36.124 70.6289 38.3506V38.3799C70.6289 40.6064 70.2285 42.5156 69.4277 44.1074C68.6367 45.6895 67.4893 46.9004 65.9854 47.7402C64.4912 48.5801 62.6895 49 60.5801 49H52.8604ZM56.6396 45.8213H60.1846C61.6104 45.8213 62.8115 45.5381 63.7881 44.9717C64.7646 44.3955 65.5068 43.5605 66.0146 42.4668C66.5225 41.3633 66.7764 40.0059 66.7764 38.3945V38.3652C66.7764 36.793 66.5176 35.46 66 34.3662C65.4922 33.2725 64.7451 32.4473 63.7588 31.8906C62.7822 31.3242 61.5908 31.041 60.1846 31.041H56.6396V45.8213ZM77.792 49.2637C76.7666 49.2637 75.8584 49.0684 75.0674 48.6777C74.2861 48.2773 73.6758 47.7256 73.2363 47.0225C72.8066 46.3096 72.5918 45.4941 72.5918 44.5762V44.5469C72.5918 43.6191 72.8213 42.8281 73.2803 42.1738C73.749 41.5098 74.4229 40.9873 75.3018 40.6064C76.1807 40.2158 77.2451 39.9814 78.4951 39.9033L84.4277 39.5371V41.9541L79.0078 42.291C78.1094 42.3496 77.4209 42.5645 76.9424 42.9355C76.4639 43.3066 76.2246 43.7998 76.2246 44.415V44.4297C76.2246 45.0645 76.4639 45.5674 76.9424 45.9385C77.4307 46.2998 78.0752 46.4805 78.876 46.4805C79.5791 46.4805 80.2041 46.3389 80.751 46.0557C81.3076 45.7725 81.7471 45.3867 82.0693 44.8984C82.3916 44.4102 82.5527 43.8584 82.5527 43.2432V38.585C82.5527 37.8037 82.3037 37.1885 81.8057 36.7393C81.3174 36.2803 80.6094 36.0508 79.6816 36.0508C78.8223 36.0508 78.1338 36.2363 77.6162 36.6074C77.0986 36.9688 76.7764 37.4375 76.6494 38.0137L76.6201 38.1455H73.251L73.2656 37.9697C73.3438 37.0518 73.6514 36.2314 74.1885 35.5088C74.7256 34.7764 75.4678 34.2002 76.415 33.7803C77.3721 33.3604 78.5049 33.1504 79.8135 33.1504C81.1123 33.1504 82.2354 33.3652 83.1826 33.7949C84.1396 34.2246 84.877 34.8252 85.3945 35.5967C85.9219 36.3682 86.1855 37.2764 86.1855 38.3213V49H82.5527V46.6123H82.4648C82.1719 47.1494 81.791 47.6182 81.3223 48.0186C80.8535 48.4189 80.3164 48.7266 79.7109 48.9414C79.1152 49.1562 78.4756 49.2637 77.792 49.2637ZM95.209 49.3076C93.8516 49.3076 92.6895 49.1074 91.7227 48.707C90.7656 48.3066 90.0137 47.7451 89.4668 47.0225C88.9297 46.29 88.6025 45.4453 88.4854 44.4883L88.4707 44.3564H92.0596L92.0889 44.4883C92.2256 45.1621 92.5479 45.6846 93.0557 46.0557C93.5732 46.4268 94.2959 46.6123 95.2236 46.6123C95.8193 46.6123 96.3271 46.5391 96.7471 46.3926C97.167 46.2461 97.4893 46.0312 97.7139 45.748C97.9482 45.4648 98.0654 45.1328 98.0654 44.752V44.7373C98.0654 44.2783 97.9092 43.9072 97.5967 43.624C97.2842 43.3311 96.7227 43.0918 95.9121 42.9062L93.334 42.335C92.3477 42.1104 91.5225 41.8027 90.8584 41.4121C90.1943 41.0215 89.6963 40.5381 89.3643 39.9619C89.0322 39.376 88.8662 38.6973 88.8662 37.9258V37.9111C88.8662 36.9639 89.125 36.1338 89.6426 35.4209C90.1602 34.708 90.8877 34.1514 91.8252 33.751C92.7627 33.3506 93.8516 33.1504 95.0918 33.1504C96.3809 33.1504 97.4844 33.3652 98.4023 33.7949C99.3203 34.2246 100.028 34.8008 100.526 35.5234C101.034 36.2461 101.308 37.0566 101.347 37.9551L101.361 38.1162H97.9629L97.9482 37.999C97.8701 37.374 97.5869 36.8613 97.0986 36.4609C96.6104 36.0508 95.9414 35.8457 95.0918 35.8457C94.5547 35.8457 94.0859 35.9238 93.6855 36.0801C93.2949 36.2363 92.9922 36.4561 92.7773 36.7393C92.5723 37.0225 92.4697 37.3545 92.4697 37.7354V37.75C92.4697 38.043 92.543 38.3066 92.6895 38.541C92.8359 38.7754 93.0703 38.9805 93.3926 39.1562C93.7148 39.3223 94.1445 39.4688 94.6816 39.5957L97.2598 40.167C98.8711 40.5283 100.019 41.0459 100.702 41.7197C101.386 42.3838 101.728 43.2773 101.728 44.4004V44.415C101.728 45.3916 101.449 46.251 100.893 46.9932C100.336 47.7256 99.5645 48.2969 98.5781 48.707C97.6016 49.1074 96.4785 49.3076 95.209 49.3076ZM104.159 49V27.8623H107.807V36.0801H107.88C108.29 35.1426 108.9 34.4199 109.711 33.9121C110.531 33.4043 111.518 33.1504 112.67 33.1504C113.793 33.1504 114.765 33.4092 115.585 33.9268C116.405 34.4346 117.04 35.1523 117.489 36.0801C117.938 36.998 118.163 38.082 118.163 39.332V49H114.516V40.0498C114.516 38.8584 114.228 37.9258 113.651 37.252C113.075 36.5684 112.265 36.2266 111.22 36.2266C110.536 36.2266 109.936 36.3926 109.418 36.7246C108.91 37.0469 108.515 37.4961 108.231 38.0723C107.948 38.6387 107.807 39.2979 107.807 40.0498V49H104.159ZM129.765 49.3076C129.022 49.3076 128.339 49.1904 127.714 48.9561C127.099 48.7119 126.557 48.375 126.088 47.9453C125.619 47.5059 125.233 46.9785 124.931 46.3633H124.857V49H121.21V27.8623H124.857V36.1387H124.931C125.233 35.5137 125.624 34.9814 126.103 34.542C126.581 34.0928 127.133 33.751 127.758 33.5166C128.383 33.2725 129.062 33.1504 129.794 33.1504C131.093 33.1504 132.221 33.4775 133.178 34.1318C134.135 34.7764 134.877 35.7041 135.404 36.915C135.932 38.1162 136.195 39.5518 136.195 41.2217V41.2363C136.195 42.8965 135.932 44.332 135.404 45.543C134.887 46.7539 134.145 47.6865 133.178 48.3408C132.221 48.9854 131.083 49.3076 129.765 49.3076ZM128.681 46.2461C129.462 46.2461 130.136 46.0459 130.702 45.6455C131.278 45.2354 131.718 44.6543 132.021 43.9023C132.323 43.1504 132.475 42.2617 132.475 41.2363V41.2217C132.475 40.1865 132.318 39.2979 132.006 38.5557C131.703 37.8135 131.269 37.2422 130.702 36.8418C130.136 36.4316 129.462 36.2266 128.681 36.2266C127.929 36.2266 127.265 36.4316 126.688 36.8418C126.122 37.252 125.673 37.833 125.341 38.585C125.009 39.3271 124.843 40.2061 124.843 41.2217V41.2363C124.843 42.252 125.004 43.1357 125.326 43.8877C125.658 44.6396 126.112 45.2207 126.688 45.6309C127.265 46.041 127.929 46.2461 128.681 46.2461ZM145.409 49.3076C143.886 49.3076 142.562 48.9854 141.439 48.3408C140.316 47.6865 139.442 46.7588 138.817 45.5576C138.202 44.3467 137.895 42.9062 137.895 41.2363V41.207C137.895 39.5469 138.207 38.1162 138.832 36.915C139.457 35.7041 140.331 34.7764 141.454 34.1318C142.577 33.4775 143.891 33.1504 145.395 33.1504C146.908 33.1504 148.227 33.4775 149.35 34.1318C150.482 34.7764 151.361 35.6992 151.986 36.9004C152.611 38.1016 152.924 39.5371 152.924 41.207V41.2363C152.924 42.916 152.611 44.3613 151.986 45.5723C151.371 46.7734 150.502 47.6963 149.379 48.3408C148.256 48.9854 146.933 49.3076 145.409 49.3076ZM145.424 46.3633C146.195 46.3633 146.864 46.1631 147.431 45.7627C147.997 45.3623 148.432 44.7812 148.734 44.0195C149.047 43.248 149.203 42.3203 149.203 41.2363V41.207C149.203 40.1328 149.047 39.2148 148.734 38.4531C148.422 37.6914 147.978 37.1104 147.401 36.71C146.835 36.3096 146.166 36.1094 145.395 36.1094C144.643 36.1094 143.979 36.3096 143.402 36.71C142.836 37.1104 142.392 37.6914 142.069 38.4531C141.757 39.2148 141.601 40.1328 141.601 41.207V41.2363C141.601 42.3203 141.757 43.248 142.069 44.0195C142.392 44.7812 142.836 45.3623 143.402 45.7627C143.979 46.1631 144.652 46.3633 145.424 46.3633ZM159.853 49.2637C158.827 49.2637 157.919 49.0684 157.128 48.6777C156.347 48.2773 155.736 47.7256 155.297 47.0225C154.867 46.3096 154.652 45.4941 154.652 44.5762V44.5469C154.652 43.6191 154.882 42.8281 155.341 42.1738C155.81 41.5098 156.483 40.9873 157.362 40.6064C158.241 40.2158 159.306 39.9814 160.556 39.9033L166.488 39.5371V41.9541L161.068 42.291C160.17 42.3496 159.481 42.5645 159.003 42.9355C158.524 43.3066 158.285 43.7998 158.285 44.415V44.4297C158.285 45.0645 158.524 45.5674 159.003 45.9385C159.491 46.2998 160.136 46.4805 160.937 46.4805C161.64 46.4805 162.265 46.3389 162.812 46.0557C163.368 45.7725 163.808 45.3867 164.13 44.8984C164.452 44.4102 164.613 43.8584 164.613 43.2432V38.585C164.613 37.8037 164.364 37.1885 163.866 36.7393C163.378 36.2803 162.67 36.0508 161.742 36.0508C160.883 36.0508 160.194 36.2363 159.677 36.6074C159.159 36.9688 158.837 37.4375 158.71 38.0137L158.681 38.1455H155.312L155.326 37.9697C155.404 37.0518 155.712 36.2314 156.249 35.5088C156.786 34.7764 157.528 34.2002 158.476 33.7803C159.433 33.3604 160.565 33.1504 161.874 33.1504C163.173 33.1504 164.296 33.3652 165.243 33.7949C166.2 34.2246 166.938 34.8252 167.455 35.5967C167.982 36.3682 168.246 37.2764 168.246 38.3213V49H164.613V46.6123H164.525C164.232 47.1494 163.852 47.6182 163.383 48.0186C162.914 48.4189 162.377 48.7266 161.771 48.9414C161.176 49.1562 160.536 49.2637 159.853 49.2637ZM171.205 49V33.4727H174.838V36.1533H174.926C175.16 35.2158 175.585 34.4834 176.2 33.9561C176.825 33.4189 177.587 33.1504 178.485 33.1504C178.71 33.1504 178.925 33.165 179.13 33.1943C179.335 33.2236 179.506 33.2578 179.643 33.2969V36.5928C179.496 36.5342 179.286 36.4854 179.013 36.4463C178.749 36.4072 178.461 36.3877 178.148 36.3877C177.465 36.3877 176.874 36.5293 176.376 36.8125C175.878 37.0859 175.497 37.4912 175.233 38.0283C174.97 38.5654 174.838 39.2197 174.838 39.9912V49H171.205ZM186.703 49.3076C185.395 49.3076 184.257 48.9854 183.29 48.3408C182.333 47.6865 181.591 46.7539 181.063 45.543C180.546 44.332 180.287 42.8965 180.287 41.2363V41.2217C180.287 39.5518 180.551 38.1162 181.078 36.915C181.605 35.7041 182.348 34.7764 183.305 34.1318C184.262 33.4775 185.39 33.1504 186.688 33.1504C187.431 33.1504 188.109 33.2725 188.725 33.5166C189.35 33.751 189.901 34.0928 190.38 34.542C190.858 34.9814 191.244 35.5137 191.537 36.1387H191.625V27.8623H195.258V49H191.625V46.3633H191.537C191.254 46.9785 190.873 47.5059 190.395 47.9453C189.926 48.375 189.379 48.7119 188.754 48.9561C188.139 49.1904 187.455 49.3076 186.703 49.3076ZM187.802 46.2461C188.554 46.2461 189.218 46.041 189.794 45.6309C190.37 45.2207 190.819 44.6396 191.142 43.8877C191.464 43.1357 191.625 42.252 191.625 41.2363V41.2217C191.625 40.2061 191.459 39.3271 191.127 38.585C190.805 37.833 190.355 37.252 189.779 36.8418C189.213 36.4316 188.554 36.2266 187.802 36.2266C187.021 36.2266 186.342 36.4316 185.766 36.8418C185.199 37.2422 184.76 37.8135 184.447 38.5557C184.145 39.2979 183.993 40.1865 183.993 41.2217V41.2363C183.993 42.2617 184.145 43.1504 184.447 43.9023C184.76 44.6543 185.199 45.2354 185.766 45.6455C186.342 46.0459 187.021 46.2461 187.802 46.2461Z" fill="#006341"/>
<path d="M312.636 47V29.3853H315.785V47H312.636ZM318.739 47V33.9995H321.779V36.0381H321.864C322.198 35.3382 322.694 34.7808 323.354 34.3657C324.013 33.9507 324.831 33.7432 325.807 33.7432C327.239 33.7432 328.346 34.1745 329.127 35.0371C329.909 35.8916 330.299 37.0757 330.299 38.5894V47H327.26V39.2119C327.26 38.276 327.044 37.5599 326.613 37.0635C326.181 36.5589 325.53 36.3066 324.66 36.3066C324.074 36.3066 323.565 36.4368 323.134 36.6973C322.702 36.9577 322.369 37.3239 322.133 37.7959C321.897 38.2679 321.779 38.8213 321.779 39.4561V47H318.739ZM333.742 47V36.3433H331.923V33.9995H333.742V32.7544C333.742 31.908 333.884 31.2082 334.169 30.6548C334.454 30.1014 334.893 29.6904 335.487 29.4219C336.081 29.1533 336.85 29.019 337.794 29.019C338.096 29.019 338.393 29.0312 338.686 29.0557C338.979 29.0801 339.223 29.1086 339.418 29.1411V31.2651C339.296 31.2489 339.153 31.2367 338.991 31.2285C338.828 31.2204 338.661 31.2163 338.49 31.2163C337.88 31.2163 337.432 31.3547 337.147 31.6313C336.863 31.908 336.72 32.3149 336.72 32.8521V33.9995H339.369V36.3433H336.781V47H333.742ZM346.278 47.2563C345.001 47.2563 343.89 46.9878 342.946 46.4507C342.01 45.9054 341.282 45.1283 340.761 44.1191C340.248 43.11 339.992 41.9056 339.992 40.5059V40.4814C339.992 39.0898 340.252 37.8895 340.773 36.8804C341.294 35.8713 342.026 35.0981 342.97 34.561C343.914 34.0158 345.017 33.7432 346.278 33.7432C347.54 33.7432 348.642 34.0158 349.586 34.561C350.53 35.0981 351.263 35.8713 351.784 36.8804C352.305 37.8813 352.565 39.0817 352.565 40.4814V40.5059C352.565 41.9056 352.305 43.11 351.784 44.1191C351.271 45.1283 350.543 45.9054 349.599 46.4507C348.663 46.9878 347.556 47.2563 346.278 47.2563ZM346.291 44.8027C346.942 44.8027 347.503 44.6359 347.975 44.3022C348.447 43.9604 348.813 43.4722 349.074 42.8374C349.334 42.1945 349.464 41.4173 349.464 40.5059V40.4814C349.464 39.5781 349.334 38.8091 349.074 38.1743C348.813 37.5314 348.443 37.0431 347.963 36.7095C347.483 36.3677 346.921 36.1968 346.278 36.1968C345.635 36.1968 345.074 36.3677 344.594 36.7095C344.114 37.0513 343.743 37.5396 343.483 38.1743C343.222 38.8091 343.092 39.5781 343.092 40.4814V40.5059C343.092 41.4173 343.222 42.1945 343.483 42.8374C343.743 43.4722 344.114 43.9604 344.594 44.3022C345.074 44.6359 345.639 44.8027 346.291 44.8027ZM354.652 47V33.9995H357.692V36.209H357.777C357.981 35.4359 358.347 34.8337 358.876 34.4023C359.405 33.971 360.048 33.7554 360.805 33.7554C361.008 33.7554 361.195 33.7676 361.366 33.792C361.545 33.8164 361.692 33.8449 361.806 33.8774V36.6118C361.667 36.563 361.484 36.5223 361.256 36.4897C361.037 36.4572 360.797 36.4409 360.536 36.4409C359.95 36.4409 359.442 36.5589 359.01 36.7949C358.587 37.0309 358.262 37.3768 358.034 37.8325C357.806 38.2801 357.692 38.8213 357.692 39.4561V47H354.652ZM363.515 47V33.9995H366.554V36.0747H366.64C366.916 35.3667 367.372 34.8011 368.007 34.3779C368.642 33.9548 369.386 33.7432 370.241 33.7432C370.843 33.7432 371.384 33.8449 371.864 34.0483C372.344 34.2518 372.755 34.5448 373.097 34.9272C373.439 35.3097 373.687 35.7736 373.842 36.3188H373.927C374.139 35.7899 374.44 35.3341 374.831 34.9517C375.229 34.5692 375.693 34.2721 376.222 34.0605C376.759 33.849 377.341 33.7432 377.968 33.7432C378.822 33.7432 379.567 33.9222 380.202 34.2803C380.836 34.6383 381.329 35.1429 381.679 35.7939C382.029 36.4368 382.204 37.1978 382.204 38.0767V47H379.164V38.8213C379.164 38.2842 379.075 37.8285 378.896 37.4541C378.716 37.0798 378.452 36.7949 378.102 36.5996C377.76 36.4043 377.337 36.3066 376.833 36.3066C376.336 36.3066 375.901 36.4206 375.526 36.6484C375.152 36.8682 374.859 37.1774 374.647 37.5762C374.444 37.9749 374.342 38.4347 374.342 38.9556V47H371.376V38.6626C371.376 38.1743 371.282 37.7552 371.095 37.4053C370.908 37.0472 370.644 36.7746 370.302 36.5874C369.96 36.4002 369.549 36.3066 369.069 36.3066C368.581 36.3066 368.145 36.4246 367.763 36.6606C367.388 36.8966 367.091 37.2222 366.872 37.6372C366.66 38.0441 366.554 38.5161 366.554 39.0532V47H363.515ZM388.588 47.2197C387.733 47.2197 386.977 47.057 386.317 46.7314C385.666 46.3978 385.158 45.938 384.792 45.3521C384.425 44.758 384.242 44.0744 384.242 43.3013V43.2769C384.242 42.5037 384.433 41.8405 384.816 41.2871C385.207 40.7337 385.768 40.2983 386.5 39.981C387.241 39.6554 388.132 39.4601 389.174 39.395L394.13 39.0898V41.104L389.613 41.3848C388.848 41.4336 388.266 41.6126 387.868 41.9219C387.469 42.2311 387.27 42.6421 387.27 43.1548V43.1792C387.27 43.7163 387.473 44.1395 387.88 44.4487C388.287 44.7498 388.824 44.9004 389.491 44.9004C390.077 44.9004 390.602 44.7824 391.066 44.5464C391.53 44.3104 391.896 43.9889 392.165 43.582C392.433 43.167 392.567 42.7031 392.567 42.1904V38.2598C392.567 37.6087 392.36 37.096 391.945 36.7217C391.538 36.3473 390.944 36.1602 390.163 36.1602C389.446 36.1602 388.873 36.3107 388.441 36.6118C388.01 36.9048 387.742 37.2873 387.636 37.7593L387.611 37.8569H384.779L384.792 37.7227C384.865 36.9577 385.129 36.2782 385.585 35.6841C386.041 35.0819 386.663 34.6099 387.453 34.2681C388.25 33.9181 389.19 33.7432 390.272 33.7432C391.363 33.7432 392.307 33.9222 393.104 34.2803C393.902 34.6302 394.516 35.1307 394.948 35.7817C395.387 36.4328 395.607 37.1937 395.607 38.0645V47H392.567V45.0347H392.482C392.238 45.4823 391.92 45.8729 391.53 46.2065C391.139 46.5321 390.696 46.7843 390.199 46.9634C389.703 47.1343 389.166 47.2197 388.588 47.2197ZM403.932 47.2563C402.646 47.2563 401.531 46.9837 400.587 46.4385C399.652 45.8932 398.927 45.112 398.415 44.0947C397.91 43.0775 397.658 41.8771 397.658 40.4937V40.4692C397.658 39.0939 397.914 37.9017 398.427 36.8926C398.939 35.8835 399.664 35.1063 400.6 34.561C401.535 34.0158 402.638 33.7432 403.908 33.7432C405.039 33.7432 406.02 33.9588 406.85 34.3901C407.68 34.8133 408.331 35.383 408.803 36.0991C409.283 36.8153 409.556 37.6087 409.621 38.4795L409.633 38.5649H406.764L406.752 38.4673C406.622 37.8325 406.321 37.2954 405.849 36.856C405.385 36.4165 404.746 36.1968 403.932 36.1968C403.289 36.1968 402.728 36.3717 402.248 36.7217C401.776 37.0635 401.409 37.5558 401.149 38.1987C400.889 38.8416 400.758 39.6066 400.758 40.4937V40.5059C400.758 41.4092 400.889 42.1823 401.149 42.8252C401.409 43.4681 401.78 43.9604 402.26 44.3022C402.74 44.6359 403.301 44.8027 403.944 44.8027C404.717 44.8027 405.34 44.5993 405.812 44.1924C406.292 43.7773 406.605 43.2321 406.752 42.5566L406.776 42.459L409.645 42.4468L409.633 42.5322C409.543 43.4355 409.254 44.2453 408.766 44.9614C408.278 45.6694 407.623 46.231 406.801 46.646C405.979 47.0529 405.023 47.2563 403.932 47.2563ZM403.7 52.7617C403.301 52.7617 402.923 52.7332 402.565 52.6763C402.215 52.6193 401.938 52.5501 401.735 52.4688V50.894C401.873 50.9429 402.056 50.9836 402.284 51.0161C402.52 51.0568 402.768 51.0771 403.029 51.0771C403.362 51.0771 403.647 51.0202 403.883 50.9062C404.119 50.8005 404.237 50.6174 404.237 50.3569V50.3325C404.237 50.0558 404.119 49.8483 403.883 49.71C403.647 49.5798 403.293 49.5146 402.821 49.5146H402.321V48.4282L403.419 46.7559H405.116V47L404.42 48.0742C405.096 48.123 405.641 48.3387 406.056 48.7212C406.471 49.1118 406.679 49.6571 406.679 50.3569V50.3813C406.679 50.8859 406.544 51.3132 406.276 51.6631C406.007 52.0212 405.649 52.2938 405.202 52.481C404.754 52.6681 404.254 52.7617 403.7 52.7617ZM417.323 47.2563C416.046 47.2563 414.935 46.9878 413.991 46.4507C413.055 45.9054 412.326 45.1283 411.806 44.1191C411.293 43.11 411.037 41.9056 411.037 40.5059V40.4814C411.037 39.0898 411.297 37.8895 411.818 36.8804C412.339 35.8713 413.071 35.0981 414.015 34.561C414.959 34.0158 416.062 33.7432 417.323 33.7432C418.585 33.7432 419.687 34.0158 420.631 34.561C421.575 35.0981 422.308 35.8713 422.829 36.8804C423.349 37.8813 423.61 39.0817 423.61 40.4814V40.5059C423.61 41.9056 423.349 43.11 422.829 44.1191C422.316 45.1283 421.588 45.9054 420.644 46.4507C419.708 46.9878 418.601 47.2563 417.323 47.2563ZM417.335 44.8027C417.986 44.8027 418.548 44.6359 419.02 44.3022C419.492 43.9604 419.858 43.4722 420.119 42.8374C420.379 42.1945 420.509 41.4173 420.509 40.5059V40.4814C420.509 39.5781 420.379 38.8091 420.119 38.1743C419.858 37.5314 419.488 37.0431 419.008 36.7095C418.528 36.3677 417.966 36.1968 417.323 36.1968C416.68 36.1968 416.119 36.3677 415.639 36.7095C415.159 37.0513 414.788 37.5396 414.528 38.1743C414.267 38.8091 414.137 39.5781 414.137 40.4814V40.5059C414.137 41.4173 414.267 42.1945 414.528 42.8374C414.788 43.4722 415.159 43.9604 415.639 44.3022C416.119 44.6359 416.684 44.8027 417.335 44.8027ZM419.167 32.498C418.792 32.498 418.454 32.4329 418.153 32.3027C417.86 32.1725 417.588 32.0098 417.335 31.8145L416.884 31.4727C416.68 31.318 416.493 31.1919 416.322 31.0942C416.151 30.9884 415.976 30.9355 415.797 30.9355C415.553 30.9355 415.366 31.0576 415.236 31.3018C415.114 31.5378 415.053 31.9121 415.053 32.4248V32.5103H413.234V32.3394C413.234 31.1919 413.437 30.3293 413.844 29.7515C414.251 29.1737 414.796 28.8848 415.48 28.8848C415.854 28.8848 416.184 28.9499 416.469 29.0801C416.762 29.2103 417.03 29.373 417.274 29.5684L417.738 29.9224C417.942 30.0851 418.133 30.2153 418.312 30.313C418.491 30.4106 418.67 30.4595 418.849 30.4595C419.101 30.4595 419.289 30.3415 419.411 30.1055C419.533 29.8613 419.594 29.4829 419.594 28.9702V28.8848H421.413V29.0435C421.413 30.1828 421.213 31.0454 420.814 31.6313C420.416 32.2091 419.866 32.498 419.167 32.498ZM431.398 47.2563C430.104 47.2563 428.989 46.9837 428.053 46.4385C427.117 45.8932 426.397 45.116 425.893 44.1069C425.396 43.0978 425.148 41.9056 425.148 40.5303V40.5181C425.148 39.159 425.4 37.9709 425.905 36.9536C426.409 35.9364 427.117 35.147 428.029 34.5854C428.94 34.0239 430.014 33.7432 431.251 33.7432C432.488 33.7432 433.555 34.0158 434.45 34.561C435.353 35.0981 436.049 35.859 436.537 36.8438C437.025 37.8203 437.27 38.9596 437.27 40.2617V41.2505H426.649V39.2241H435.805L434.352 41.1162V39.9443C434.352 39.0898 434.222 38.3818 433.961 37.8203C433.701 37.2507 433.339 36.8275 432.875 36.5508C432.419 36.266 431.89 36.1235 431.288 36.1235C430.686 36.1235 430.149 36.27 429.677 36.563C429.205 36.856 428.834 37.2873 428.566 37.8569C428.297 38.4185 428.163 39.1143 428.163 39.9443V41.1284C428.163 41.9178 428.297 42.5933 428.566 43.1548C428.834 43.7082 429.213 44.1354 429.701 44.4365C430.198 44.7376 430.784 44.8882 431.459 44.8882C431.972 44.8882 432.419 44.8109 432.802 44.6562C433.184 44.4935 433.498 44.29 433.742 44.0459C433.994 43.7936 434.169 43.5291 434.267 43.2524L434.291 43.1548H437.135L437.111 43.2891C437.005 43.7773 436.806 44.2575 436.513 44.7295C436.228 45.2015 435.845 45.6287 435.365 46.0112C434.893 46.3937 434.324 46.6989 433.656 46.9268C432.997 47.1465 432.244 47.2563 431.398 47.2563ZM444.435 47.2563C443.304 47.2563 442.335 47.0895 441.53 46.7559C440.724 46.4222 440.093 45.9583 439.638 45.3643C439.182 44.762 438.909 44.0622 438.82 43.2646L438.808 43.167H441.798L441.811 43.2769C441.941 43.814 442.222 44.2371 442.653 44.5464C443.084 44.8556 443.682 45.0103 444.447 45.0103C444.944 45.0103 445.367 44.9492 445.717 44.8271C446.075 44.6969 446.352 44.5138 446.547 44.2778C446.742 44.0418 446.84 43.7651 446.84 43.4478V43.4355C446.84 43.0449 446.706 42.7316 446.437 42.4956C446.168 42.2515 445.696 42.0521 445.021 41.8975L442.86 41.4092C442.038 41.2301 441.351 40.9779 440.797 40.6523C440.244 40.3187 439.829 39.9118 439.552 39.4316C439.276 38.9434 439.137 38.3778 439.137 37.7349V37.7227C439.137 36.9251 439.353 36.2293 439.784 35.6353C440.224 35.0412 440.834 34.5773 441.615 34.2437C442.396 33.91 443.304 33.7432 444.337 33.7432C445.42 33.7432 446.343 33.9222 447.108 34.2803C447.873 34.6302 448.467 35.1063 448.891 35.7085C449.314 36.3026 449.546 36.9699 449.586 37.7104V37.8325H446.754V37.7471C446.681 37.2344 446.437 36.8153 446.022 36.4897C445.615 36.1561 445.054 35.9893 444.337 35.9893C443.898 35.9893 443.511 36.0544 443.178 36.1846C442.844 36.3148 442.588 36.4979 442.409 36.7339C442.23 36.9699 442.14 37.2466 442.14 37.564V37.5762C442.14 37.8203 442.201 38.0441 442.323 38.2476C442.445 38.4429 442.645 38.6138 442.921 38.7603C443.198 38.8986 443.56 39.0207 444.008 39.1265L446.156 39.6025C447.491 39.9036 448.447 40.335 449.025 40.8965C449.603 41.4499 449.892 42.1986 449.892 43.1426V43.1548C449.892 43.9767 449.656 44.6969 449.184 45.3154C448.72 45.9258 448.077 46.4019 447.255 46.7437C446.433 47.0854 445.493 47.2563 444.435 47.2563ZM462.038 47.2563C460.947 47.2563 459.999 46.9837 459.193 46.4385C458.388 45.8932 457.765 45.116 457.326 44.1069C456.886 43.0897 456.667 41.8893 456.667 40.5059V40.4937C456.667 39.1021 456.886 37.9017 457.326 36.8926C457.765 35.8835 458.384 35.1104 459.181 34.5732C459.987 34.028 460.935 33.7554 462.025 33.7554C462.636 33.7554 463.201 33.853 463.722 34.0483C464.243 34.2437 464.703 34.5244 465.102 34.8906C465.508 35.2568 465.83 35.6963 466.066 36.209H466.151V29.2632H469.191V47H466.151V44.8149H466.066C465.83 45.3276 465.513 45.763 465.114 46.1211C464.723 46.4792 464.267 46.7599 463.747 46.9634C463.234 47.1587 462.664 47.2563 462.038 47.2563ZM462.953 44.6929C463.588 44.6929 464.145 44.522 464.625 44.1802C465.114 43.8384 465.492 43.3542 465.761 42.7275C466.029 42.1009 466.164 41.3604 466.164 40.5059V40.4937C466.164 39.6392 466.025 38.8986 465.749 38.272C465.48 37.6453 465.106 37.1611 464.625 36.8193C464.145 36.4775 463.588 36.3066 462.953 36.3066C462.302 36.3066 461.736 36.4775 461.256 36.8193C460.776 37.153 460.406 37.6331 460.146 38.2598C459.893 38.8783 459.767 39.6229 459.767 40.4937V40.5059C459.767 41.3685 459.893 42.1131 460.146 42.7397C460.406 43.3664 460.776 43.8506 461.256 44.1924C461.736 44.526 462.302 44.6929 462.953 44.6929ZM477.65 47.2563C476.373 47.2563 475.262 46.9878 474.318 46.4507C473.382 45.9054 472.654 45.1283 472.133 44.1191C471.62 43.11 471.364 41.9056 471.364 40.5059V40.4814C471.364 39.0898 471.624 37.8895 472.145 36.8804C472.666 35.8713 473.398 35.0981 474.342 34.561C475.286 34.0158 476.389 33.7432 477.65 33.7432C478.912 33.7432 480.014 34.0158 480.958 34.561C481.903 35.0981 482.635 35.8713 483.156 36.8804C483.677 37.8813 483.937 39.0817 483.937 40.4814V40.5059C483.937 41.9056 483.677 43.11 483.156 44.1191C482.643 45.1283 481.915 45.9054 480.971 46.4507C480.035 46.9878 478.928 47.2563 477.65 47.2563ZM477.663 44.8027C478.314 44.8027 478.875 44.6359 479.347 44.3022C479.819 43.9604 480.185 43.4722 480.446 42.8374C480.706 42.1945 480.836 41.4173 480.836 40.5059V40.4814C480.836 39.5781 480.706 38.8091 480.446 38.1743C480.185 37.5314 479.815 37.0431 479.335 36.7095C478.855 36.3677 478.293 36.1968 477.65 36.1968C477.007 36.1968 476.446 36.3677 475.966 36.7095C475.486 37.0513 475.115 37.5396 474.855 38.1743C474.595 38.8091 474.464 39.5781 474.464 40.4814V40.5059C474.464 41.4173 474.595 42.1945 474.855 42.8374C475.115 43.4722 475.486 43.9604 475.966 44.3022C476.446 44.6359 477.012 44.8027 477.663 44.8027ZM493.166 41.1772V38.6382H497.633C498.764 38.6382 499.643 38.3493 500.27 37.7715C500.897 37.1855 501.21 36.3636 501.21 35.3057V35.2812C501.21 34.2152 500.897 33.3932 500.27 32.8154C499.643 32.2376 498.764 31.9487 497.633 31.9487H493.166V29.3853H498.415C499.603 29.3853 500.644 29.6294 501.54 30.1177C502.435 30.606 503.135 31.2936 503.639 32.1807C504.144 33.0596 504.396 34.089 504.396 35.269V35.2935C504.396 36.4653 504.144 37.4948 503.639 38.3818C503.135 39.2607 502.435 39.9484 501.54 40.4448C500.644 40.9331 499.603 41.1772 498.415 41.1772H493.166ZM491.591 47V29.3853H494.74V47H491.591ZM506.532 47V33.9995H509.572V36.209H509.657C509.861 35.4359 510.227 34.8337 510.756 34.4023C511.285 33.971 511.928 33.7554 512.685 33.7554C512.888 33.7554 513.075 33.7676 513.246 33.792C513.425 33.8164 513.572 33.8449 513.686 33.8774V36.6118C513.547 36.563 513.364 36.5223 513.136 36.4897C512.917 36.4572 512.676 36.4409 512.416 36.4409C511.83 36.4409 511.321 36.5589 510.89 36.7949C510.467 37.0309 510.141 37.3768 509.914 37.8325C509.686 38.2801 509.572 38.8213 509.572 39.4561V47H506.532ZM520.644 47.2563C519.366 47.2563 518.255 46.9878 517.311 46.4507C516.375 45.9054 515.647 45.1283 515.126 44.1191C514.613 43.11 514.357 41.9056 514.357 40.5059V40.4814C514.357 39.0898 514.617 37.8895 515.138 36.8804C515.659 35.8713 516.391 35.0981 517.335 34.561C518.279 34.0158 519.382 33.7432 520.644 33.7432C521.905 33.7432 523.008 34.0158 523.952 34.561C524.896 35.0981 525.628 35.8713 526.149 36.8804C526.67 37.8813 526.93 39.0817 526.93 40.4814V40.5059C526.93 41.9056 526.67 43.11 526.149 44.1191C525.636 45.1283 524.908 45.9054 523.964 46.4507C523.028 46.9878 521.921 47.2563 520.644 47.2563ZM520.656 44.8027C521.307 44.8027 521.868 44.6359 522.34 44.3022C522.812 43.9604 523.179 43.4722 523.439 42.8374C523.699 42.1945 523.83 41.4173 523.83 40.5059V40.4814C523.83 39.5781 523.699 38.8091 523.439 38.1743C523.179 37.5314 522.808 37.0431 522.328 36.7095C521.848 36.3677 521.286 36.1968 520.644 36.1968C520.001 36.1968 519.439 36.3677 518.959 36.7095C518.479 37.0513 518.109 37.5396 517.848 38.1743C517.588 38.8091 517.458 39.5781 517.458 40.4814V40.5059C517.458 41.4173 517.588 42.1945 517.848 42.8374C518.109 43.4722 518.479 43.9604 518.959 44.3022C519.439 44.6359 520.005 44.8027 520.656 44.8027ZM533.839 47.2563C532.749 47.2563 531.801 46.9837 530.995 46.4385C530.189 45.8932 529.567 45.116 529.127 44.1069C528.688 43.0897 528.468 41.8893 528.468 40.5059V40.4937C528.468 39.1021 528.688 37.9017 529.127 36.8926C529.567 35.8835 530.185 35.1104 530.983 34.5732C531.789 34.028 532.737 33.7554 533.827 33.7554C534.438 33.7554 535.003 33.853 535.524 34.0483C536.045 34.2437 536.505 34.5244 536.903 34.8906C537.31 35.2568 537.632 35.6963 537.868 36.209H537.953V29.2632H540.993V47H537.953V44.8149H537.868C537.632 45.3276 537.314 45.763 536.916 46.1211C536.525 46.4792 536.069 46.7599 535.548 46.9634C535.036 47.1587 534.466 47.2563 533.839 47.2563ZM534.755 44.6929C535.39 44.6929 535.947 44.522 536.427 44.1802C536.916 43.8384 537.294 43.3542 537.562 42.7275C537.831 42.1009 537.965 41.3604 537.965 40.5059V40.4937C537.965 39.6392 537.827 38.8986 537.55 38.272C537.282 37.6453 536.907 37.1611 536.427 36.8193C535.947 36.4775 535.39 36.3066 534.755 36.3066C534.104 36.3066 533.538 36.4775 533.058 36.8193C532.578 37.153 532.208 37.6331 531.947 38.2598C531.695 38.8783 531.569 39.6229 531.569 40.4937V40.5059C531.569 41.3685 531.695 42.1131 531.947 42.7397C532.208 43.3664 532.578 43.8506 533.058 44.1924C533.538 44.526 534.104 44.6929 534.755 44.6929ZM548.134 47.2563C547.182 47.2563 546.368 47.0651 545.692 46.6826C545.025 46.292 544.516 45.7345 544.167 45.0103C543.825 44.2778 543.654 43.4111 543.654 42.4102V33.9995H546.693V41.7876C546.693 42.7235 546.905 43.4437 547.328 43.9482C547.759 44.4528 548.41 44.7051 549.281 44.7051C549.729 44.7051 550.128 44.6318 550.478 44.4854C550.836 44.3307 551.141 44.1151 551.393 43.8384C551.645 43.5617 551.837 43.228 551.967 42.8374C552.097 42.4468 552.162 42.0155 552.162 41.5435V33.9995H555.202V47H552.162V44.9736H552.077C551.857 45.4294 551.564 45.8322 551.198 46.1821C550.832 46.5239 550.392 46.7884 549.879 46.9756C549.367 47.1628 548.785 47.2563 548.134 47.2563ZM562.721 47.2319C561.354 47.2319 560.341 46.939 559.682 46.353C559.022 45.7671 558.693 44.8149 558.693 43.4966V36.3433H556.825V33.9995H558.693V30.728H561.781V33.9995H564.235V36.3433H561.781V43.1792C561.781 43.814 561.92 44.2575 562.196 44.5098C562.481 44.7539 562.904 44.876 563.466 44.876C563.62 44.876 563.759 44.8719 563.881 44.8638C564.003 44.8475 564.121 44.8353 564.235 44.8271V47.1099C564.056 47.1424 563.836 47.1709 563.576 47.1953C563.315 47.2197 563.03 47.2319 562.721 47.2319ZM571.938 47.2563C570.66 47.2563 569.549 46.9878 568.605 46.4507C567.669 45.9054 566.941 45.1283 566.42 44.1191C565.907 43.11 565.651 41.9056 565.651 40.5059V40.4814C565.651 39.0898 565.911 37.8895 566.432 36.8804C566.953 35.8713 567.685 35.0981 568.629 34.561C569.573 34.0158 570.676 33.7432 571.938 33.7432C573.199 33.7432 574.302 34.0158 575.246 34.561C576.19 35.0981 576.922 35.8713 577.443 36.8804C577.964 37.8813 578.224 39.0817 578.224 40.4814V40.5059C578.224 41.9056 577.964 43.11 577.443 44.1191C576.93 45.1283 576.202 45.9054 575.258 46.4507C574.322 46.9878 573.215 47.2563 571.938 47.2563ZM571.95 44.8027C572.601 44.8027 573.162 44.6359 573.634 44.3022C574.106 43.9604 574.472 43.4722 574.733 42.8374C574.993 42.1945 575.124 41.4173 575.124 40.5059V40.4814C575.124 39.5781 574.993 38.8091 574.733 38.1743C574.472 37.5314 574.102 37.0431 573.622 36.7095C573.142 36.3677 572.58 36.1968 571.938 36.1968C571.295 36.1968 570.733 36.3677 570.253 36.7095C569.773 37.0513 569.403 37.5396 569.142 38.1743C568.882 38.8091 568.751 39.5781 568.751 40.4814V40.5059C568.751 41.4173 568.882 42.1945 569.142 42.8374C569.403 43.4722 569.773 43.9604 570.253 44.3022C570.733 44.6359 571.299 44.8027 571.95 44.8027Z" fill="#1F1F1F"/>
<line x1="253.6" y1="75.6" x2="253.6" y2="0.400002" stroke="#B0B0B1" stroke-width="0.8" stroke-linecap="square"/>
<line x1="1279.6" y1="76.4" x2="0.399979" y2="76.4" stroke="#B0B0B1" stroke-width="0.8" stroke-linecap="square"/>
</g>
<defs>
<clipPath id="clip0_4011_7">
<rect width="1280" height="720" fill="white"/>
</clipPath>
</defs>
</svg>
