<svg width="1280" height="720" viewBox="0 0 1280 720" fill="none" xmlns="http://www.w3.org/2000/svg">
<g clip-path="url(#clip0_1_2)">
<rect width="1280" height="720" fill="#F0F7F5"/>
<rect width="1280" height="76" fill="white"/>
<path d="M317.506 47L311.403 29.3853H314.833L319.289 43.6064H319.374L323.83 29.3853H327.272L321.156 47H317.506ZM328.859 47V33.9995H331.898V47H328.859ZM330.385 32.0952C329.905 32.0952 329.498 31.9325 329.164 31.6069C328.839 31.2733 328.676 30.8786 328.676 30.4229C328.676 29.9508 328.839 29.5521 329.164 29.2266C329.498 28.901 329.905 28.7383 330.385 28.7383C330.865 28.7383 331.268 28.901 331.593 29.2266C331.927 29.5521 332.094 29.9508 332.094 30.4229C332.094 30.8786 331.927 31.2733 331.593 31.6069C331.268 31.9325 330.865 32.0952 330.385 32.0952ZM339.699 47.2563C338.568 47.2563 337.599 47.0895 336.793 46.7559C335.988 46.4222 335.357 45.9583 334.901 45.3643C334.446 44.762 334.173 44.0622 334.083 43.2646L334.071 43.167H337.062L337.074 43.2769C337.204 43.814 337.485 44.2371 337.917 44.5464C338.348 44.8556 338.946 45.0103 339.711 45.0103C340.207 45.0103 340.631 44.9492 340.98 44.8271C341.339 44.6969 341.615 44.5138 341.811 44.2778C342.006 44.0418 342.104 43.7651 342.104 43.4478V43.4355C342.104 43.0449 341.969 42.7316 341.701 42.4956C341.432 42.2515 340.96 42.0521 340.285 41.8975L338.124 41.4092C337.302 41.2301 336.614 40.9779 336.061 40.6523C335.508 40.3187 335.093 39.9118 334.816 39.4316C334.539 38.9434 334.401 38.3778 334.401 37.7349V37.7227C334.401 36.9251 334.617 36.2293 335.048 35.6353C335.487 35.0412 336.098 34.5773 336.879 34.2437C337.66 33.91 338.568 33.7432 339.601 33.7432C340.683 33.7432 341.607 33.9222 342.372 34.2803C343.137 34.6302 343.731 35.1063 344.154 35.7085C344.577 36.3026 344.809 36.9699 344.85 37.7104V37.8325H342.018V37.7471C341.945 37.2344 341.701 36.8153 341.286 36.4897C340.879 36.1561 340.317 35.9893 339.601 35.9893C339.162 35.9893 338.775 36.0544 338.441 36.1846C338.108 36.3148 337.851 36.4979 337.672 36.7339C337.493 36.9699 337.404 37.2466 337.404 37.564V37.5762C337.404 37.8203 337.465 38.0441 337.587 38.2476C337.709 38.4429 337.908 38.6138 338.185 38.7603C338.462 38.8986 338.824 39.0207 339.271 39.1265L341.42 39.6025C342.755 39.9036 343.711 40.335 344.289 40.8965C344.866 41.4499 345.155 42.1986 345.155 43.1426V43.1548C345.155 43.9767 344.919 44.6969 344.447 45.3154C343.983 45.9258 343.34 46.4019 342.519 46.7437C341.697 47.0854 340.757 47.2563 339.699 47.2563ZM351.039 47.2197C350.185 47.2197 349.428 47.057 348.769 46.7314C348.118 46.3978 347.609 45.938 347.243 45.3521C346.876 44.758 346.693 44.0744 346.693 43.3013V43.2769C346.693 42.5037 346.885 41.8405 347.267 41.2871C347.658 40.7337 348.219 40.2983 348.952 39.981C349.692 39.6554 350.583 39.4601 351.625 39.395L356.581 39.0898V41.104L352.064 41.3848C351.299 41.4336 350.718 41.6126 350.319 41.9219C349.92 42.2311 349.721 42.6421 349.721 43.1548V43.1792C349.721 43.7163 349.924 44.1395 350.331 44.4487C350.738 44.7498 351.275 44.9004 351.942 44.9004C352.528 44.9004 353.053 44.7824 353.517 44.5464C353.981 44.3104 354.347 43.9889 354.616 43.582C354.884 43.167 355.019 42.7031 355.019 42.1904V38.2598C355.019 37.6087 354.811 37.096 354.396 36.7217C353.989 36.3473 353.395 36.1602 352.614 36.1602C351.898 36.1602 351.324 36.3107 350.893 36.6118C350.461 36.9048 350.193 37.2873 350.087 37.7593L350.062 37.8569H347.23L347.243 37.7227C347.316 36.9577 347.58 36.2782 348.036 35.6841C348.492 35.0819 349.114 34.6099 349.904 34.2681C350.701 33.9181 351.641 33.7432 352.724 33.7432C353.814 33.7432 354.758 33.9222 355.556 34.2803C356.353 34.6302 356.968 35.1307 357.399 35.7817C357.838 36.4328 358.058 37.1937 358.058 38.0645V47H355.019V45.0347H354.933C354.689 45.4823 354.372 45.8729 353.981 46.2065C353.59 46.5321 353.147 46.7843 352.65 46.9634C352.154 47.1343 351.617 47.2197 351.039 47.2197ZM354.542 32.498C354.168 32.498 353.83 32.4329 353.529 32.3027C353.236 32.1725 352.964 32.0098 352.711 31.8145L352.26 31.4727C352.056 31.318 351.869 31.1919 351.698 31.0942C351.527 30.9884 351.352 30.9355 351.173 30.9355C350.929 30.9355 350.742 31.0576 350.612 31.3018C350.49 31.5378 350.429 31.9121 350.429 32.4248V32.5103H348.61V32.3394C348.61 31.1919 348.813 30.3293 349.22 29.7515C349.627 29.1737 350.172 28.8848 350.856 28.8848C351.23 28.8848 351.56 28.9499 351.845 29.0801C352.138 29.2103 352.406 29.373 352.65 29.5684L353.114 29.9224C353.318 30.0851 353.509 30.2153 353.688 30.313C353.867 30.4106 354.046 30.4595 354.225 30.4595C354.477 30.4595 354.665 30.3415 354.787 30.1055C354.909 29.8613 354.97 29.4829 354.97 28.9702V28.8848H356.789V29.0435C356.789 30.1828 356.589 31.0454 356.19 31.6313C355.792 32.2091 355.242 32.498 354.542 32.498ZM366.396 47.2563C365.118 47.2563 364.007 46.9878 363.063 46.4507C362.127 45.9054 361.399 45.1283 360.878 44.1191C360.365 43.11 360.109 41.9056 360.109 40.5059V40.4814C360.109 39.0898 360.369 37.8895 360.89 36.8804C361.411 35.8713 362.143 35.0981 363.087 34.561C364.031 34.0158 365.134 33.7432 366.396 33.7432C367.657 33.7432 368.76 34.0158 369.704 34.561C370.648 35.0981 371.38 35.8713 371.901 36.8804C372.422 37.8813 372.682 39.0817 372.682 40.4814V40.5059C372.682 41.9056 372.422 43.11 371.901 44.1191C371.388 45.1283 370.66 45.9054 369.716 46.4507C368.78 46.9878 367.673 47.2563 366.396 47.2563ZM366.408 44.8027C367.059 44.8027 367.62 44.6359 368.092 44.3022C368.564 43.9604 368.931 43.4722 369.191 42.8374C369.451 42.1945 369.582 41.4173 369.582 40.5059V40.4814C369.582 39.5781 369.451 38.8091 369.191 38.1743C368.931 37.5314 368.56 37.0431 368.08 36.7095C367.6 36.3677 367.038 36.1968 366.396 36.1968C365.753 36.1968 365.191 36.3677 364.711 36.7095C364.231 37.0513 363.861 37.5396 363.6 38.1743C363.34 38.8091 363.209 39.5781 363.209 40.4814V40.5059C363.209 41.4173 363.34 42.1945 363.6 42.8374C363.861 43.4722 364.231 43.9604 364.711 44.3022C365.191 44.6359 365.757 44.8027 366.408 44.8027ZM388.039 47.3174C386.761 47.3174 385.609 47.1099 384.584 46.6948C383.559 46.2716 382.684 45.6613 381.959 44.8638C381.235 44.0662 380.678 43.1019 380.287 41.9707C379.905 40.8314 379.713 39.5537 379.713 38.1377V38.1255C379.713 36.2537 380.051 34.6424 380.727 33.2915C381.402 31.9406 382.358 30.8989 383.595 30.1665C384.84 29.4341 386.305 29.0679 387.99 29.0679C389.373 29.0679 390.59 29.3161 391.64 29.8125C392.698 30.3008 393.56 30.9722 394.228 31.8267C394.895 32.673 395.334 33.6414 395.546 34.7319L395.595 34.9272H392.409L392.36 34.793C392.034 33.8408 391.497 33.1043 390.749 32.5835C390 32.0545 389.084 31.79 388.002 31.79C386.944 31.79 386.037 32.0423 385.28 32.5469C384.523 33.0433 383.941 33.7635 383.534 34.7075C383.127 35.6515 382.924 36.7827 382.924 38.1011V38.1133C382.924 39.1224 383.042 40.0298 383.278 40.8354C383.514 41.633 383.856 42.3125 384.303 42.874C384.759 43.4274 385.304 43.8547 385.939 44.1558C386.574 44.4487 387.286 44.5952 388.075 44.5952C388.97 44.5952 389.756 44.4243 390.431 44.0825C391.115 43.7407 391.648 43.2606 392.03 42.6421C392.421 42.0236 392.624 41.3034 392.641 40.4814L392.653 40.1885H388.295V37.7471H395.729V39.688C395.729 40.8761 395.554 41.9422 395.204 42.8862C394.854 43.8221 394.346 44.6237 393.678 45.291C393.019 45.9502 392.213 46.4548 391.261 46.8047C390.317 47.1465 389.243 47.3174 388.039 47.3174ZM403.834 47.2563C402.541 47.2563 401.426 46.9837 400.49 46.4385C399.554 45.8932 398.834 45.116 398.329 44.1069C397.833 43.0978 397.584 41.9056 397.584 40.5303V40.5181C397.584 39.159 397.837 37.9709 398.341 36.9536C398.846 35.9364 399.554 35.147 400.465 34.5854C401.377 34.0239 402.451 33.7432 403.688 33.7432C404.925 33.7432 405.991 34.0158 406.886 34.561C407.79 35.0981 408.485 35.859 408.974 36.8438C409.462 37.8203 409.706 38.9596 409.706 40.2617V41.2505H399.086V39.2241H408.241L406.789 41.1162V39.9443C406.789 39.0898 406.658 38.3818 406.398 37.8203C406.138 37.2507 405.775 36.8275 405.312 36.5508C404.856 36.266 404.327 36.1235 403.725 36.1235C403.122 36.1235 402.585 36.27 402.113 36.563C401.641 36.856 401.271 37.2873 401.002 37.8569C400.734 38.4185 400.6 39.1143 400.6 39.9443V41.1284C400.6 41.9178 400.734 42.5933 401.002 43.1548C401.271 43.7082 401.649 44.1354 402.138 44.4365C402.634 44.7376 403.22 44.8882 403.896 44.8882C404.408 44.8882 404.856 44.8109 405.238 44.6562C405.621 44.4935 405.934 44.29 406.178 44.0459C406.431 43.7936 406.605 43.5291 406.703 43.2524L406.728 43.1548H409.572L409.547 43.2891C409.442 43.7773 409.242 44.2575 408.949 44.7295C408.664 45.2015 408.282 45.6287 407.802 46.0112C407.33 46.3937 406.76 46.6989 406.093 46.9268C405.434 47.1465 404.681 47.2563 403.834 47.2563ZM411.806 47V33.9995H414.845V36.209H414.931C415.134 35.4359 415.5 34.8337 416.029 34.4023C416.558 33.971 417.201 33.7554 417.958 33.7554C418.161 33.7554 418.349 33.7676 418.52 33.792C418.699 33.8164 418.845 33.8449 418.959 33.8774V36.6118C418.821 36.563 418.638 36.5223 418.41 36.4897C418.19 36.4572 417.95 36.4409 417.689 36.4409C417.104 36.4409 416.595 36.5589 416.164 36.7949C415.74 37.0309 415.415 37.3768 415.187 37.8325C414.959 38.2801 414.845 38.8213 414.845 39.4561V47H411.806ZM424.184 47.2197C423.329 47.2197 422.572 47.057 421.913 46.7314C421.262 46.3978 420.753 45.938 420.387 45.3521C420.021 44.758 419.838 44.0744 419.838 43.3013V43.2769C419.838 42.5037 420.029 41.8405 420.412 41.2871C420.802 40.7337 421.364 40.2983 422.096 39.981C422.837 39.6554 423.728 39.4601 424.77 39.395L429.726 39.0898V41.104L425.209 41.3848C424.444 41.4336 423.862 41.6126 423.463 41.9219C423.065 42.2311 422.865 42.6421 422.865 43.1548V43.1792C422.865 43.7163 423.069 44.1395 423.476 44.4487C423.882 44.7498 424.42 44.9004 425.087 44.9004C425.673 44.9004 426.198 44.7824 426.662 44.5464C427.125 44.3104 427.492 43.9889 427.76 43.582C428.029 43.167 428.163 42.7031 428.163 42.1904V38.2598C428.163 37.6087 427.956 37.096 427.541 36.7217C427.134 36.3473 426.54 36.1602 425.758 36.1602C425.042 36.1602 424.468 36.3107 424.037 36.6118C423.606 36.9048 423.337 37.2873 423.231 37.7593L423.207 37.8569H420.375L420.387 37.7227C420.46 36.9577 420.725 36.2782 421.181 35.6841C421.636 35.0819 422.259 34.6099 423.048 34.2681C423.846 33.9181 424.786 33.7432 425.868 33.7432C426.959 33.7432 427.903 33.9222 428.7 34.2803C429.498 34.6302 430.112 35.1307 430.543 35.7817C430.983 36.4328 431.203 37.1937 431.203 38.0645V47H428.163V45.0347H428.078C427.833 45.4823 427.516 45.8729 427.125 46.2065C426.735 46.5321 426.291 46.7843 425.795 46.9634C425.299 47.1343 424.761 47.2197 424.184 47.2197ZM433.9 47V29.2632H436.94V47H433.9Z" fill="#1F1F1F"/>
<rect x="40" y="148" width="255" height="171" rx="20" fill="white"/>
<rect x="305" y="148" width="255" height="171" rx="20" fill="white"/>
<path d="M534.062 174.147V171.353C534.063 169.501 532.468 168 530.5 168C528.532 168 526.938 169.501 526.938 171.353V174.147M523.303 187H537.697C538.969 187 540 186.048 540 184.873L538.525 173.588C538.525 172.413 537.494 171.461 536.222 171.461H524.491C523.219 171.461 522.188 172.413 522.188 173.588L521 184.873C521 186.048 522.031 187 523.303 187Z" stroke="#006341" stroke-width="1.5" stroke-linecap="round" stroke-linejoin="round"/>
<rect x="570" y="148" width="255" height="171" rx="20" fill="white"/>
<rect x="40" y="337" width="784" height="363" rx="20" fill="white"/>
<rect x="835" y="148" width="407" height="552" rx="20" fill="white"/>
<path d="M52.8604 49V27.8623H60.5801C62.6895 27.8623 64.4912 28.2725 65.9854 29.0928C67.4795 29.9131 68.627 31.1045 69.4277 32.667C70.2285 34.2295 70.6289 36.124 70.6289 38.3506V38.3799C70.6289 40.6064 70.2285 42.5156 69.4277 44.1074C68.6367 45.6895 67.4893 46.9004 65.9854 47.7402C64.4912 48.5801 62.6895 49 60.5801 49H52.8604ZM56.6396 45.8213H60.1846C61.6104 45.8213 62.8115 45.5381 63.7881 44.9717C64.7646 44.3955 65.5068 43.5605 66.0146 42.4668C66.5225 41.3633 66.7764 40.0059 66.7764 38.3945V38.3652C66.7764 36.793 66.5176 35.46 66 34.3662C65.4922 33.2725 64.7451 32.4473 63.7588 31.8906C62.7822 31.3242 61.5908 31.041 60.1846 31.041H56.6396V45.8213ZM77.792 49.2637C76.7666 49.2637 75.8584 49.0684 75.0674 48.6777C74.2861 48.2773 73.6758 47.7256 73.2363 47.0225C72.8066 46.3096 72.5918 45.4941 72.5918 44.5762V44.5469C72.5918 43.6191 72.8213 42.8281 73.2803 42.1738C73.749 41.5098 74.4229 40.9873 75.3018 40.6064C76.1807 40.2158 77.2451 39.9814 78.4951 39.9033L84.4277 39.5371V41.9541L79.0078 42.291C78.1094 42.3496 77.4209 42.5645 76.9424 42.9355C76.4639 43.3066 76.2246 43.7998 76.2246 44.415V44.4297C76.2246 45.0645 76.4639 45.5674 76.9424 45.9385C77.4307 46.2998 78.0752 46.4805 78.876 46.4805C79.5791 46.4805 80.2041 46.3389 80.751 46.0557C81.3076 45.7725 81.7471 45.3867 82.0693 44.8984C82.3916 44.4102 82.5527 43.8584 82.5527 43.2432V38.585C82.5527 37.8037 82.3037 37.1885 81.8057 36.7393C81.3174 36.2803 80.6094 36.0508 79.6816 36.0508C78.8223 36.0508 78.1338 36.2363 77.6162 36.6074C77.0986 36.9688 76.7764 37.4375 76.6494 38.0137L76.6201 38.1455H73.251L73.2656 37.9697C73.3438 37.0518 73.6514 36.2314 74.1885 35.5088C74.7256 34.7764 75.4678 34.2002 76.415 33.7803C77.3721 33.3604 78.5049 33.1504 79.8135 33.1504C81.1123 33.1504 82.2354 33.3652 83.1826 33.7949C84.1396 34.2246 84.877 34.8252 85.3945 35.5967C85.9219 36.3682 86.1855 37.2764 86.1855 38.3213V49H82.5527V46.6123H82.4648C82.1719 47.1494 81.791 47.6182 81.3223 48.0186C80.8535 48.4189 80.3164 48.7266 79.7109 48.9414C79.1152 49.1562 78.4756 49.2637 77.792 49.2637ZM95.209 49.3076C93.8516 49.3076 92.6895 49.1074 91.7227 48.707C90.7656 48.3066 90.0137 47.7451 89.4668 47.0225C88.9297 46.29 88.6025 45.4453 88.4854 44.4883L88.4707 44.3564H92.0596L92.0889 44.4883C92.2256 45.1621 92.5479 45.6846 93.0557 46.0557C93.5732 46.4268 94.2959 46.6123 95.2236 46.6123C95.8193 46.6123 96.3271 46.5391 96.7471 46.3926C97.167 46.2461 97.4893 46.0312 97.7139 45.748C97.9482 45.4648 98.0654 45.1328 98.0654 44.752V44.7373C98.0654 44.2783 97.9092 43.9072 97.5967 43.624C97.2842 43.3311 96.7227 43.0918 95.9121 42.9062L93.334 42.335C92.3477 42.1104 91.5225 41.8027 90.8584 41.4121C90.1943 41.0215 89.6963 40.5381 89.3643 39.9619C89.0322 39.376 88.8662 38.6973 88.8662 37.9258V37.9111C88.8662 36.9639 89.125 36.1338 89.6426 35.4209C90.1602 34.708 90.8877 34.1514 91.8252 33.751C92.7627 33.3506 93.8516 33.1504 95.0918 33.1504C96.3809 33.1504 97.4844 33.3652 98.4023 33.7949C99.3203 34.2246 100.028 34.8008 100.526 35.5234C101.034 36.2461 101.308 37.0566 101.347 37.9551L101.361 38.1162H97.9629L97.9482 37.999C97.8701 37.374 97.5869 36.8613 97.0986 36.4609C96.6104 36.0508 95.9414 35.8457 95.0918 35.8457C94.5547 35.8457 94.0859 35.9238 93.6855 36.0801C93.2949 36.2363 92.9922 36.4561 92.7773 36.7393C92.5723 37.0225 92.4697 37.3545 92.4697 37.7354V37.75C92.4697 38.043 92.543 38.3066 92.6895 38.541C92.8359 38.7754 93.0703 38.9805 93.3926 39.1562C93.7148 39.3223 94.1445 39.4688 94.6816 39.5957L97.2598 40.167C98.8711 40.5283 100.019 41.0459 100.702 41.7197C101.386 42.3838 101.728 43.2773 101.728 44.4004V44.415C101.728 45.3916 101.449 46.251 100.893 46.9932C100.336 47.7256 99.5645 48.2969 98.5781 48.707C97.6016 49.1074 96.4785 49.3076 95.209 49.3076ZM104.159 49V27.8623H107.807V36.0801H107.88C108.29 35.1426 108.9 34.4199 109.711 33.9121C110.531 33.4043 111.518 33.1504 112.67 33.1504C113.793 33.1504 114.765 33.4092 115.585 33.9268C116.405 34.4346 117.04 35.1523 117.489 36.0801C117.938 36.998 118.163 38.082 118.163 39.332V49H114.516V40.0498C114.516 38.8584 114.228 37.9258 113.651 37.252C113.075 36.5684 112.265 36.2266 111.22 36.2266C110.536 36.2266 109.936 36.3926 109.418 36.7246C108.91 37.0469 108.515 37.4961 108.231 38.0723C107.948 38.6387 107.807 39.2979 107.807 40.0498V49H104.159ZM129.765 49.3076C129.022 49.3076 128.339 49.1904 127.714 48.9561C127.099 48.7119 126.557 48.375 126.088 47.9453C125.619 47.5059 125.233 46.9785 124.931 46.3633H124.857V49H121.21V27.8623H124.857V36.1387H124.931C125.233 35.5137 125.624 34.9814 126.103 34.542C126.581 34.0928 127.133 33.751 127.758 33.5166C128.383 33.2725 129.062 33.1504 129.794 33.1504C131.093 33.1504 132.221 33.4775 133.178 34.1318C134.135 34.7764 134.877 35.7041 135.404 36.915C135.932 38.1162 136.195 39.5518 136.195 41.2217V41.2363C136.195 42.8965 135.932 44.332 135.404 45.543C134.887 46.7539 134.145 47.6865 133.178 48.3408C132.221 48.9854 131.083 49.3076 129.765 49.3076ZM128.681 46.2461C129.462 46.2461 130.136 46.0459 130.702 45.6455C131.278 45.2354 131.718 44.6543 132.021 43.9023C132.323 43.1504 132.475 42.2617 132.475 41.2363V41.2217C132.475 40.1865 132.318 39.2979 132.006 38.5557C131.703 37.8135 131.269 37.2422 130.702 36.8418C130.136 36.4316 129.462 36.2266 128.681 36.2266C127.929 36.2266 127.265 36.4316 126.688 36.8418C126.122 37.252 125.673 37.833 125.341 38.585C125.009 39.3271 124.843 40.2061 124.843 41.2217V41.2363C124.843 42.252 125.004 43.1357 125.326 43.8877C125.658 44.6396 126.112 45.2207 126.688 45.6309C127.265 46.041 127.929 46.2461 128.681 46.2461ZM145.409 49.3076C143.886 49.3076 142.562 48.9854 141.439 48.3408C140.316 47.6865 139.442 46.7588 138.817 45.5576C138.202 44.3467 137.895 42.9062 137.895 41.2363V41.207C137.895 39.5469 138.207 38.1162 138.832 36.915C139.457 35.7041 140.331 34.7764 141.454 34.1318C142.577 33.4775 143.891 33.1504 145.395 33.1504C146.908 33.1504 148.227 33.4775 149.35 34.1318C150.482 34.7764 151.361 35.6992 151.986 36.9004C152.611 38.1016 152.924 39.5371 152.924 41.207V41.2363C152.924 42.916 152.611 44.3613 151.986 45.5723C151.371 46.7734 150.502 47.6963 149.379 48.3408C148.256 48.9854 146.933 49.3076 145.409 49.3076ZM145.424 46.3633C146.195 46.3633 146.864 46.1631 147.431 45.7627C147.997 45.3623 148.432 44.7812 148.734 44.0195C149.047 43.248 149.203 42.3203 149.203 41.2363V41.207C149.203 40.1328 149.047 39.2148 148.734 38.4531C148.422 37.6914 147.978 37.1104 147.401 36.71C146.835 36.3096 146.166 36.1094 145.395 36.1094C144.643 36.1094 143.979 36.3096 143.402 36.71C142.836 37.1104 142.392 37.6914 142.069 38.4531C141.757 39.2148 141.601 40.1328 141.601 41.207V41.2363C141.601 42.3203 141.757 43.248 142.069 44.0195C142.392 44.7812 142.836 45.3623 143.402 45.7627C143.979 46.1631 144.652 46.3633 145.424 46.3633ZM159.853 49.2637C158.827 49.2637 157.919 49.0684 157.128 48.6777C156.347 48.2773 155.736 47.7256 155.297 47.0225C154.867 46.3096 154.652 45.4941 154.652 44.5762V44.5469C154.652 43.6191 154.882 42.8281 155.341 42.1738C155.81 41.5098 156.483 40.9873 157.362 40.6064C158.241 40.2158 159.306 39.9814 160.556 39.9033L166.488 39.5371V41.9541L161.068 42.291C160.17 42.3496 159.481 42.5645 159.003 42.9355C158.524 43.3066 158.285 43.7998 158.285 44.415V44.4297C158.285 45.0645 158.524 45.5674 159.003 45.9385C159.491 46.2998 160.136 46.4805 160.937 46.4805C161.64 46.4805 162.265 46.3389 162.812 46.0557C163.368 45.7725 163.808 45.3867 164.13 44.8984C164.452 44.4102 164.613 43.8584 164.613 43.2432V38.585C164.613 37.8037 164.364 37.1885 163.866 36.7393C163.378 36.2803 162.67 36.0508 161.742 36.0508C160.883 36.0508 160.194 36.2363 159.677 36.6074C159.159 36.9688 158.837 37.4375 158.71 38.0137L158.681 38.1455H155.312L155.326 37.9697C155.404 37.0518 155.712 36.2314 156.249 35.5088C156.786 34.7764 157.528 34.2002 158.476 33.7803C159.433 33.3604 160.565 33.1504 161.874 33.1504C163.173 33.1504 164.296 33.3652 165.243 33.7949C166.2 34.2246 166.938 34.8252 167.455 35.5967C167.982 36.3682 168.246 37.2764 168.246 38.3213V49H164.613V46.6123H164.525C164.232 47.1494 163.852 47.6182 163.383 48.0186C162.914 48.4189 162.377 48.7266 161.771 48.9414C161.176 49.1562 160.536 49.2637 159.853 49.2637ZM171.205 49V33.4727H174.838V36.1533H174.926C175.16 35.2158 175.585 34.4834 176.2 33.9561C176.825 33.4189 177.587 33.1504 178.485 33.1504C178.71 33.1504 178.925 33.165 179.13 33.1943C179.335 33.2236 179.506 33.2578 179.643 33.2969V36.5928C179.496 36.5342 179.286 36.4854 179.013 36.4463C178.749 36.4072 178.461 36.3877 178.148 36.3877C177.465 36.3877 176.874 36.5293 176.376 36.8125C175.878 37.0859 175.497 37.4912 175.233 38.0283C174.97 38.5654 174.838 39.2197 174.838 39.9912V49H171.205ZM186.703 49.3076C185.395 49.3076 184.257 48.9854 183.29 48.3408C182.333 47.6865 181.591 46.7539 181.063 45.543C180.546 44.332 180.287 42.8965 180.287 41.2363V41.2217C180.287 39.5518 180.551 38.1162 181.078 36.915C181.605 35.7041 182.348 34.7764 183.305 34.1318C184.262 33.4775 185.39 33.1504 186.688 33.1504C187.431 33.1504 188.109 33.2725 188.725 33.5166C189.35 33.751 189.901 34.0928 190.38 34.542C190.858 34.9814 191.244 35.5137 191.537 36.1387H191.625V27.8623H195.258V49H191.625V46.3633H191.537C191.254 46.9785 190.873 47.5059 190.395 47.9453C189.926 48.375 189.379 48.7119 188.754 48.9561C188.139 49.1904 187.455 49.3076 186.703 49.3076ZM187.802 46.2461C188.554 46.2461 189.218 46.041 189.794 45.6309C190.37 45.2207 190.819 44.6396 191.142 43.8877C191.464 43.1357 191.625 42.252 191.625 41.2363V41.2217C191.625 40.2061 191.459 39.3271 191.127 38.585C190.805 37.833 190.355 37.252 189.779 36.8418C189.213 36.4316 188.554 36.2266 187.802 36.2266C187.021 36.2266 186.342 36.4316 185.766 36.8418C185.199 37.2422 184.76 37.8135 184.447 38.5557C184.145 39.2979 183.993 40.1865 183.993 41.2217V41.2363C183.993 42.2617 184.145 43.1504 184.447 43.9023C184.76 44.6543 185.199 45.2354 185.766 45.6455C186.342 46.0459 187.021 46.2461 187.802 46.2461Z" fill="#006341"/>
<path d="M61.5469 185V172.317H66.6621C67.5703 172.317 68.3496 172.479 69 172.801C69.6504 173.123 70.1484 173.577 70.4941 174.163C70.8457 174.749 71.0215 175.446 71.0215 176.255V176.272C71.0215 177.11 70.8105 177.854 70.3887 178.505C69.9668 179.149 69.3809 179.609 68.6309 179.885L71.3994 185H68.8154L66.3281 180.228C66.3105 180.228 66.29 180.228 66.2666 180.228C66.249 180.228 66.2314 180.228 66.2139 180.228H63.8057V185H61.5469ZM63.8057 178.479H66.4336C67.1484 178.479 67.7051 178.291 68.1035 177.916C68.502 177.535 68.7012 177.005 68.7012 176.325V176.308C68.7012 175.64 68.4932 175.112 68.0771 174.726C67.667 174.339 67.1016 174.146 66.3809 174.146H63.8057V178.479ZM77.3232 185.193C76.374 185.193 75.5566 184.991 74.8711 184.587C74.1914 184.183 73.667 183.611 73.2979 182.873C72.9287 182.129 72.7441 181.247 72.7441 180.228V180.219C72.7441 179.211 72.9258 178.335 73.2891 177.591C73.6582 176.841 74.1797 176.258 74.8535 175.842C75.5273 175.426 76.3184 175.218 77.2266 175.218C78.1348 175.218 78.917 175.42 79.5732 175.824C80.2354 176.223 80.7451 176.782 81.1025 177.503C81.46 178.224 81.6387 179.067 81.6387 180.034V180.755H73.8428V179.287H80.5664L79.5293 180.658V179.788C79.5293 179.149 79.4326 178.619 79.2393 178.197C79.0459 177.775 78.7764 177.459 78.4307 177.248C78.0908 177.037 77.6982 176.932 77.2529 176.932C76.8018 176.932 76.4004 177.043 76.0488 177.266C75.7031 177.482 75.4277 177.805 75.2227 178.232C75.0234 178.654 74.9238 179.173 74.9238 179.788V180.667C74.9238 181.253 75.0234 181.757 75.2227 182.179C75.4219 182.601 75.7031 182.923 76.0664 183.146C76.4355 183.368 76.8721 183.479 77.376 183.479C77.7686 183.479 78.1055 183.424 78.3867 183.312C78.668 183.195 78.8965 183.058 79.0723 182.899C79.2539 182.735 79.377 182.577 79.4414 182.425L79.4678 182.363H81.542L81.5244 182.451C81.4482 182.762 81.3076 183.078 81.1025 183.4C80.9033 183.717 80.6309 184.013 80.2852 184.288C79.9453 184.558 79.5293 184.777 79.0371 184.947C78.5449 185.111 77.9736 185.193 77.3232 185.193ZM87.9141 185.193C86.9531 185.193 86.1299 184.994 85.4443 184.596C84.7646 184.197 84.2402 183.626 83.8711 182.882C83.5078 182.132 83.3262 181.232 83.3262 180.184V180.166C83.3262 179.135 83.5078 178.25 83.8711 177.512C84.2344 176.773 84.7588 176.208 85.4443 175.815C86.1299 175.417 86.9531 175.218 87.9141 175.218C88.7344 175.218 89.4404 175.361 90.0322 175.648C90.6299 175.936 91.1016 176.331 91.4473 176.835C91.7988 177.339 92.0156 177.919 92.0977 178.575V178.619H90.0322L90.0234 178.593C89.9238 178.124 89.6953 177.74 89.3379 177.441C88.9863 177.143 88.5146 176.993 87.9229 176.993C87.4248 176.993 86.9971 177.119 86.6396 177.371C86.2881 177.617 86.0186 177.978 85.8311 178.452C85.6436 178.927 85.5498 179.501 85.5498 180.175V180.192C85.5498 180.866 85.6436 181.446 85.8311 181.933C86.0244 182.413 86.2969 182.782 86.6484 183.04C87 183.292 87.4248 183.418 87.9229 183.418C88.4912 183.418 88.9482 183.289 89.2939 183.031C89.6396 182.773 89.8799 182.393 90.0146 181.889L90.0322 181.854L92.0889 181.845L92.0801 181.915C91.9805 182.565 91.7549 183.137 91.4033 183.629C91.0576 184.121 90.5918 184.505 90.0059 184.78C89.4258 185.056 88.7285 185.193 87.9141 185.193ZM98.2588 185.193C97.3096 185.193 96.4922 184.991 95.8066 184.587C95.127 184.183 94.6025 183.611 94.2334 182.873C93.8643 182.129 93.6797 181.247 93.6797 180.228V180.219C93.6797 179.211 93.8613 178.335 94.2246 177.591C94.5938 176.841 95.1152 176.258 95.7891 175.842C96.4629 175.426 97.2539 175.218 98.1621 175.218C99.0703 175.218 99.8525 175.42 100.509 175.824C101.171 176.223 101.681 176.782 102.038 177.503C102.396 178.224 102.574 179.067 102.574 180.034V180.755H94.7783V179.287H101.502L100.465 180.658V179.788C100.465 179.149 100.368 178.619 100.175 178.197C99.9814 177.775 99.7119 177.459 99.3662 177.248C99.0264 177.037 98.6338 176.932 98.1885 176.932C97.7373 176.932 97.3359 177.043 96.9844 177.266C96.6387 177.482 96.3633 177.805 96.1582 178.232C95.959 178.654 95.8594 179.173 95.8594 179.788V180.667C95.8594 181.253 95.959 181.757 96.1582 182.179C96.3574 182.601 96.6387 182.923 97.002 183.146C97.3711 183.368 97.8076 183.479 98.3115 183.479C98.7041 183.479 99.041 183.424 99.3223 183.312C99.6035 183.195 99.832 183.058 100.008 182.899C100.189 182.735 100.312 182.577 100.377 182.425L100.403 182.363H102.478L102.46 182.451C102.384 182.762 102.243 183.078 102.038 183.4C101.839 183.717 101.566 184.013 101.221 184.288C100.881 184.558 100.465 184.777 99.9727 184.947C99.4805 185.111 98.9092 185.193 98.2588 185.193ZM104.763 185V175.411H106.942V185H104.763ZM105.861 173.812C105.504 173.812 105.196 173.686 104.938 173.434C104.687 173.182 104.561 172.88 104.561 172.528C104.561 172.171 104.687 171.866 104.938 171.614C105.196 171.362 105.504 171.236 105.861 171.236C106.219 171.236 106.523 171.362 106.775 171.614C107.027 171.866 107.153 172.171 107.153 172.528C107.153 172.88 107.027 173.182 106.775 173.434C106.523 173.686 106.219 173.812 105.861 173.812ZM113.367 185.053C112.271 185.053 111.48 184.851 110.994 184.446C110.508 184.042 110.265 183.377 110.265 182.451V177.099H108.779V175.411H110.265V173.047H112.488V175.411H114.501V177.099H112.488V181.95C112.488 182.425 112.588 182.771 112.787 182.987C112.992 183.204 113.32 183.312 113.771 183.312C113.924 183.312 114.05 183.31 114.149 183.304C114.255 183.292 114.372 183.28 114.501 183.269V184.956C114.349 184.979 114.173 185 113.974 185.018C113.78 185.041 113.578 185.053 113.367 185.053ZM119.282 185.158C118.673 185.158 118.131 185.041 117.656 184.807C117.182 184.572 116.807 184.241 116.531 183.813C116.262 183.38 116.127 182.873 116.127 182.293V182.275C116.127 181.701 116.268 181.209 116.549 180.799C116.83 180.389 117.24 180.066 117.779 179.832C118.324 179.598 118.986 179.457 119.766 179.41L123.316 179.199V180.641L120.073 180.852C119.464 180.887 119.013 181.016 118.72 181.238C118.427 181.461 118.28 181.769 118.28 182.161V182.179C118.28 182.589 118.436 182.908 118.746 183.137C119.057 183.365 119.455 183.479 119.941 183.479C120.381 183.479 120.773 183.392 121.119 183.216C121.465 183.04 121.737 182.803 121.937 182.504C122.136 182.199 122.235 181.856 122.235 181.476V178.452C122.235 177.972 122.083 177.603 121.778 177.345C121.474 177.087 121.025 176.958 120.434 176.958C119.93 176.958 119.52 177.046 119.203 177.222C118.887 177.397 118.673 177.644 118.562 177.96L118.553 177.995H116.487L116.496 177.925C116.572 177.38 116.783 176.905 117.129 176.501C117.48 176.097 117.946 175.783 118.526 175.561C119.106 175.332 119.777 175.218 120.539 175.218C121.359 175.218 122.057 175.347 122.631 175.604C123.211 175.862 123.65 176.231 123.949 176.712C124.248 177.192 124.397 177.77 124.397 178.443V185H122.235V183.673H122.086C121.91 183.983 121.682 184.25 121.4 184.473C121.125 184.695 120.809 184.865 120.451 184.982C120.094 185.1 119.704 185.158 119.282 185.158Z" fill="#1F1F1F"/>
<path d="M329.992 185L325.606 172.317H328.103L331.24 182.39H331.39L334.536 172.317H337.032L332.638 185H329.992ZM342.095 185.193C341.14 185.193 340.316 184.994 339.625 184.596C338.939 184.191 338.409 183.617 338.034 182.873C337.665 182.129 337.48 181.241 337.48 180.21V180.192C337.48 179.167 337.668 178.282 338.043 177.538C338.418 176.794 338.948 176.223 339.634 175.824C340.325 175.42 341.146 175.218 342.095 175.218C343.05 175.218 343.87 175.417 344.556 175.815C345.247 176.214 345.78 176.785 346.155 177.529C346.53 178.273 346.718 179.161 346.718 180.192V180.21C346.718 181.241 346.53 182.129 346.155 182.873C345.786 183.617 345.256 184.191 344.564 184.596C343.879 184.994 343.056 185.193 342.095 185.193ZM342.095 183.418C342.604 183.418 343.035 183.292 343.387 183.04C343.738 182.782 344.008 182.416 344.195 181.941C344.383 181.461 344.477 180.884 344.477 180.21V180.192C344.477 179.519 344.383 178.944 344.195 178.47C344.008 177.989 343.735 177.623 343.378 177.371C343.026 177.119 342.599 176.993 342.095 176.993C341.591 176.993 341.163 177.119 340.812 177.371C340.46 177.623 340.188 177.989 339.994 178.47C339.807 178.944 339.713 179.519 339.713 180.192V180.21C339.713 180.89 339.807 181.47 339.994 181.95C340.182 182.425 340.451 182.788 340.803 183.04C341.16 183.292 341.591 183.418 342.095 183.418ZM348.968 185V171.702H351.156V185H348.968ZM357.062 185.193C356.348 185.193 355.747 185.056 355.261 184.78C354.774 184.499 354.408 184.092 354.162 183.559C353.916 183.02 353.793 182.372 353.793 181.616V175.411H355.981V181.115C355.981 181.854 356.128 182.41 356.421 182.785C356.714 183.16 357.191 183.348 357.854 183.348C358.205 183.348 358.516 183.295 358.785 183.189C359.055 183.078 359.28 182.92 359.462 182.715C359.649 182.51 359.787 182.264 359.875 181.977C359.969 181.684 360.016 181.358 360.016 181.001V175.411H362.204V185H360.016V183.541H359.875C359.729 183.881 359.523 184.177 359.26 184.429C358.996 184.675 358.68 184.865 358.311 185C357.941 185.129 357.525 185.193 357.062 185.193ZM364.85 185V175.411H367.029V176.896H367.179C367.384 176.363 367.715 175.95 368.172 175.657C368.635 175.364 369.183 175.218 369.815 175.218C370.249 175.218 370.639 175.288 370.984 175.429C371.336 175.569 371.638 175.771 371.89 176.035C372.142 176.293 372.335 176.604 372.47 176.967H372.619C372.771 176.615 372.991 176.308 373.278 176.044C373.565 175.78 373.899 175.578 374.28 175.438C374.667 175.291 375.083 175.218 375.528 175.218C376.173 175.218 376.724 175.347 377.181 175.604C377.644 175.856 377.998 176.22 378.244 176.694C378.49 177.169 378.613 177.737 378.613 178.399V185H376.434V178.936C376.434 178.52 376.369 178.174 376.24 177.898C376.111 177.617 375.918 177.409 375.66 177.274C375.402 177.134 375.08 177.063 374.693 177.063C374.312 177.063 373.981 177.148 373.7 177.318C373.419 177.488 373.199 177.72 373.041 178.013C372.889 178.306 372.812 178.64 372.812 179.015V185H370.633V178.777C370.633 178.42 370.562 178.115 370.422 177.863C370.287 177.605 370.088 177.409 369.824 177.274C369.566 177.134 369.259 177.063 368.901 177.063C368.544 177.063 368.222 177.154 367.935 177.336C367.653 177.518 367.431 177.77 367.267 178.092C367.108 178.408 367.029 178.763 367.029 179.155V185H364.85ZM385.267 185.193C384.317 185.193 383.5 184.991 382.814 184.587C382.135 184.183 381.61 183.611 381.241 182.873C380.872 182.129 380.688 181.247 380.688 180.228V180.219C380.688 179.211 380.869 178.335 381.232 177.591C381.602 176.841 382.123 176.258 382.797 175.842C383.471 175.426 384.262 175.218 385.17 175.218C386.078 175.218 386.86 175.42 387.517 175.824C388.179 176.223 388.688 176.782 389.046 177.503C389.403 178.224 389.582 179.067 389.582 180.034V180.755H381.786V179.287H388.51L387.473 180.658V179.788C387.473 179.149 387.376 178.619 387.183 178.197C386.989 177.775 386.72 177.459 386.374 177.248C386.034 177.037 385.642 176.932 385.196 176.932C384.745 176.932 384.344 177.043 383.992 177.266C383.646 177.482 383.371 177.805 383.166 178.232C382.967 178.654 382.867 179.173 382.867 179.788V180.667C382.867 181.253 382.967 181.757 383.166 182.179C383.365 182.601 383.646 182.923 384.01 183.146C384.379 183.368 384.815 183.479 385.319 183.479C385.712 183.479 386.049 183.424 386.33 183.312C386.611 183.195 386.84 183.058 387.016 182.899C387.197 182.735 387.32 182.577 387.385 182.425L387.411 182.363H389.485L389.468 182.451C389.392 182.762 389.251 183.078 389.046 183.4C388.847 183.717 388.574 184.013 388.229 184.288C387.889 184.558 387.473 184.777 386.98 184.947C386.488 185.111 385.917 185.193 385.267 185.193Z" fill="#1F1F1F"/>
<path d="M592.681 180.808V178.979H596.047C596.861 178.979 597.494 178.771 597.945 178.355C598.396 177.934 598.622 177.342 598.622 176.58V176.562C598.622 175.795 598.396 175.203 597.945 174.787C597.494 174.371 596.861 174.163 596.047 174.163H592.681V172.317H596.601C597.456 172.317 598.206 172.493 598.851 172.845C599.501 173.196 600.008 173.691 600.371 174.33C600.734 174.963 600.916 175.704 600.916 176.554V176.571C600.916 177.415 600.734 178.156 600.371 178.795C600.008 179.428 599.501 179.923 598.851 180.28C598.206 180.632 597.456 180.808 596.601 180.808H592.681ZM591.547 185V172.317H593.806V185H591.547ZM603.148 185V175.411H605.328V176.888H605.478C605.642 176.366 605.935 175.965 606.356 175.684C606.784 175.396 607.312 175.253 607.938 175.253C608.103 175.253 608.261 175.262 608.413 175.279C608.571 175.297 608.706 175.32 608.817 175.35V177.31C608.642 177.269 608.463 177.239 608.281 177.222C608.105 177.198 607.924 177.187 607.736 177.187C607.25 177.187 606.825 177.277 606.462 177.459C606.104 177.641 605.826 177.898 605.627 178.232C605.428 178.566 605.328 178.965 605.328 179.428V185H603.148ZM614.425 185.193C613.476 185.193 612.658 184.991 611.973 184.587C611.293 184.183 610.769 183.611 610.399 182.873C610.03 182.129 609.846 181.247 609.846 180.228V180.219C609.846 179.211 610.027 178.335 610.391 177.591C610.76 176.841 611.281 176.258 611.955 175.842C612.629 175.426 613.42 175.218 614.328 175.218C615.236 175.218 616.019 175.42 616.675 175.824C617.337 176.223 617.847 176.782 618.204 177.503C618.562 178.224 618.74 179.067 618.74 180.034V180.755H610.944V179.287H617.668L616.631 180.658V179.788C616.631 179.149 616.534 178.619 616.341 178.197C616.147 177.775 615.878 177.459 615.532 177.248C615.192 177.037 614.8 176.932 614.354 176.932C613.903 176.932 613.502 177.043 613.15 177.266C612.805 177.482 612.529 177.805 612.324 178.232C612.125 178.654 612.025 179.173 612.025 179.788V180.667C612.025 181.253 612.125 181.757 612.324 182.179C612.523 182.601 612.805 182.923 613.168 183.146C613.537 183.368 613.974 183.479 614.478 183.479C614.87 183.479 615.207 183.424 615.488 183.312C615.77 183.195 615.998 183.058 616.174 182.899C616.355 182.735 616.479 182.577 616.543 182.425L616.569 182.363H618.644L618.626 182.451C618.55 182.762 618.409 183.078 618.204 183.4C618.005 183.717 617.732 184.013 617.387 184.288C617.047 184.558 616.631 184.777 616.139 184.947C615.646 185.111 615.075 185.193 614.425 185.193ZM625.016 185.193C624.055 185.193 623.231 184.994 622.546 184.596C621.866 184.197 621.342 183.626 620.973 182.882C620.609 182.132 620.428 181.232 620.428 180.184V180.166C620.428 179.135 620.609 178.25 620.973 177.512C621.336 176.773 621.86 176.208 622.546 175.815C623.231 175.417 624.055 175.218 625.016 175.218C625.836 175.218 626.542 175.361 627.134 175.648C627.731 175.936 628.203 176.331 628.549 176.835C628.9 177.339 629.117 177.919 629.199 178.575V178.619H627.134L627.125 178.593C627.025 178.124 626.797 177.74 626.439 177.441C626.088 177.143 625.616 176.993 625.024 176.993C624.526 176.993 624.099 177.119 623.741 177.371C623.39 177.617 623.12 177.978 622.933 178.452C622.745 178.927 622.651 179.501 622.651 180.175V180.192C622.651 180.866 622.745 181.446 622.933 181.933C623.126 182.413 623.398 182.782 623.75 183.04C624.102 183.292 624.526 183.418 625.024 183.418C625.593 183.418 626.05 183.289 626.396 183.031C626.741 182.773 626.981 182.393 627.116 181.889L627.134 181.854L629.19 181.845L629.182 181.915C629.082 182.565 628.856 183.137 628.505 183.629C628.159 184.121 627.693 184.505 627.107 184.78C626.527 185.056 625.83 185.193 625.016 185.193ZM624.62 189.333C624.374 189.333 624.131 189.318 623.891 189.289C623.65 189.26 623.431 189.222 623.231 189.175V188.041C623.308 188.059 623.442 188.082 623.636 188.111C623.829 188.141 624.046 188.155 624.286 188.155C624.544 188.155 624.784 188.111 625.007 188.023C625.229 187.936 625.341 187.774 625.341 187.54V187.522C625.341 187.271 625.235 187.098 625.024 187.004C624.819 186.91 624.512 186.863 624.102 186.863H623.768V186.028L624.629 184.78H625.947V185L625.358 185.835C625.909 185.853 626.354 186.008 626.694 186.301C627.04 186.594 627.213 186.983 627.213 187.47V187.487C627.213 187.909 627.096 188.255 626.861 188.524C626.633 188.8 626.322 189.002 625.93 189.131C625.537 189.266 625.101 189.333 624.62 189.333ZM635.396 185.193C634.44 185.193 633.617 184.994 632.926 184.596C632.24 184.191 631.71 183.617 631.335 182.873C630.966 182.129 630.781 181.241 630.781 180.21V180.192C630.781 179.167 630.969 178.282 631.344 177.538C631.719 176.794 632.249 176.223 632.935 175.824C633.626 175.42 634.446 175.218 635.396 175.218C636.351 175.218 637.171 175.417 637.856 175.815C638.548 176.214 639.081 176.785 639.456 177.529C639.831 178.273 640.019 179.161 640.019 180.192V180.21C640.019 181.241 639.831 182.129 639.456 182.873C639.087 183.617 638.557 184.191 637.865 184.596C637.18 184.994 636.356 185.193 635.396 185.193ZM635.396 183.418C635.905 183.418 636.336 183.292 636.688 183.04C637.039 182.782 637.309 182.416 637.496 181.941C637.684 181.461 637.777 180.884 637.777 180.21V180.192C637.777 179.519 637.684 178.944 637.496 178.47C637.309 177.989 637.036 177.623 636.679 177.371C636.327 177.119 635.899 176.993 635.396 176.993C634.892 176.993 634.464 177.119 634.112 177.371C633.761 177.623 633.488 177.989 633.295 178.47C633.107 178.944 633.014 179.519 633.014 180.192V180.21C633.014 180.89 633.107 181.47 633.295 181.95C633.482 182.425 633.752 182.788 634.104 183.04C634.461 183.292 634.892 183.418 635.396 183.418ZM647.164 185V172.317H649.766L653.58 182.073H653.729L657.535 172.317H660.137V185H658.098V175.982H656.99L659.249 172.669L654.424 185H652.877L648.061 172.669L650.311 175.982H649.203V185H647.164ZM667.106 185.193C666.157 185.193 665.34 184.991 664.654 184.587C663.975 184.183 663.45 183.611 663.081 182.873C662.712 182.129 662.527 181.247 662.527 180.228V180.219C662.527 179.211 662.709 178.335 663.072 177.591C663.441 176.841 663.963 176.258 664.637 175.842C665.311 175.426 666.102 175.218 667.01 175.218C667.918 175.218 668.7 175.42 669.356 175.824C670.019 176.223 670.528 176.782 670.886 177.503C671.243 178.224 671.422 179.067 671.422 180.034V180.755H663.626V179.287H670.35L669.312 180.658V179.788C669.312 179.149 669.216 178.619 669.022 178.197C668.829 177.775 668.56 177.459 668.214 177.248C667.874 177.037 667.481 176.932 667.036 176.932C666.585 176.932 666.184 177.043 665.832 177.266C665.486 177.482 665.211 177.805 665.006 178.232C664.807 178.654 664.707 179.173 664.707 179.788V180.667C664.707 181.253 664.807 181.757 665.006 182.179C665.205 182.601 665.486 182.923 665.85 183.146C666.219 183.368 666.655 183.479 667.159 183.479C667.552 183.479 667.889 183.424 668.17 183.312C668.451 183.195 668.68 183.058 668.855 182.899C669.037 182.735 669.16 182.577 669.225 182.425L669.251 182.363H671.325L671.308 182.451C671.231 182.762 671.091 183.078 670.886 183.4C670.687 183.717 670.414 184.013 670.068 184.288C669.729 184.558 669.312 184.777 668.82 184.947C668.328 185.111 667.757 185.193 667.106 185.193ZM667.73 174.11H666.104L667.643 171.069H669.831L667.73 174.11ZM677.047 185.158C676.25 185.158 675.556 184.959 674.964 184.561C674.372 184.156 673.915 183.585 673.593 182.847C673.271 182.103 673.109 181.224 673.109 180.21V180.192C673.109 179.179 673.268 178.303 673.584 177.564C673.906 176.82 674.36 176.249 674.946 175.851C675.538 175.452 676.238 175.253 677.047 175.253C677.486 175.253 677.896 175.323 678.277 175.464C678.658 175.599 678.992 175.792 679.279 176.044C679.572 176.29 679.801 176.589 679.965 176.94H680.114V171.702H682.294V185H680.114V183.497H679.965C679.789 183.843 679.558 184.142 679.271 184.394C678.989 184.64 678.661 184.83 678.286 184.965C677.911 185.094 677.498 185.158 677.047 185.158ZM677.732 183.312C678.225 183.312 678.649 183.189 679.007 182.943C679.37 182.691 679.648 182.334 679.842 181.871C680.041 181.408 680.141 180.857 680.141 180.219V180.201C680.141 179.557 680.041 179.003 679.842 178.54C679.648 178.077 679.37 177.72 679.007 177.468C678.649 177.216 678.225 177.09 677.732 177.09C677.234 177.09 676.807 177.216 676.449 177.468C676.092 177.72 675.816 178.077 675.623 178.54C675.43 178.997 675.333 179.548 675.333 180.192V180.21C675.333 180.854 675.43 181.411 675.623 181.88C675.816 182.343 676.092 182.697 676.449 182.943C676.807 183.189 677.234 183.312 677.732 183.312ZM685.054 185V175.411H687.233V185H685.054ZM686.152 173.812C685.795 173.812 685.487 173.686 685.229 173.434C684.978 173.182 684.852 172.88 684.852 172.528C684.852 172.171 684.978 171.866 685.229 171.614C685.487 171.362 685.795 171.236 686.152 171.236C686.51 171.236 686.814 171.362 687.066 171.614C687.318 171.866 687.444 172.171 687.444 172.528C687.444 172.88 687.318 173.182 687.066 173.434C686.814 173.686 686.51 173.812 686.152 173.812ZM694.036 185.193C693.081 185.193 692.258 184.994 691.566 184.596C690.881 184.191 690.351 183.617 689.976 182.873C689.606 182.129 689.422 181.241 689.422 180.21V180.192C689.422 179.167 689.609 178.282 689.984 177.538C690.359 176.794 690.89 176.223 691.575 175.824C692.267 175.42 693.087 175.218 694.036 175.218C694.991 175.218 695.812 175.417 696.497 175.815C697.188 176.214 697.722 176.785 698.097 177.529C698.472 178.273 698.659 179.161 698.659 180.192V180.21C698.659 181.241 698.472 182.129 698.097 182.873C697.728 183.617 697.197 184.191 696.506 184.596C695.82 184.994 694.997 185.193 694.036 185.193ZM694.036 183.418C694.546 183.418 694.977 183.292 695.328 183.04C695.68 182.782 695.949 182.416 696.137 181.941C696.324 181.461 696.418 180.884 696.418 180.21V180.192C696.418 179.519 696.324 178.944 696.137 178.47C695.949 177.989 695.677 177.623 695.319 177.371C694.968 177.119 694.54 176.993 694.036 176.993C693.532 176.993 693.104 177.119 692.753 177.371C692.401 177.623 692.129 177.989 691.936 178.47C691.748 178.944 691.654 179.519 691.654 180.192V180.21C691.654 180.89 691.748 181.47 691.936 181.95C692.123 182.425 692.393 182.788 692.744 183.04C693.102 183.292 693.532 183.418 694.036 183.418Z" fill="#1F1F1F"/>
<path d="M856.547 185V172.317H861.662C862.57 172.317 863.35 172.479 864 172.801C864.65 173.123 865.148 173.577 865.494 174.163C865.846 174.749 866.021 175.446 866.021 176.255V176.272C866.021 177.11 865.811 177.854 865.389 178.505C864.967 179.149 864.381 179.609 863.631 179.885L866.399 185H863.815L861.328 180.228C861.311 180.228 861.29 180.228 861.267 180.228C861.249 180.228 861.231 180.228 861.214 180.228H858.806V185H856.547ZM858.806 178.479H861.434C862.148 178.479 862.705 178.291 863.104 177.916C863.502 177.535 863.701 177.005 863.701 176.325V176.308C863.701 175.64 863.493 175.112 863.077 174.726C862.667 174.339 862.102 174.146 861.381 174.146H858.806V178.479ZM871.093 185.158C870.483 185.158 869.941 185.041 869.467 184.807C868.992 184.572 868.617 184.241 868.342 183.813C868.072 183.38 867.938 182.873 867.938 182.293V182.275C867.938 181.701 868.078 181.209 868.359 180.799C868.641 180.389 869.051 180.066 869.59 179.832C870.135 179.598 870.797 179.457 871.576 179.41L875.127 179.199V180.641L871.884 180.852C871.274 180.887 870.823 181.016 870.53 181.238C870.237 181.461 870.091 181.769 870.091 182.161V182.179C870.091 182.589 870.246 182.908 870.557 183.137C870.867 183.365 871.266 183.479 871.752 183.479C872.191 183.479 872.584 183.392 872.93 183.216C873.275 183.04 873.548 182.803 873.747 182.504C873.946 182.199 874.046 181.856 874.046 181.476V178.452C874.046 177.972 873.894 177.603 873.589 177.345C873.284 177.087 872.836 176.958 872.244 176.958C871.74 176.958 871.33 177.046 871.014 177.222C870.697 177.397 870.483 177.644 870.372 177.96L870.363 177.995H868.298L868.307 177.925C868.383 177.38 868.594 176.905 868.939 176.501C869.291 176.097 869.757 175.783 870.337 175.561C870.917 175.332 871.588 175.218 872.35 175.218C873.17 175.218 873.867 175.347 874.441 175.604C875.021 175.862 875.461 176.231 875.76 176.712C876.059 177.192 876.208 177.77 876.208 178.443V185H874.046V183.673H873.896C873.721 183.983 873.492 184.25 873.211 184.473C872.936 184.695 872.619 184.865 872.262 184.982C871.904 185.1 871.515 185.158 871.093 185.158ZM878.801 185V175.411H880.98V176.879H881.13C881.358 176.363 881.704 175.959 882.167 175.666C882.63 175.367 883.21 175.218 883.907 175.218C884.979 175.218 885.797 175.528 886.359 176.149C886.928 176.771 887.212 177.652 887.212 178.795V185H885.023V179.296C885.023 178.552 884.865 177.995 884.549 177.626C884.238 177.251 883.755 177.063 883.099 177.063C882.659 177.063 882.281 177.16 881.965 177.354C881.654 177.547 881.411 177.819 881.235 178.171C881.065 178.517 880.98 178.93 880.98 179.41V185H878.801ZM889.857 185V171.702H892.037V185H889.857ZM895.887 185L892.661 180.649L894.27 179.305L898.515 185H895.887ZM891.853 181.827L891.773 179.349H892.187L895.729 175.411H898.26L894.076 179.806L893.101 180.553L891.853 181.827ZM900.185 185V175.411H902.364V185H900.185ZM901.283 173.812C900.926 173.812 900.618 173.686 900.36 173.434C900.108 173.182 899.982 172.88 899.982 172.528C899.982 172.171 900.108 171.866 900.36 171.614C900.618 171.362 900.926 171.236 901.283 171.236C901.641 171.236 901.945 171.362 902.197 171.614C902.449 171.866 902.575 172.171 902.575 172.528C902.575 172.88 902.449 173.182 902.197 173.434C901.945 173.686 901.641 173.812 901.283 173.812ZM905.027 185V175.411H907.207V176.879H907.356C907.585 176.363 907.931 175.959 908.394 175.666C908.856 175.367 909.437 175.218 910.134 175.218C911.206 175.218 912.023 175.528 912.586 176.149C913.154 176.771 913.438 177.652 913.438 178.795V185H911.25V179.296C911.25 178.552 911.092 177.995 910.775 177.626C910.465 177.251 909.981 177.063 909.325 177.063C908.886 177.063 908.508 177.16 908.191 177.354C907.881 177.547 907.638 177.819 907.462 178.171C907.292 178.517 907.207 178.93 907.207 179.41V185H905.027ZM920.127 188.375C919.283 188.375 918.554 188.261 917.938 188.032C917.329 187.81 916.849 187.493 916.497 187.083C916.146 186.679 915.932 186.21 915.855 185.677L915.864 185.65H918.044L918.053 185.677C918.135 185.981 918.354 186.23 918.712 186.424C919.069 186.623 919.553 186.723 920.162 186.723C920.906 186.723 921.483 186.553 921.894 186.213C922.31 185.879 922.518 185.407 922.518 184.798V182.97H922.377C922.189 183.315 921.952 183.608 921.665 183.849C921.378 184.089 921.047 184.271 920.672 184.394C920.297 184.511 919.89 184.569 919.45 184.569C918.642 184.569 917.941 184.376 917.35 183.989C916.758 183.597 916.301 183.055 915.979 182.363C915.662 181.672 915.504 180.872 915.504 179.964V179.946C915.504 179.021 915.665 178.206 915.987 177.503C916.31 176.794 916.767 176.243 917.358 175.851C917.956 175.452 918.665 175.253 919.485 175.253C919.931 175.253 920.341 175.323 920.716 175.464C921.091 175.604 921.419 175.804 921.7 176.062C921.987 176.319 922.219 176.627 922.395 176.984H922.509V175.411H924.697V184.763C924.697 185.495 924.51 186.131 924.135 186.67C923.766 187.215 923.238 187.634 922.553 187.927C921.873 188.226 921.064 188.375 920.127 188.375ZM920.127 182.829C920.631 182.829 921.062 182.709 921.419 182.469C921.782 182.229 922.061 181.895 922.254 181.467C922.453 181.033 922.553 180.532 922.553 179.964V179.946C922.553 179.378 922.453 178.877 922.254 178.443C922.061 178.01 921.782 177.673 921.419 177.433C921.062 177.187 920.631 177.063 920.127 177.063C919.617 177.063 919.187 177.187 918.835 177.433C918.483 177.673 918.214 178.01 918.026 178.443C917.839 178.877 917.745 179.378 917.745 179.946V179.964C917.745 180.526 917.839 181.024 918.026 181.458C918.214 181.892 918.483 182.229 918.835 182.469C919.187 182.709 919.617 182.829 920.127 182.829Z" fill="#1F1F1F"/>
<path d="M67.8379 374.308C66.6426 374.308 65.6084 374.041 64.7354 373.508C63.8623 372.969 63.1885 372.204 62.7139 371.214C62.2451 370.218 62.0107 369.037 62.0107 367.672V367.654C62.0107 366.283 62.2451 365.103 62.7139 364.112C63.1885 363.116 63.8594 362.352 64.7266 361.818C65.5996 361.279 66.6367 361.01 67.8379 361.01C68.7988 361.01 69.666 361.197 70.4395 361.572C71.2129 361.947 71.8428 362.469 72.3291 363.137C72.8154 363.799 73.1084 364.561 73.208 365.422V365.501H70.9844L70.9756 365.448C70.8701 364.95 70.6709 364.517 70.3779 364.147C70.085 363.772 69.7217 363.482 69.2881 363.277C68.8545 363.072 68.3711 362.97 67.8379 362.97C67.1172 362.97 66.4932 363.16 65.9658 363.541C65.4443 363.916 65.04 364.455 64.7529 365.158C64.4717 365.855 64.3311 366.685 64.3311 367.646V367.663C64.3311 368.624 64.4717 369.456 64.7529 370.159C65.04 370.856 65.4443 371.396 65.9658 371.776C66.4932 372.157 67.1201 372.348 67.8467 372.348C68.3857 372.348 68.8691 372.257 69.2969 372.075C69.7305 371.888 70.0908 371.621 70.3779 371.275C70.665 370.93 70.8643 370.522 70.9756 370.054L70.9932 370.001H73.2168L73.208 370.071C73.0967 370.921 72.8008 371.662 72.3203 372.295C71.8398 372.928 71.2158 373.423 70.4482 373.78C69.6865 374.132 68.8164 374.308 67.8379 374.308ZM79.6064 374.193C78.6514 374.193 77.8281 373.994 77.1367 373.596C76.4512 373.191 75.9209 372.617 75.5459 371.873C75.1768 371.129 74.9922 370.241 74.9922 369.21V369.192C74.9922 368.167 75.1797 367.282 75.5547 366.538C75.9297 365.794 76.46 365.223 77.1455 364.824C77.8369 364.42 78.6572 364.218 79.6064 364.218C80.5615 364.218 81.3818 364.417 82.0674 364.815C82.7588 365.214 83.292 365.785 83.667 366.529C84.042 367.273 84.2295 368.161 84.2295 369.192V369.21C84.2295 370.241 84.042 371.129 83.667 371.873C83.2979 372.617 82.7676 373.191 82.0762 373.596C81.3906 373.994 80.5674 374.193 79.6064 374.193ZM79.6064 372.418C80.1162 372.418 80.5469 372.292 80.8984 372.04C81.25 371.782 81.5195 371.416 81.707 370.941C81.8945 370.461 81.9883 369.884 81.9883 369.21V369.192C81.9883 368.519 81.8945 367.944 81.707 367.47C81.5195 366.989 81.2471 366.623 80.8896 366.371C80.5381 366.119 80.1104 365.993 79.6064 365.993C79.1025 365.993 78.6748 366.119 78.3232 366.371C77.9717 366.623 77.6992 366.989 77.5059 367.47C77.3184 367.944 77.2246 368.519 77.2246 369.192V369.21C77.2246 369.89 77.3184 370.47 77.5059 370.95C77.6934 371.425 77.9629 371.788 78.3145 372.04C78.6719 372.292 79.1025 372.418 79.6064 372.418ZM86.4004 374V364.411H88.5801V365.896H88.7295C88.9346 365.363 89.2656 364.95 89.7227 364.657C90.1855 364.364 90.7334 364.218 91.3662 364.218C91.7998 364.218 92.1895 364.288 92.5352 364.429C92.8867 364.569 93.1885 364.771 93.4404 365.035C93.6924 365.293 93.8857 365.604 94.0205 365.967H94.1699C94.3223 365.615 94.542 365.308 94.8291 365.044C95.1162 364.78 95.4502 364.578 95.8311 364.438C96.2178 364.291 96.6338 364.218 97.0791 364.218C97.7236 364.218 98.2744 364.347 98.7314 364.604C99.1943 364.856 99.5488 365.22 99.7949 365.694C100.041 366.169 100.164 366.737 100.164 367.399V374H97.9844V367.936C97.9844 367.52 97.9199 367.174 97.791 366.898C97.6621 366.617 97.4688 366.409 97.2109 366.274C96.9531 366.134 96.6309 366.063 96.2441 366.063C95.8633 366.063 95.5322 366.148 95.251 366.318C94.9697 366.488 94.75 366.72 94.5918 367.013C94.4395 367.306 94.3633 367.64 94.3633 368.015V374H92.1836V367.777C92.1836 367.42 92.1133 367.115 91.9727 366.863C91.8379 366.605 91.6387 366.409 91.375 366.274C91.1172 366.134 90.8096 366.063 90.4521 366.063C90.0947 366.063 89.7725 366.154 89.4854 366.336C89.2041 366.518 88.9814 366.77 88.8174 367.092C88.6592 367.408 88.5801 367.763 88.5801 368.155V374H86.4004ZM102.713 377.19V364.411H104.893V365.923H105.042C105.218 365.571 105.446 365.272 105.728 365.026C106.015 364.774 106.346 364.584 106.721 364.455C107.096 364.32 107.509 364.253 107.96 364.253C108.763 364.253 109.457 364.455 110.043 364.859C110.635 365.264 111.092 365.835 111.414 366.573C111.736 367.312 111.897 368.185 111.897 369.192V369.21C111.897 370.229 111.736 371.111 111.414 371.855C111.098 372.594 110.644 373.162 110.052 373.561C109.466 373.959 108.769 374.158 107.96 374.158C107.521 374.158 107.11 374.091 106.729 373.956C106.349 373.815 106.015 373.619 105.728 373.367C105.44 373.115 105.212 372.816 105.042 372.471H104.893V377.19H102.713ZM107.274 372.312C107.772 372.312 108.2 372.189 108.558 371.943C108.915 371.691 109.19 371.334 109.384 370.871C109.577 370.408 109.674 369.854 109.674 369.21V369.192C109.674 368.548 109.577 367.994 109.384 367.531C109.19 367.068 108.915 366.714 108.558 366.468C108.2 366.216 107.772 366.09 107.274 366.09C106.782 366.09 106.354 366.216 105.991 366.468C105.634 366.72 105.355 367.077 105.156 367.54C104.963 367.997 104.866 368.548 104.866 369.192V369.21C104.866 369.849 104.963 370.402 105.156 370.871C105.355 371.334 105.634 371.691 105.991 371.943C106.354 372.189 106.782 372.312 107.274 372.312ZM116.696 374.158C116.087 374.158 115.545 374.041 115.07 373.807C114.596 373.572 114.221 373.241 113.945 372.813C113.676 372.38 113.541 371.873 113.541 371.293V371.275C113.541 370.701 113.682 370.209 113.963 369.799C114.244 369.389 114.654 369.066 115.193 368.832C115.738 368.598 116.4 368.457 117.18 368.41L120.73 368.199V369.641L117.487 369.852C116.878 369.887 116.427 370.016 116.134 370.238C115.841 370.461 115.694 370.769 115.694 371.161V371.179C115.694 371.589 115.85 371.908 116.16 372.137C116.471 372.365 116.869 372.479 117.355 372.479C117.795 372.479 118.188 372.392 118.533 372.216C118.879 372.04 119.151 371.803 119.351 371.504C119.55 371.199 119.649 370.856 119.649 370.476V367.452C119.649 366.972 119.497 366.603 119.192 366.345C118.888 366.087 118.439 365.958 117.848 365.958C117.344 365.958 116.934 366.046 116.617 366.222C116.301 366.397 116.087 366.644 115.976 366.96L115.967 366.995H113.901L113.91 366.925C113.986 366.38 114.197 365.905 114.543 365.501C114.895 365.097 115.36 364.783 115.94 364.561C116.521 364.332 117.191 364.218 117.953 364.218C118.773 364.218 119.471 364.347 120.045 364.604C120.625 364.862 121.064 365.231 121.363 365.712C121.662 366.192 121.812 366.77 121.812 367.443V374H119.649V372.673H119.5C119.324 372.983 119.096 373.25 118.814 373.473C118.539 373.695 118.223 373.865 117.865 373.982C117.508 374.1 117.118 374.158 116.696 374.158ZM124.404 374V364.411H126.584V365.888H126.733C126.897 365.366 127.19 364.965 127.612 364.684C128.04 364.396 128.567 364.253 129.194 364.253C129.358 364.253 129.517 364.262 129.669 364.279C129.827 364.297 129.962 364.32 130.073 364.35V366.31C129.897 366.269 129.719 366.239 129.537 366.222C129.361 366.198 129.18 366.187 128.992 366.187C128.506 366.187 128.081 366.277 127.718 366.459C127.36 366.641 127.082 366.898 126.883 367.232C126.684 367.566 126.584 367.965 126.584 368.428V374H124.404ZM134.327 374.158C133.718 374.158 133.176 374.041 132.701 373.807C132.227 373.572 131.852 373.241 131.576 372.813C131.307 372.38 131.172 371.873 131.172 371.293V371.275C131.172 370.701 131.312 370.209 131.594 369.799C131.875 369.389 132.285 369.066 132.824 368.832C133.369 368.598 134.031 368.457 134.811 368.41L138.361 368.199V369.641L135.118 369.852C134.509 369.887 134.058 370.016 133.765 370.238C133.472 370.461 133.325 370.769 133.325 371.161V371.179C133.325 371.589 133.48 371.908 133.791 372.137C134.102 372.365 134.5 372.479 134.986 372.479C135.426 372.479 135.818 372.392 136.164 372.216C136.51 372.04 136.782 371.803 136.981 371.504C137.181 371.199 137.28 370.856 137.28 370.476V367.452C137.28 366.972 137.128 366.603 136.823 366.345C136.519 366.087 136.07 365.958 135.479 365.958C134.975 365.958 134.564 366.046 134.248 366.222C133.932 366.397 133.718 366.644 133.606 366.96L133.598 366.995H131.532L131.541 366.925C131.617 366.38 131.828 365.905 132.174 365.501C132.525 365.097 132.991 364.783 133.571 364.561C134.151 364.332 134.822 364.218 135.584 364.218C136.404 364.218 137.102 364.347 137.676 364.604C138.256 364.862 138.695 365.231 138.994 365.712C139.293 366.192 139.442 366.77 139.442 367.443V374H137.28V372.673H137.131C136.955 372.983 136.727 373.25 136.445 373.473C136.17 373.695 135.854 373.865 135.496 373.982C135.139 374.1 134.749 374.158 134.327 374.158ZM145.797 374.053C144.701 374.053 143.91 373.851 143.424 373.446C142.938 373.042 142.694 372.377 142.694 371.451V366.099H141.209V364.411H142.694V362.047H144.918V364.411H146.931V366.099H144.918V370.95C144.918 371.425 145.018 371.771 145.217 371.987C145.422 372.204 145.75 372.312 146.201 372.312C146.354 372.312 146.479 372.31 146.579 372.304C146.685 372.292 146.802 372.28 146.931 372.269V373.956C146.778 373.979 146.603 374 146.403 374.018C146.21 374.041 146.008 374.053 145.797 374.053ZM149.11 374V364.411H151.29V374H149.11ZM150.209 362.812C149.852 362.812 149.544 362.686 149.286 362.434C149.034 362.182 148.908 361.88 148.908 361.528C148.908 361.171 149.034 360.866 149.286 360.614C149.544 360.362 149.852 360.236 150.209 360.236C150.566 360.236 150.871 360.362 151.123 360.614C151.375 360.866 151.501 361.171 151.501 361.528C151.501 361.88 151.375 362.182 151.123 362.434C150.871 362.686 150.566 362.812 150.209 362.812ZM156.528 374L153.118 364.411H155.456L157.671 371.873H157.82L160.026 364.411H162.32L158.928 374H156.528ZM167.901 374.193C166.946 374.193 166.123 373.994 165.432 373.596C164.746 373.191 164.216 372.617 163.841 371.873C163.472 371.129 163.287 370.241 163.287 369.21V369.192C163.287 368.167 163.475 367.282 163.85 366.538C164.225 365.794 164.755 365.223 165.44 364.824C166.132 364.42 166.952 364.218 167.901 364.218C168.856 364.218 169.677 364.417 170.362 364.815C171.054 365.214 171.587 365.785 171.962 366.529C172.337 367.273 172.524 368.161 172.524 369.192V369.21C172.524 370.241 172.337 371.129 171.962 371.873C171.593 372.617 171.062 373.191 170.371 373.596C169.686 373.994 168.862 374.193 167.901 374.193ZM167.901 372.418C168.411 372.418 168.842 372.292 169.193 372.04C169.545 371.782 169.814 371.416 170.002 370.941C170.189 370.461 170.283 369.884 170.283 369.21V369.192C170.283 368.519 170.189 367.944 170.002 367.47C169.814 366.989 169.542 366.623 169.185 366.371C168.833 366.119 168.405 365.993 167.901 365.993C167.397 365.993 166.97 366.119 166.618 366.371C166.267 366.623 165.994 366.989 165.801 367.47C165.613 367.944 165.52 368.519 165.52 369.192V369.21C165.52 369.89 165.613 370.47 165.801 370.95C165.988 371.425 166.258 371.788 166.609 372.04C166.967 372.292 167.397 372.418 167.901 372.418ZM182.904 374.158C182.107 374.158 181.413 373.959 180.821 373.561C180.229 373.156 179.772 372.585 179.45 371.847C179.128 371.103 178.967 370.224 178.967 369.21V369.192C178.967 368.179 179.125 367.303 179.441 366.564C179.764 365.82 180.218 365.249 180.804 364.851C181.396 364.452 182.096 364.253 182.904 364.253C183.344 364.253 183.754 364.323 184.135 364.464C184.516 364.599 184.85 364.792 185.137 365.044C185.43 365.29 185.658 365.589 185.822 365.94H185.972V360.702H188.151V374H185.972V372.497H185.822C185.646 372.843 185.415 373.142 185.128 373.394C184.847 373.64 184.519 373.83 184.144 373.965C183.769 374.094 183.355 374.158 182.904 374.158ZM183.59 372.312C184.082 372.312 184.507 372.189 184.864 371.943C185.228 371.691 185.506 371.334 185.699 370.871C185.898 370.408 185.998 369.857 185.998 369.219V369.201C185.998 368.557 185.898 368.003 185.699 367.54C185.506 367.077 185.228 366.72 184.864 366.468C184.507 366.216 184.082 366.09 183.59 366.09C183.092 366.09 182.664 366.216 182.307 366.468C181.949 366.72 181.674 367.077 181.48 367.54C181.287 367.997 181.19 368.548 181.19 369.192V369.21C181.19 369.854 181.287 370.411 181.48 370.88C181.674 371.343 181.949 371.697 182.307 371.943C182.664 372.189 183.092 372.312 183.59 372.312ZM195.024 374.193C194.069 374.193 193.246 373.994 192.555 373.596C191.869 373.191 191.339 372.617 190.964 371.873C190.595 371.129 190.41 370.241 190.41 369.21V369.192C190.41 368.167 190.598 367.282 190.973 366.538C191.348 365.794 191.878 365.223 192.563 364.824C193.255 364.42 194.075 364.218 195.024 364.218C195.979 364.218 196.8 364.417 197.485 364.815C198.177 365.214 198.71 365.785 199.085 366.529C199.46 367.273 199.647 368.161 199.647 369.192V369.21C199.647 370.241 199.46 371.129 199.085 371.873C198.716 372.617 198.186 373.191 197.494 373.596C196.809 373.994 195.985 374.193 195.024 374.193ZM195.024 372.418C195.534 372.418 195.965 372.292 196.316 372.04C196.668 371.782 196.938 371.416 197.125 370.941C197.312 370.461 197.406 369.884 197.406 369.21V369.192C197.406 368.519 197.312 367.944 197.125 367.47C196.938 366.989 196.665 366.623 196.308 366.371C195.956 366.119 195.528 365.993 195.024 365.993C194.521 365.993 194.093 366.119 193.741 366.371C193.39 366.623 193.117 366.989 192.924 367.47C192.736 367.944 192.643 368.519 192.643 369.192V369.21C192.643 369.89 192.736 370.47 192.924 370.95C193.111 371.425 193.381 371.788 193.732 372.04C194.09 372.292 194.521 372.418 195.024 372.418ZM205.439 374.193C204.631 374.193 203.931 374.076 203.339 373.842C202.753 373.607 202.29 373.285 201.95 372.875C201.61 372.459 201.411 371.981 201.353 371.442L201.344 371.416H203.515L203.523 371.434C203.635 371.773 203.852 372.049 204.174 372.26C204.502 372.471 204.936 372.576 205.475 372.576C205.844 372.576 206.163 372.526 206.433 372.427C206.708 372.321 206.925 372.178 207.083 371.996C207.241 371.814 207.32 371.604 207.32 371.363V371.354C207.32 371.073 207.206 370.839 206.978 370.651C206.749 370.458 206.374 370.3 205.853 370.177L204.288 369.834C203.685 369.699 203.184 369.512 202.785 369.271C202.387 369.031 202.088 368.735 201.889 368.384C201.695 368.032 201.599 367.622 201.599 367.153V367.145C201.599 366.564 201.76 366.055 202.082 365.615C202.41 365.176 202.864 364.833 203.444 364.587C204.024 364.341 204.689 364.218 205.439 364.218C206.219 364.218 206.89 364.338 207.452 364.578C208.015 364.812 208.454 365.135 208.771 365.545C209.087 365.955 209.269 366.421 209.315 366.942V366.969H207.25V366.942C207.174 366.632 206.98 366.371 206.67 366.16C206.359 365.943 205.946 365.835 205.431 365.835C205.108 365.835 204.821 365.885 204.569 365.984C204.317 366.078 204.118 366.216 203.972 366.397C203.831 366.573 203.761 366.781 203.761 367.021V367.03C203.761 367.218 203.808 367.382 203.901 367.522C204.001 367.663 204.156 367.786 204.367 367.892C204.578 367.997 204.856 368.091 205.202 368.173L206.749 368.516C207.692 368.727 208.39 369.04 208.841 369.456C209.292 369.872 209.518 370.432 209.518 371.135V371.144C209.518 371.753 209.342 372.289 208.99 372.752C208.639 373.209 208.155 373.563 207.54 373.815C206.931 374.067 206.23 374.193 205.439 374.193ZM219.625 374.193C218.91 374.193 218.31 374.056 217.823 373.78C217.337 373.499 216.971 373.092 216.725 372.559C216.479 372.02 216.355 371.372 216.355 370.616V364.411H218.544V370.115C218.544 370.854 218.69 371.41 218.983 371.785C219.276 372.16 219.754 372.348 220.416 372.348C220.768 372.348 221.078 372.295 221.348 372.189C221.617 372.078 221.843 371.92 222.024 371.715C222.212 371.51 222.35 371.264 222.438 370.977C222.531 370.684 222.578 370.358 222.578 370.001V364.411H224.767V374H222.578V372.541H222.438C222.291 372.881 222.086 373.177 221.822 373.429C221.559 373.675 221.242 373.865 220.873 374C220.504 374.129 220.088 374.193 219.625 374.193ZM221.225 363.11H219.599L221.137 360.069H223.325L221.225 363.11ZM227.491 374V360.702H229.68V374H227.491ZM236.166 374.053C235.07 374.053 234.279 373.851 233.793 373.446C233.307 373.042 233.063 372.377 233.063 371.451V366.099H231.578V364.411H233.063V362.047H235.287V364.411H237.3V366.099H235.287V370.95C235.287 371.425 235.387 371.771 235.586 371.987C235.791 372.204 236.119 372.312 236.57 372.312C236.723 372.312 236.849 372.31 236.948 372.304C237.054 372.292 237.171 372.28 237.3 372.269V373.956C237.147 373.979 236.972 374 236.772 374.018C236.579 374.041 236.377 374.053 236.166 374.053ZM239.479 374V364.411H241.659V374H239.479ZM240.578 362.812C240.221 362.812 239.913 362.686 239.655 362.434C239.403 362.182 239.277 361.88 239.277 361.528C239.277 361.171 239.403 360.866 239.655 360.614C239.913 360.362 240.221 360.236 240.578 360.236C240.936 360.236 241.24 360.362 241.492 360.614C241.744 360.866 241.87 361.171 241.87 361.528C241.87 361.88 241.744 362.182 241.492 362.434C241.24 362.686 240.936 362.812 240.578 362.812ZM244.322 374V364.411H246.502V365.896H246.651C246.856 365.363 247.188 364.95 247.645 364.657C248.107 364.364 248.655 364.218 249.288 364.218C249.722 364.218 250.111 364.288 250.457 364.429C250.809 364.569 251.11 364.771 251.362 365.035C251.614 365.293 251.808 365.604 251.942 365.967H252.092C252.244 365.615 252.464 365.308 252.751 365.044C253.038 364.78 253.372 364.578 253.753 364.438C254.14 364.291 254.556 364.218 255.001 364.218C255.646 364.218 256.196 364.347 256.653 364.604C257.116 364.856 257.471 365.22 257.717 365.694C257.963 366.169 258.086 366.737 258.086 367.399V374H255.906V367.936C255.906 367.52 255.842 367.174 255.713 366.898C255.584 366.617 255.391 366.409 255.133 366.274C254.875 366.134 254.553 366.063 254.166 366.063C253.785 366.063 253.454 366.148 253.173 366.318C252.892 366.488 252.672 366.72 252.514 367.013C252.361 367.306 252.285 367.64 252.285 368.015V374H250.105V367.777C250.105 367.42 250.035 367.115 249.895 366.863C249.76 366.605 249.561 366.409 249.297 366.274C249.039 366.134 248.731 366.063 248.374 366.063C248.017 366.063 247.694 366.154 247.407 366.336C247.126 366.518 246.903 366.77 246.739 367.092C246.581 367.408 246.502 367.763 246.502 368.155V374H244.322ZM264.774 374.193C263.819 374.193 262.996 373.994 262.305 373.596C261.619 373.191 261.089 372.617 260.714 371.873C260.345 371.129 260.16 370.241 260.16 369.21V369.192C260.16 368.167 260.348 367.282 260.723 366.538C261.098 365.794 261.628 365.223 262.313 364.824C263.005 364.42 263.825 364.218 264.774 364.218C265.729 364.218 266.55 364.417 267.235 364.815C267.927 365.214 268.46 365.785 268.835 366.529C269.21 367.273 269.397 368.161 269.397 369.192V369.21C269.397 370.241 269.21 371.129 268.835 371.873C268.466 372.617 267.936 373.191 267.244 373.596C266.559 373.994 265.735 374.193 264.774 374.193ZM264.774 372.418C265.284 372.418 265.715 372.292 266.066 372.04C266.418 371.782 266.688 371.416 266.875 370.941C267.062 370.461 267.156 369.884 267.156 369.21V369.192C267.156 368.519 267.062 367.944 266.875 367.47C266.688 366.989 266.415 366.623 266.058 366.371C265.706 366.119 265.278 365.993 264.774 365.993C264.271 365.993 263.843 366.119 263.491 366.371C263.14 366.623 262.867 366.989 262.674 367.47C262.486 367.944 262.393 368.519 262.393 369.192V369.21C262.393 369.89 262.486 370.47 262.674 370.95C262.861 371.425 263.131 371.788 263.482 372.04C263.84 372.292 264.271 372.418 264.774 372.418ZM275.189 374.193C274.381 374.193 273.681 374.076 273.089 373.842C272.503 373.607 272.04 373.285 271.7 372.875C271.36 372.459 271.161 371.981 271.103 371.442L271.094 371.416H273.265L273.273 371.434C273.385 371.773 273.602 372.049 273.924 372.26C274.252 372.471 274.686 372.576 275.225 372.576C275.594 372.576 275.913 372.526 276.183 372.427C276.458 372.321 276.675 372.178 276.833 371.996C276.991 371.814 277.07 371.604 277.07 371.363V371.354C277.07 371.073 276.956 370.839 276.728 370.651C276.499 370.458 276.124 370.3 275.603 370.177L274.038 369.834C273.435 369.699 272.934 369.512 272.535 369.271C272.137 369.031 271.838 368.735 271.639 368.384C271.445 368.032 271.349 367.622 271.349 367.153V367.145C271.349 366.564 271.51 366.055 271.832 365.615C272.16 365.176 272.614 364.833 273.194 364.587C273.774 364.341 274.439 364.218 275.189 364.218C275.969 364.218 276.64 364.338 277.202 364.578C277.765 364.812 278.204 365.135 278.521 365.545C278.837 365.955 279.019 366.421 279.065 366.942V366.969H277V366.942C276.924 366.632 276.73 366.371 276.42 366.16C276.109 365.943 275.696 365.835 275.181 365.835C274.858 365.835 274.571 365.885 274.319 365.984C274.067 366.078 273.868 366.216 273.722 366.397C273.581 366.573 273.511 366.781 273.511 367.021V367.03C273.511 367.218 273.558 367.382 273.651 367.522C273.751 367.663 273.906 367.786 274.117 367.892C274.328 367.997 274.606 368.091 274.952 368.173L276.499 368.516C277.442 368.727 278.14 369.04 278.591 369.456C279.042 369.872 279.268 370.432 279.268 371.135V371.144C279.268 371.753 279.092 372.289 278.74 372.752C278.389 373.209 277.905 373.563 277.29 373.815C276.681 374.067 275.98 374.193 275.189 374.193ZM286.738 374L292.258 363.304V363.172H285.71V361.317H294.534V363.207L289.111 374H286.738ZM305.037 374.158C304.24 374.158 303.546 373.959 302.954 373.561C302.362 373.156 301.905 372.585 301.583 371.847C301.261 371.103 301.1 370.224 301.1 369.21V369.192C301.1 368.179 301.258 367.303 301.574 366.564C301.896 365.82 302.351 365.249 302.937 364.851C303.528 364.452 304.229 364.253 305.037 364.253C305.477 364.253 305.887 364.323 306.268 364.464C306.648 364.599 306.982 364.792 307.27 365.044C307.562 365.29 307.791 365.589 307.955 365.94H308.104V360.702H310.284V374H308.104V372.497H307.955C307.779 372.843 307.548 373.142 307.261 373.394C306.979 373.64 306.651 373.83 306.276 373.965C305.901 374.094 305.488 374.158 305.037 374.158ZM305.723 372.312C306.215 372.312 306.64 372.189 306.997 371.943C307.36 371.691 307.639 371.334 307.832 370.871C308.031 370.408 308.131 369.857 308.131 369.219V369.201C308.131 368.557 308.031 368.003 307.832 367.54C307.639 367.077 307.36 366.72 306.997 366.468C306.64 366.216 306.215 366.09 305.723 366.09C305.225 366.09 304.797 366.216 304.439 366.468C304.082 366.72 303.807 367.077 303.613 367.54C303.42 367.997 303.323 368.548 303.323 369.192V369.21C303.323 369.854 303.42 370.411 303.613 370.88C303.807 371.343 304.082 371.697 304.439 371.943C304.797 372.189 305.225 372.312 305.723 372.312ZM313.044 374V364.411H315.224V374H313.044ZM314.143 362.812C313.785 362.812 313.478 362.686 313.22 362.434C312.968 362.182 312.842 361.88 312.842 361.528C312.842 361.171 312.968 360.866 313.22 360.614C313.478 360.362 313.785 360.236 314.143 360.236C314.5 360.236 314.805 360.362 315.057 360.614C315.309 360.866 315.435 361.171 315.435 361.528C315.435 361.88 315.309 362.182 315.057 362.434C314.805 362.686 314.5 362.812 314.143 362.812ZM320.515 374.158C319.905 374.158 319.363 374.041 318.889 373.807C318.414 373.572 318.039 373.241 317.764 372.813C317.494 372.38 317.359 371.873 317.359 371.293V371.275C317.359 370.701 317.5 370.209 317.781 369.799C318.062 369.389 318.473 369.066 319.012 368.832C319.557 368.598 320.219 368.457 320.998 368.41L324.549 368.199V369.641L321.306 369.852C320.696 369.887 320.245 370.016 319.952 370.238C319.659 370.461 319.513 370.769 319.513 371.161V371.179C319.513 371.589 319.668 371.908 319.979 372.137C320.289 372.365 320.688 372.479 321.174 372.479C321.613 372.479 322.006 372.392 322.352 372.216C322.697 372.04 322.97 371.803 323.169 371.504C323.368 371.199 323.468 370.856 323.468 370.476V367.452C323.468 366.972 323.315 366.603 323.011 366.345C322.706 366.087 322.258 365.958 321.666 365.958C321.162 365.958 320.752 366.046 320.436 366.222C320.119 366.397 319.905 366.644 319.794 366.96L319.785 366.995H317.72L317.729 366.925C317.805 366.38 318.016 365.905 318.361 365.501C318.713 365.097 319.179 364.783 319.759 364.561C320.339 364.332 321.01 364.218 321.771 364.218C322.592 364.218 323.289 364.347 323.863 364.604C324.443 364.862 324.883 365.231 325.182 365.712C325.48 366.192 325.63 366.77 325.63 367.443V374H323.468V372.673H323.318C323.143 372.983 322.914 373.25 322.633 373.473C322.357 373.695 322.041 373.865 321.684 373.982C321.326 374.1 320.937 374.158 320.515 374.158ZM331.844 374.193C331.035 374.193 330.335 374.076 329.743 373.842C329.157 373.607 328.694 373.285 328.354 372.875C328.015 372.459 327.815 371.981 327.757 371.442L327.748 371.416H329.919L329.928 371.434C330.039 371.773 330.256 372.049 330.578 372.26C330.906 372.471 331.34 372.576 331.879 372.576C332.248 372.576 332.567 372.526 332.837 372.427C333.112 372.321 333.329 372.178 333.487 371.996C333.646 371.814 333.725 371.604 333.725 371.363V371.354C333.725 371.073 333.61 370.839 333.382 370.651C333.153 370.458 332.778 370.3 332.257 370.177L330.692 369.834C330.089 369.699 329.588 369.512 329.189 369.271C328.791 369.031 328.492 368.735 328.293 368.384C328.1 368.032 328.003 367.622 328.003 367.153V367.145C328.003 366.564 328.164 366.055 328.486 365.615C328.814 365.176 329.269 364.833 329.849 364.587C330.429 364.341 331.094 364.218 331.844 364.218C332.623 364.218 333.294 364.338 333.856 364.578C334.419 364.812 334.858 365.135 335.175 365.545C335.491 365.955 335.673 366.421 335.72 366.942V366.969H333.654V366.942C333.578 366.632 333.385 366.371 333.074 366.16C332.764 365.943 332.351 365.835 331.835 365.835C331.513 365.835 331.226 365.885 330.974 365.984C330.722 366.078 330.522 366.216 330.376 366.397C330.235 366.573 330.165 366.781 330.165 367.021V367.03C330.165 367.218 330.212 367.382 330.306 367.522C330.405 367.663 330.561 367.786 330.771 367.892C330.982 367.997 331.261 368.091 331.606 368.173L333.153 368.516C334.097 368.727 334.794 369.04 335.245 369.456C335.696 369.872 335.922 370.432 335.922 371.135V371.144C335.922 371.753 335.746 372.289 335.395 372.752C335.043 373.209 334.56 373.563 333.944 373.815C333.335 374.067 332.635 374.193 331.844 374.193Z" fill="#1F1F1F"/>
<line x1="253.6" y1="75.6" x2="253.6" y2="0.400002" stroke="#B0B0B1" stroke-width="0.8" stroke-linecap="square"/>
<line x1="1279.6" y1="76.4" x2="0.399979" y2="76.4" stroke="#B0B0B1" stroke-width="0.8" stroke-linecap="square"/>
<path d="M791.138 184.915C790.794 185.018 790.598 185.38 790.7 185.724C790.803 186.068 791.165 186.264 791.509 186.161L791.323 185.538L791.138 184.915ZM797.466 185.904L797.413 185.256V185.256L797.466 185.904ZM801.151 185.173L801.411 185.769H801.411L801.151 185.173ZM804.672 182.315L804.191 181.878V181.878L804.672 182.315ZM802.264 180.526L802.697 181.011V181.011L802.264 180.526ZM800.642 181.973L801.075 182.458V182.458L800.642 181.973ZM796.237 181.965C795.878 181.965 795.587 182.256 795.587 182.615C795.587 182.974 795.878 183.265 796.237 183.265V182.615V181.965ZM804.298 180.346L803.966 180.905V180.905L804.298 180.346ZM792.57 179.867L792.835 180.461H792.835L792.57 179.867ZM796.978 179.507L797.132 178.876V178.876L796.978 179.507ZM798.699 179.926L798.546 180.558V180.558L798.699 179.926ZM799.245 181.759L798.812 181.274V181.274L799.245 181.759ZM797.852 182.13C797.584 182.369 797.561 182.78 797.8 183.048C798.039 183.316 798.45 183.339 798.717 183.1L798.285 182.615L797.852 182.13ZM791.323 185.538L791.509 186.161C791.701 186.104 792.015 186.084 792.472 186.113C792.917 186.142 793.431 186.211 793.997 186.29C795.096 186.444 796.407 186.642 797.518 186.552L797.466 185.904L797.413 185.256C796.477 185.332 795.331 185.164 794.178 185.003C793.618 184.924 793.057 184.848 792.555 184.816C792.065 184.785 791.56 184.79 791.138 184.915L791.323 185.538ZM797.466 185.904L797.518 186.552C799.119 186.422 799.828 186.458 801.411 185.769L801.151 185.173L800.892 184.577C799.543 185.164 799.06 185.122 797.413 185.256L797.466 185.904ZM801.151 185.173L801.411 185.769C802.827 185.152 804.266 183.729 805.154 182.752L804.672 182.315L804.191 181.878C803.304 182.855 802.027 184.083 800.892 184.577L801.151 185.173ZM802.264 180.526L801.831 180.041L800.209 181.488L800.642 181.973L801.075 182.458L802.697 181.011L802.264 180.526ZM798.905 182.615V181.965H796.237V182.615V183.265H798.905V182.615ZM800.642 181.973L800.209 181.488C799.875 181.787 799.406 181.965 798.905 181.965V182.615V183.265C799.706 183.265 800.488 182.982 801.075 182.458L800.642 181.973ZM804.298 180.346L804.63 179.788C803.754 179.267 802.592 179.362 801.831 180.041L802.264 180.526L802.697 181.011C803.022 180.721 803.563 180.665 803.966 180.905L804.298 180.346ZM804.672 182.315L805.154 182.752C806.037 181.778 805.675 180.409 804.63 179.788L804.298 180.346L803.966 180.905C804.415 181.172 804.438 181.606 804.191 181.878L804.672 182.315ZM786.819 178.962V179.612H790.095V178.962V178.312H786.819V178.962ZM790.914 179.692H790.264V186.269H790.914H791.564V179.692H790.914ZM790.095 187V186.35H786.819V187V187.65H790.095V187ZM786 186.269H786.65V179.692H786H785.35V186.269H786ZM786.819 187V186.35C786.749 186.35 786.699 186.325 786.673 186.301C786.66 186.289 786.654 186.28 786.652 186.275C786.65 186.272 786.65 186.27 786.65 186.269H786H785.35C785.35 187.099 786.079 187.65 786.819 187.65V187ZM790.914 186.269H790.264C790.264 186.27 790.264 186.272 790.262 186.275C790.26 186.28 790.254 186.289 790.241 186.301C790.214 186.325 790.165 186.35 790.095 186.35V187V187.65C790.835 187.65 791.564 187.099 791.564 186.269H790.914ZM790.095 178.962V179.612C790.165 179.612 790.214 179.637 790.241 179.661C790.254 179.672 790.26 179.682 790.262 179.686C790.264 179.69 790.264 179.691 790.264 179.692H790.914H791.564C791.564 178.862 790.835 178.312 790.095 178.312V178.962ZM786.819 178.962V178.312C786.079 178.312 785.35 178.862 785.35 179.692H786H786.65C786.65 179.691 786.65 179.69 786.652 179.686C786.654 179.682 786.66 179.672 786.673 179.661C786.699 179.637 786.749 179.612 786.819 179.612V178.962ZM791.323 180.423L791.588 181.017L792.835 180.461L792.57 179.867L792.305 179.273L791.058 179.829L791.323 180.423ZM795.134 179.327V179.977H795.469V179.327V178.677H795.134V179.327ZM796.978 179.507L796.824 180.139L798.546 180.558L798.699 179.926L798.853 179.295L797.132 178.876L796.978 179.507ZM799.245 181.759L798.812 181.274L797.852 182.13L798.285 182.615L798.717 183.1L799.677 182.244L799.245 181.759ZM798.699 179.926L798.546 180.558C798.787 180.616 798.903 180.764 798.94 180.888C798.975 181.005 798.955 181.146 798.812 181.274L799.245 181.759L799.677 182.244C800.201 181.777 800.363 181.112 800.186 180.517C800.011 179.929 799.522 179.457 798.853 179.295L798.699 179.926ZM795.469 179.327V179.977C795.928 179.977 796.383 180.031 796.824 180.139L796.978 179.507L797.132 178.876C796.589 178.744 796.03 178.677 795.469 178.677V179.327ZM792.57 179.867L792.835 180.461C793.546 180.143 794.333 179.977 795.134 179.977V179.327V178.677C794.154 178.677 793.186 178.88 792.305 179.273L792.57 179.867ZM801.561 173.846H800.911C800.911 175.034 799.806 176.119 798.285 176.119V176.769V177.419C800.381 177.419 802.211 175.887 802.211 173.846H801.561ZM798.285 176.769V176.119C796.763 176.119 795.659 175.034 795.659 173.846H795.009H794.359C794.359 175.887 796.188 177.419 798.285 177.419V176.769ZM795.009 173.846H795.659C795.659 172.658 796.763 171.573 798.285 171.573V170.923V170.273C796.188 170.273 794.359 171.805 794.359 173.846H795.009ZM798.285 170.923V171.573C799.806 171.573 800.911 172.658 800.911 173.846H801.561H802.211C802.211 171.805 800.381 170.273 798.285 170.273V170.923ZM795.009 173.846V173.196C793.487 173.196 792.383 172.111 792.383 170.923H791.733H791.083C791.083 172.964 792.912 174.496 795.009 174.496V173.846ZM791.733 170.923H792.383C792.383 169.735 793.487 168.65 795.009 168.65V168V167.35C792.912 167.35 791.083 168.882 791.083 170.923H791.733ZM795.009 168V168.65C796.531 168.65 797.635 169.735 797.635 170.923H798.285H798.935C798.935 168.882 797.105 167.35 795.009 167.35V168Z" fill="#006341"/>
<path d="M262.401 173.182C263.168 170.202 265.872 168 269.091 168C272.907 168 276 171.093 276 174.909C276 177.951 274.034 180.534 271.303 181.457M262.401 182.572H263.909M263.909 182.572H265.312M263.909 182.572V177.067C263.909 177.067 262.856 177.79 262.181 178.254M270.817 180.091C270.817 183.907 267.724 187 263.909 187C260.093 187 257 183.907 257 180.091C257 176.275 260.093 173.182 263.909 173.182C267.724 173.182 270.817 176.275 270.817 180.091Z" stroke="#006341" stroke-width="1.5" stroke-linecap="round" stroke-linejoin="round"/>
</g>
<defs>
<clipPath id="clip0_1_2">
<rect width="1280" height="720" fill="white"/>
</clipPath>
</defs>
</svg>
